<?xml version="1.0" encoding="UTF-8" standalone="no"?>
<svg
   viewBox="0 0 793.7007874015749 1122.5196850393702"
   width="793.7007874015749"
   height="1122.5196850393702"
   version="1.1"
   id="svg105"
   sodipodi:docname="Face_plate_with_text.svg"
   inkscape:version="1.3.2 (091e20e, 2023-11-25, custom)"
   xmlns:inkscape="http://www.inkscape.org/namespaces/inkscape"
   xmlns:sodipodi="http://sodipodi.sourceforge.net/DTD/sodipodi-0.dtd"
   xmlns="http://www.w3.org/2000/svg"
   xmlns:svg="http://www.w3.org/2000/svg">
  <sodipodi:namedview
     id="namedview105"
     pagecolor="#ffffff"
     bordercolor="#000000"
     borderopacity="0.25"
     inkscape:showpageshadow="2"
     inkscape:pageopacity="0.0"
     inkscape:pagecheckerboard="0"
     inkscape:deskcolor="#d1d1d1"
     inkscape:zoom="1.05477"
     inkscape:cx="124.1977"
     inkscape:cy="272.09725"
     inkscape:window-width="1440"
     inkscape:window-height="830"
     inkscape:window-x="-6"
     inkscape:window-y="-6"
     inkscape:window-maximized="1"
     inkscape:current-layer="g96" />
  <desc
     id="desc1">Plywood Housing Studio - Face Plate.dxf - scale = 1.000000, origin = (0.000000, 0.000000), method = manual</desc>
  <defs
     id="defs4">
    <rect
       x="224.59403"
       y="412.39578"
       width="301.36166"
       height="125.64351"
       id="rect105" />
    <marker
       id="DistanceX"
       orient="auto"
       refX="0.0"
       refY="0.0"
       style="overflow:visible">
      <path
         d="M 3,-3 L -3,3 M 0,-5 L  0,5"
         style="stroke:#000000; stroke-width:0.5"
         id="path1" />
    </marker>
    <pattern
       id="Hatch"
       patternUnits="userSpaceOnUse"
       width="8"
       height="8"
       x="0"
       y="0">
      <path
         d="M8 4 l-4,4"
         stroke="#000000"
         stroke-width="0.25"
         linecap="square"
         id="path2" />
      <path
         d="M6 2 l-4,4"
         stroke="#000000"
         stroke-width="0.25"
         linecap="square"
         id="path3" />
      <path
         d="M4 0 l-4,4"
         stroke="#000000"
         stroke-width="0.25"
         linecap="square"
         id="path4" />
    </pattern>
    <symbol
       id="*MODEL_SPACE" />
    <symbol
       id="*PAPER_SPACE" />
  </defs>
  <g
     inkscape:groupmode="layer"
     inkscape:label="0"
     id="g4" />
  <g
     inkscape:groupmode="layer"
     inkscape:label="SECTION_CUTTING_LINE"
     id="g5" />
  <g
     inkscape:groupmode="layer"
     inkscape:label="DETAIL_VIEW_BORDER"
     id="g6" />
  <g
     inkscape:groupmode="layer"
     inkscape:label="DETAIL_VIEW_PARENT_BORDER"
     id="g7" />
  <g
     inkscape:groupmode="layer"
     inkscape:label="TEXT"
     id="g8" />
  <g
     inkscape:groupmode="layer"
     inkscape:label="SKETCHED_GEOMETRY"
     id="g9" />
  <g
     inkscape:groupmode="layer"
     inkscape:label="VIRTUAL_SHARPS"
     id="g10" />
  <g
     inkscape:groupmode="layer"
     inkscape:label="CENTERLINES"
     id="g11" />
  <g
     inkscape:groupmode="layer"
     inkscape:label="CENTERMARKS"
     id="g12" />
  <g
     inkscape:groupmode="layer"
     inkscape:label="TABLES"
     id="g13" />
  <g
     inkscape:groupmode="layer"
     inkscape:label="IMAGES"
     id="g14" />
  <g
     inkscape:groupmode="layer"
     inkscape:label="ANNOTATION_LINES"
     id="g15" />
  <g
     inkscape:groupmode="layer"
     inkscape:label="ANNOTATION_TEXT"
     id="g16" />
  <g
     inkscape:groupmode="layer"
     inkscape:label="SIDE_THREAD_SYMBOLS"
     id="g17" />
  <g
     inkscape:groupmode="layer"
     inkscape:label="SIDE_THREAD_SYMBOLS_HIDDEN"
     id="g18" />
  <g
     inkscape:groupmode="layer"
     inkscape:label="SURFACE_THREAD_SYMBOLS"
     id="g19" />
  <g
     inkscape:groupmode="layer"
     inkscape:label="SURFACE_THREAD_SYMBOLS_ON_"
     id="g20" />
  <g
     inkscape:groupmode="layer"
     inkscape:label="SURFACE_THREAD_SYMBOLS_HID"
     id="g21" />
  <g
     inkscape:groupmode="layer"
     inkscape:label="BLIND_THREAD_SYMBOLS"
     id="g22" />
  <g
     inkscape:groupmode="layer"
     inkscape:label="BLIND_THREAD_SYMBOLS_HIDDE"
     id="g23" />
  <g
     inkscape:groupmode="layer"
     inkscape:label="EXPLODE_LINES"
     id="g24" />
  <g
     inkscape:groupmode="layer"
     inkscape:label="HIDDEN_EXPLODE_LINES"
     id="g25" />
  <g
     inkscape:groupmode="layer"
     inkscape:label="BREAK_LINES"
     id="g26" />
  <g
     inkscape:groupmode="layer"
     inkscape:label="SHEETMETAL_BEND_LINES_UP"
     id="g27" />
  <g
     inkscape:groupmode="layer"
     inkscape:label="SHEETMETAL_BEND_LINES_DOWN"
     id="g28" />
  <g
     inkscape:groupmode="layer"
     inkscape:label="SHEETMETAL_BEND_TANGENT_LI"
     id="g29" />
  <g
     inkscape:groupmode="layer"
     inkscape:label="SHEETMETAL_CUT_LINES"
     id="g30" />
  <g
     inkscape:groupmode="layer"
     inkscape:label="REGION_ASSOC_POINTS"
     id="g31" />
  <g
     inkscape:groupmode="layer"
     inkscape:label="PATTERN_CENTERLINES"
     id="g32" />
  <g
     inkscape:groupmode="layer"
     inkscape:label="HIDDEN"
     id="g33" />
  <g
     inkscape:groupmode="layer"
     inkscape:label="VISIBLE"
     id="g96">
    <path
       d="m 64.79016,295.3029 a 9.448819,9.448819 0 0 0 -18.89763,0 9.448819,9.448819 0 0 0 18.89763,0 z"
       style="fill:none;stroke:#000000"
       id="path33" />
    <path
       d="m 393.53347,295.3029 a 9.44882,9.44882 0 0 0 -18.89764,0 9.44882,9.44882 0 0 0 18.89764,0 z"
       style="fill:none;stroke:#000000"
       id="path34" />
    <path
       d="m 173.60276,247.62736 a 3.968505,3.968505 0 0 0 -7.93701,0 3.968505,3.968505 0 0 0 7.93701,0 z"
       style="fill:none;stroke:#000000"
       id="path35" />
    <path
       d="m 84.78386,247.62736 a 3.968504,3.968504 0 0 0 -7.937,0 3.968504,3.968504 0 0 0 7.937,0 z"
       style="fill:none;stroke:#000000"
       id="path36" />
    <path
       d="m 173.60276,157.6746 a 3.968505,3.968505 0 0 0 -7.93701,0 3.968505,3.968505 0 0 0 7.93701,0 z"
       style="fill:none;stroke:#000000"
       id="path37" />
    <path
       d="m 84.78386,157.6746 a 3.968504,3.968504 0 0 0 -7.937,0 3.968504,3.968504 0 0 0 7.937,0 z"
       style="fill:none;stroke:#000000"
       id="path38" />
    <path
       d="m 225.329,330.07824 a 5.616,5.616 0 0 0 -11.232,0 5.616,5.616 0 0 0 11.232,0 z"
       style="fill:none;stroke:#000000"
       id="path39" />
    <path
       d="m 368.05946,53.41314 a 3.968505,3.968505 0 0 0 -7.93701,0 3.968505,3.968505 0 0 0 7.93701,0 z"
       style="fill:none;stroke:#000000"
       id="path40" />
    <path
       d="m 324.97284,231.05093 a 3.968505,3.968505 0 0 0 -7.93701,0 3.968505,3.968505 0 0 0 7.93701,0 z"
       style="fill:none;stroke:#000000"
       id="path41" />
    <path
       d="m 368.05946,231.05093 a 3.968505,3.968505 0 0 0 -7.93701,0 3.968505,3.968505 0 0 0 7.93701,0 z"
       style="fill:none;stroke:#000000"
       id="path42" />
    <path
       d="m 225.329,39.29424 a 5.616,5.616 0 0 0 -11.232,0 5.616,5.616 0 0 0 11.232,0 z"
       style="fill:none;stroke:#000000"
       id="path43" />
    <path
       d="m 324.97284,53.41314 a 3.968505,3.968505 0 0 0 -7.93701,0 3.968505,3.968505 0 0 0 7.93701,0 z"
       style="fill:none;stroke:#000000"
       id="path44" />
    <path
       d="m 243.67942,494.3507 a 6.387405,6.387405 0 0 0 -12.77481,0 6.387405,6.387405 0 0 0 12.77481,0 z"
       style="fill:none;stroke:#000000"
       id="path45" />
    <path
       d="m 303.00957,435.02055 a 6.387402,6.387402 0 0 0 -12.7748,0 6.387402,6.387402 0 0 0 12.7748,0 z"
       style="fill:none;stroke:#000000"
       id="path46" />
    <path
       d="m 338.16761,494.3507 a 6.387405,6.387405 0 0 0 -12.77481,0 6.387405,6.387405 0 0 0 12.77481,0 z"
       style="fill:none;stroke:#000000"
       id="path47" />
    <path
       d="m 397.49776,435.02055 a 6.387402,6.387402 0 0 0 -12.7748,0 6.387402,6.387402 0 0 0 12.7748,0 z"
       style="fill:none;stroke:#000000"
       id="path48" />
    <path
       d="m 191.36654,370.19744 a 18.897638,18.897638 0 0 0 -37.79527,0 18.897638,18.897638 0 0 0 37.79527,0 z"
       style="fill:none;stroke:#000000"
       id="path49" />
    <path
       d="m 285.85473,370.19744 a 18.897638,18.897638 0 0 0 -37.79527,0 18.897638,18.897638 0 0 0 37.79527,0 z"
       style="fill:none;stroke:#000000"
       id="path50" />
    <path
       d="m 380.34292,370.19744 a 18.89764,18.89764 0 0 0 -37.79528,0 18.89764,18.89764 0 0 0 37.79528,0 z"
       style="fill:none;stroke:#000000"
       id="path51" />
    <path
       d="m 391.6815,464.68563 a 30.23622,30.23622 0 0 0 -60.47244,0 30.23622,30.23622 0 0 0 60.47244,0 z"
       style="fill:none;stroke:#000000"
       id="path52" />
    <path
       d="m 297.19331,464.68563 a 30.236221,30.236221 0 0 0 -60.47244,0 30.236221,30.236221 0 0 0 60.47244,0 z"
       style="fill:none;stroke:#000000"
       id="path53" />
    <path
       d="m 191.36654,464.68563 a 18.897638,18.897638 0 0 0 -37.79527,0 18.897638,18.897638 0 0 0 37.79527,0 z"
       style="fill:none;stroke:#000000"
       id="path54" />
    <path
       d="m 96.87835,464.68563 a 18.897638,18.897638 0 0 0 -37.79527,0 18.897638,18.897638 0 0 0 37.79527,0 z"
       style="fill:none;stroke:#000000"
       id="path55" />
    <path
       d="m 96.87835,370.19744 a 18.897638,18.897638 0 0 0 -37.79527,0 18.897638,18.897638 0 0 0 37.79527,0 z"
       style="fill:none;stroke:#000000"
       id="path56" />
    <path
       style="fill:none;stroke:#000000"
       d="m 68.532,528.942 v 11.33"
       id="path57" />
    <path
       style="fill:none;stroke:#000000"
       d="m 68.532,528.942 h 37.795"
       id="path58" />
    <path
       style="fill:none;stroke:#000000"
       d="m 106.327,528.942 v 11.33"
       id="path59" />
    <path
       style="fill:none;stroke:#000000"
       d="M 106.327,540.272 H 333.099"
       id="path60" />
    <path
       style="fill:none;stroke:#000000"
       d="m 333.099,528.942 v 11.33"
       id="path61" />
    <path
       style="fill:none;stroke:#000000"
       d="m 333.099,528.942 h 37.795"
       id="path62" />
    <path
       style="fill:none;stroke:#000000"
       d="m 370.894,528.942 v 11.33"
       id="path63" />
    <path
       style="fill:none;stroke:#000000"
       d="m 370.894,540.272 h 68.032"
       id="path64" />
    <path
       style="fill:none;stroke:#000000"
       d="m 438.926,464.682 v 75.59"
       id="path65" />
    <path
       style="fill:none;stroke:#000000"
       d="m 427.587,464.682 h 11.339"
       id="path66" />
    <path
       style="fill:none;stroke:#000000"
       d="m 427.587,426.892 v 37.79"
       id="path67" />
    <path
       style="fill:none;stroke:#000000"
       d="m 427.587,426.892 h 11.339"
       id="path68" />
    <path
       style="fill:none;stroke:#000000"
       d="M 438.926,275.709 V 426.892"
       id="path69" />
    <path
       style="fill:none;stroke:#000000"
       d="m 427.587,275.709 h 11.339"
       id="path70" />
    <path
       style="fill:none;stroke:#000000"
       d="m 427.587,237.914 v 37.795"
       id="path71" />
    <path
       style="fill:none;stroke:#000000"
       d="m 427.587,237.914 h 11.339"
       id="path72" />
    <path
       style="fill:none;stroke:#000000"
       d="M 438.926,105.631 V 237.914"
       id="path73" />
    <path
       style="fill:none;stroke:#000000"
       d="m 427.587,105.631 h 11.339"
       id="path74" />
    <path
       style="fill:none;stroke:#000000"
       d="m 427.587,67.835 v 37.796"
       id="path75" />
    <path
       style="fill:none;stroke:#000000"
       d="m 427.587,67.835 h 11.339"
       id="path76" />
    <path
       style="fill:none;stroke:#000000"
       d="M 438.926,67.835 V 0.5"
       id="path77" />
    <path
       style="fill:none;stroke:#000000"
       d="M 438.926,0.5 H 0.5"
       id="path78" />
    <path
       style="fill:none;stroke:#000000"
       d="M 0.5,0.5 V 67.835"
       id="path79" />
    <path
       style="fill:none;stroke:#000000"
       d="M 11.839,67.835 H 0.5"
       id="path80" />
    <path
       style="fill:none;stroke:#000000"
       d="M 11.839,105.631 V 67.835"
       id="path81" />
    <path
       style="fill:none;stroke:#000000"
       d="M 0.5,105.631 H 11.839"
       id="path82" />
    <path
       style="fill:none;stroke:#000000"
       d="M 0.5,105.631 V 237.914"
       id="path83" />
    <path
       style="fill:none;stroke:#000000"
       d="M 11.839,237.914 H 0.5"
       id="path84" />
    <path
       style="fill:none;stroke:#000000"
       d="M 11.839,275.709 V 237.914"
       id="path85" />
    <path
       style="fill:none;stroke:#000000"
       d="M 0.5,275.709 H 11.839"
       id="path86" />
    <path
       style="fill:none;stroke:#000000"
       d="M 0.5,275.709 V 426.892"
       id="path87" />
    <path
       style="fill:none;stroke:#000000"
       d="M 11.839,426.892 H 0.5"
       id="path88" />
    <path
       style="fill:none;stroke:#000000"
       d="m 11.839,464.682 v -37.79"
       id="path89" />
    <path
       style="fill:none;stroke:#000000"
       d="M 0.5,464.682 H 11.839"
       id="path90" />
    <path
       style="fill:none;stroke:#000000"
       d="m 0.5,464.682 v 75.59"
       id="path91" />
    <path
       style="fill:none;stroke:#000000"
       d="M 0.5,540.272 H 68.532"
       id="path92" />
    <path
       style="fill:none;stroke:#000000"
       d="m 80.362,170.412 v 48.604"
       id="path93" />
    <path
       style="fill:none;stroke:#000000"
       d="m 80.362,170.412 h 89.7258"
       id="path94" />
    <path
       style="fill:none;stroke:#000000"
       d="m 170.0878,170.412 v 48.604"
       id="path95" />
    <path
       style="fill:none;stroke:#000000"
       d="m 80.362,219.016 h 89.7258"
       id="path96" />
    <text
       xml:space="preserve"
       id="text105"
       style="white-space:pre;shape-inside:url(#rect105);display:inline;fill:#000000;stroke:#ec0101;stroke-dasharray:8, 8" />
    <text
       xml:space="preserve"
       style="font-style:normal;font-variant:normal;font-weight:bold;font-stretch:normal;font-size:26.6667px;font-family:'Courier New';-inkscape-font-specification:'Courier New, Bold';font-variant-ligatures:normal;font-variant-caps:normal;font-variant-numeric:normal;font-variant-east-asian:normal;fill:#808080;fill-opacity:1;fill-rule:nonzero;stroke:none;stroke-width:1.60927;stroke-dasharray:12.8741, 12.8741"
       x="50.031582"
       y="68.56292"
       id="text106"
       transform="scale(0.94517709,1.0580028)"><tspan
         sodipodi:role="line"
         id="tspan106"
         x="50.031582"
         y="68.56292"
         style="font-style:normal;font-variant:normal;font-weight:bold;font-stretch:normal;font-size:26.6667px;font-family:'Courier New';-inkscape-font-specification:'Courier New, Bold';font-variant-ligatures:normal;font-variant-caps:normal;font-variant-numeric:normal;font-variant-east-asian:normal;stroke-width:1.60927;fill:#808080;fill-opacity:1">Variable Speed </tspan><tspan
         sodipodi:role="line"
         x="50.031582"
         y="101.89629"
         id="tspan107"
         style="font-style:normal;font-variant:normal;font-weight:bold;font-stretch:normal;font-size:26.6667px;font-family:'Courier New';-inkscape-font-specification:'Courier New, Bold';font-variant-ligatures:normal;font-variant-caps:normal;font-variant-numeric:normal;font-variant-east-asian:normal;stroke-width:1.60927;fill:#808080;fill-opacity:1">Tonewheel Oscillator </tspan><tspan
         sodipodi:role="line"
         x="50.031582"
         y="135.22968"
         id="tspan108"
         style="font-style:normal;font-variant:normal;font-weight:bold;font-stretch:normal;font-size:26.6667px;font-family:'Courier New';-inkscape-font-specification:'Courier New, Bold';font-variant-ligatures:normal;font-variant-caps:normal;font-variant-numeric:normal;font-variant-east-asian:normal;stroke-width:1.60927;fill:#808080;fill-opacity:1">Mk II</tspan></text>
    <text
       xml:space="preserve"
       style="font-style:normal;font-variant:normal;font-weight:bold;font-stretch:normal;font-size:18.6667px;font-family:'Courier New';-inkscape-font-specification:'Courier New, Bold';font-variant-ligatures:normal;font-variant-caps:normal;font-variant-numeric:normal;font-variant-east-asian:normal;fill:#808080;fill-opacity:1;fill-rule:nonzero;stroke:none;stroke-width:0.999997;stroke-dasharray:7.99998, 7.99998"
       x="39.420715"
       y="434.63663"
       id="text109"><tspan
         sodipodi:role="line"
         id="tspan109"
         x="39.420715"
         y="434.63663"
         style="stroke-width:0.999997;fill:#808080;fill-opacity:1">Raw Out</tspan></text>
    <text
       xml:space="preserve"
       style="font-style:normal;font-variant:normal;font-weight:bold;font-stretch:normal;font-size:18.6667px;font-family:'Courier New';-inkscape-font-specification:'Courier New, Bold';font-variant-ligatures:normal;font-variant-caps:normal;font-variant-numeric:normal;font-variant-east-asian:normal;fill:#808080;fill-opacity:1;fill-rule:nonzero;stroke:none;stroke-dasharray:8, 8"
       x="128.37926"
       y="435.12872"
       id="text110"><tspan
         sodipodi:role="line"
         id="tspan110"
         x="128.37926"
         y="435.12872">Line Out</tspan></text>
    <text
       xml:space="preserve"
       style="font-style:normal;font-variant:normal;font-weight:bold;font-stretch:normal;font-size:18.6667px;font-family:'Courier New';-inkscape-font-specification:'Courier New, Bold';font-variant-ligatures:normal;font-variant-caps:normal;font-variant-numeric:normal;font-variant-east-asian:normal;fill:#808080;fill-opacity:1;fill-rule:nonzero;stroke:none;stroke-dasharray:8, 8"
       x="228.14983"
       y="419.245"
       id="text111"><tspan
         sodipodi:role="line"
         id="tspan111"
         x="228.14983"
         y="419.245">MIDI In</tspan></text>
    <text
       xml:space="preserve"
       style="font-style:normal;font-variant:normal;font-weight:bold;font-stretch:normal;font-size:18.6665px;font-family:'Courier New';-inkscape-font-specification:'Courier New, Bold';font-variant-ligatures:normal;font-variant-caps:normal;font-variant-numeric:normal;font-variant-east-asian:normal;fill:#808080;fill-opacity:1;fill-rule:nonzero;stroke:none;stroke-width:0.999995;stroke-dasharray:7.99995, 7.99995"
       x="316.1221"
       y="419.51501"
       id="text112"><tspan
         sodipodi:role="line"
         id="tspan112"
         x="316.1221"
         y="419.51501"
         style="stroke-width:0.999995;fill:#808080;fill-opacity:1">MIDI Out</tspan></text>
    <text
       xml:space="preserve"
       style="font-style:normal;font-variant:normal;font-weight:bold;font-stretch:normal;font-size:13.3333px;font-family:'Courier New';-inkscape-font-specification:'Courier New, Bold';font-variant-ligatures:normal;font-variant-caps:normal;font-variant-numeric:normal;font-variant-east-asian:normal;fill:#808080;fill-opacity:1;fill-rule:nonzero;stroke:none;stroke-dasharray:8, 8"
       x="144.13376"
       y="537.77313"
       id="text113"><tspan
         sodipodi:role="line"
         id="tspan113"
         x="144.13376"
         y="537.77313">Dakota Winslow 2024</tspan></text>
  </g>
  <g
     inkscape:groupmode="layer"
     inkscape:label="MODELSKETCH_VISIBLE"
     id="g97" />
  <g
     inkscape:groupmode="layer"
     inkscape:label="MODELSKETCH_POINT"
     id="g98" />
  <g
     inkscape:groupmode="layer"
     inkscape:label="MODELSKETCH_CONSTRUCTION"
     id="g99" />
  <g
     inkscape:groupmode="layer"
     inkscape:label="HIDDEN_BASE_VIEW"
     id="g100" />
  <g
     inkscape:groupmode="layer"
     inkscape:label="TANGENT_LINES"
     id="g101" />
  <g
     inkscape:groupmode="layer"
     inkscape:label="TANGENT_HIDDEN"
     id="g102" />
  <g
     inkscape:groupmode="layer"
     inkscape:label="INVISIBLE_LINES"
     id="g103" />
  <g
     inkscape:groupmode="layer"
     inkscape:label="VIEW_HATCHES"
     id="g104" />
  <g
     inkscape:groupmode="layer"
     inkscape:label="SECTION_JOG_LINES"
     id="g105" />
</svg>
