999
"DXF R12 Output" (www.mydxf.blogspot.com)
 0 
SECTION
 2 
HEADER
 9 
$ACADVER
 1 
AC1009
 9 
$EXTMIN
 10 
 0 
 20 
 0 
 9 
$EXTMAX
 10 
 8.5 
 20 
 11 
 0 
ENDSEC
 0 
SECTION
 2 
ENTITIES
0
LINE
8
Layer 1
10
0.793749
20
297.793749
11
-0.793749
21
296.206251
0
LINE
8
Layer 1
10
0.000000
20
298.322915
11
0.000000
21
295.677085
0
LINE
8
Layer 1
10
2.116664
20
295.941668
11
1.058332
21
294.883336
0
LINE
8
Layer 1
10
1.587498
20
296.470834
11
0.529166
21
295.412502
0
LINE
8
Layer 1
10
1.058332
20
297.000000
11
0.000000
21
295.941668
0
LINE
8
0
10
155.021423
20
218.356820
11
154.733378
21
219.431819
0
LINE
8
0
10
154.733378
20
219.431819
11
153.946425
21
220.218773
0
LINE
8
0
10
153.946425
20
220.218773
11
152.871426
21
220.506818
0
LINE
8
0
10
152.871426
20
220.506818
11
151.796427
21
220.218773
0
LINE
8
0
10
151.796427
20
220.218773
11
151.009473
21
219.431819
0
LINE
8
0
10
151.009473
20
219.431819
11
150.721428
21
218.356820
0
LINE
8
0
10
150.721428
20
218.356820
11
151.009473
21
217.281821
0
LINE
8
0
10
151.009473
20
217.281821
11
151.796427
21
216.494868
0
LINE
8
0
10
151.796427
20
216.494868
11
152.871426
21
216.206823
0
LINE
8
0
10
152.871426
20
216.206823
11
153.946425
21
216.494868
0
LINE
8
0
10
153.946425
20
216.494868
11
154.733378
21
217.281821
0
LINE
8
0
10
154.733378
20
217.281821
11
155.021423
21
218.356820
0
LINE
8
0
10
155.021423
20
218.356820
11
155.021423
21
218.356820
0
LINE
8
0
10
29.645475
20
120.500837
11
29.476141
21
121.337294
0
LINE
8
0
10
29.476141
20
121.337294
11
29.015294
21
122.020270
0
LINE
8
0
10
29.015294
20
122.020270
11
28.332037
21
122.480703
0
LINE
8
0
10
28.332037
20
122.480703
11
27.495478
21
122.649528
0
LINE
8
0
10
27.495478
20
122.649528
11
26.658918
21
122.480703
0
LINE
8
0
10
26.658918
20
122.480703
11
25.975662
21
122.020270
0
LINE
8
0
10
25.975662
20
122.020270
11
25.514814
21
121.337294
0
LINE
8
0
10
25.514814
20
121.337294
11
25.345481
21
120.500837
0
LINE
8
0
10
25.345481
20
120.500837
11
25.514814
21
119.664381
0
LINE
8
0
10
25.514814
20
119.664381
11
25.975662
21
118.981404
0
LINE
8
0
10
25.975662
20
118.981404
11
26.658918
21
118.520971
0
LINE
8
0
10
26.658918
20
118.520971
11
27.495478
21
118.352146
0
LINE
8
0
10
27.495478
20
118.352146
11
28.332037
21
118.520971
0
LINE
8
0
10
28.332037
20
118.520971
11
29.015294
21
118.981404
0
LINE
8
0
10
29.015294
20
118.981404
11
29.476141
21
119.664381
0
LINE
8
0
10
29.476141
20
119.664381
11
29.645475
21
120.500837
0
LINE
8
0
10
29.645475
20
120.500837
11
29.645475
21
120.500837
0
LINE
8
0
10
29.645475
20
150.460801
11
29.476141
21
151.297257
0
LINE
8
0
10
29.476141
20
151.297257
11
29.015294
21
151.980234
0
LINE
8
0
10
29.015294
20
151.980234
11
28.332037
21
152.440667
0
LINE
8
0
10
28.332037
20
152.440667
11
27.495478
21
152.609492
0
LINE
8
0
10
27.495478
20
152.609492
11
26.658918
21
152.440667
0
LINE
8
0
10
26.658918
20
152.440667
11
25.975662
21
151.980234
0
LINE
8
0
10
25.975662
20
151.980234
11
25.514814
21
151.297257
0
LINE
8
0
10
25.514814
20
151.297257
11
25.345481
21
150.460801
0
LINE
8
0
10
25.345481
20
150.460801
11
25.514814
21
149.624344
0
LINE
8
0
10
25.514814
20
149.624344
11
25.975662
21
148.941368
0
LINE
8
0
10
25.975662
20
148.941368
11
26.658918
21
148.480935
0
LINE
8
0
10
26.658918
20
148.480935
11
27.495478
21
148.312110
0
LINE
8
0
10
27.495478
20
148.312110
11
28.332037
21
148.480935
0
LINE
8
0
10
28.332037
20
148.480935
11
29.015294
21
148.941368
0
LINE
8
0
10
29.015294
20
148.941368
11
29.476141
21
149.624344
0
LINE
8
0
10
29.476141
20
149.624344
11
29.645475
21
150.460801
0
LINE
8
0
10
29.645475
20
150.460801
11
29.645475
21
150.460801
0
LINE
8
0
10
155.021423
20
52.604813
11
154.733378
21
53.679811
0
LINE
8
0
10
154.733378
20
53.679811
11
153.946425
21
54.466765
0
LINE
8
0
10
153.946425
20
54.466765
11
152.871426
21
54.754810
0
LINE
8
0
10
152.871426
20
54.754810
11
151.796427
21
54.466765
0
LINE
8
0
10
151.796427
20
54.466765
11
151.009473
21
53.679811
0
LINE
8
0
10
151.009473
20
53.679811
11
150.721428
21
52.604813
0
LINE
8
0
10
150.721428
20
52.604813
11
151.009473
21
51.529814
0
LINE
8
0
10
151.009473
20
51.529814
11
151.796427
21
50.742860
0
LINE
8
0
10
151.796427
20
50.742860
11
152.871426
21
50.454815
0
LINE
8
0
10
152.871426
20
50.454815
11
153.946425
21
50.742860
0
LINE
8
0
10
153.946425
20
50.742860
11
154.733378
21
51.529814
0
LINE
8
0
10
154.733378
20
51.529814
11
155.021423
21
52.604813
0
LINE
8
0
10
155.021423
20
52.604813
11
155.021423
21
52.604813
0
LINE
8
SHEETMETAL_BEND_LINES_UP
10
86.871510
20
160.512007
11
170.371497
21
160.512007
0
LINE
8
SHEETMETAL_BEND_LINES_UP
10
170.371497
20
110.450250
11
86.871510
21
110.450250
0
LINE
8
SHEETMETAL_BEND_LINES_UP
10
85.339998
20
111.979548
11
85.339998
21
158.980072
0
LINE
8
SHEETMETAL_BEND_LINES_DOWN
10
170.371497
20
210.576403
11
135.371452
21
210.576403
0
LINE
8
SHEETMETAL_BEND_LINES_DOWN
10
135.371452
20
60.385855
11
170.371497
21
60.385855
0
LINE
8
SHEETMETAL_BEND_LINES_DOWN
10
35.277002
20
110.500521
11
35.277002
21
160.461736
0
LINE
8
VISIBLE
10
155.021423
20
218.356820
11
154.733378
21
219.431819
0
LINE
8
VISIBLE
10
154.733378
20
219.431819
11
153.946425
21
220.218773
0
LINE
8
VISIBLE
10
153.946425
20
220.218773
11
152.871426
21
220.506818
0
LINE
8
VISIBLE
10
152.871426
20
220.506818
11
151.796427
21
220.218773
0
LINE
8
VISIBLE
10
151.796427
20
220.218773
11
151.009473
21
219.431819
0
LINE
8
VISIBLE
10
151.009473
20
219.431819
11
150.721428
21
218.356820
0
LINE
8
VISIBLE
10
150.721428
20
218.356820
11
151.009473
21
217.281821
0
LINE
8
VISIBLE
10
151.009473
20
217.281821
11
151.796427
21
216.494868
0
LINE
8
VISIBLE
10
151.796427
20
216.494868
11
152.871426
21
216.206823
0
LINE
8
VISIBLE
10
152.871426
20
216.206823
11
153.946425
21
216.494868
0
LINE
8
VISIBLE
10
153.946425
20
216.494868
11
154.733378
21
217.281821
0
LINE
8
VISIBLE
10
154.733378
20
217.281821
11
155.021423
21
218.356820
0
LINE
8
VISIBLE
10
155.021423
20
218.356820
11
155.021423
21
218.356820
0
LINE
8
VISIBLE
10
29.645475
20
120.500837
11
29.476141
21
121.337294
0
LINE
8
VISIBLE
10
29.476141
20
121.337294
11
29.015294
21
122.020270
0
LINE
8
VISIBLE
10
29.015294
20
122.020270
11
28.332037
21
122.480703
0
LINE
8
VISIBLE
10
28.332037
20
122.480703
11
27.495478
21
122.649528
0
LINE
8
VISIBLE
10
27.495478
20
122.649528
11
26.658918
21
122.480703
0
LINE
8
VISIBLE
10
26.658918
20
122.480703
11
25.975662
21
122.020270
0
LINE
8
VISIBLE
10
25.975662
20
122.020270
11
25.514814
21
121.337294
0
LINE
8
VISIBLE
10
25.514814
20
121.337294
11
25.345481
21
120.500837
0
LINE
8
VISIBLE
10
25.345481
20
120.500837
11
25.514814
21
119.664381
0
LINE
8
VISIBLE
10
25.514814
20
119.664381
11
25.975662
21
118.981404
0
LINE
8
VISIBLE
10
25.975662
20
118.981404
11
26.658918
21
118.520971
0
LINE
8
VISIBLE
10
26.658918
20
118.520971
11
27.495478
21
118.352146
0
LINE
8
VISIBLE
10
27.495478
20
118.352146
11
28.332037
21
118.520971
0
LINE
8
VISIBLE
10
28.332037
20
118.520971
11
29.015294
21
118.981404
0
LINE
8
VISIBLE
10
29.015294
20
118.981404
11
29.476141
21
119.664381
0
LINE
8
VISIBLE
10
29.476141
20
119.664381
11
29.645475
21
120.500837
0
LINE
8
VISIBLE
10
29.645475
20
120.500837
11
29.645475
21
120.500837
0
LINE
8
VISIBLE
10
29.645475
20
150.460801
11
29.476141
21
151.297257
0
LINE
8
VISIBLE
10
29.476141
20
151.297257
11
29.015294
21
151.980234
0
LINE
8
VISIBLE
10
29.015294
20
151.980234
11
28.332037
21
152.440667
0
LINE
8
VISIBLE
10
28.332037
20
152.440667
11
27.495478
21
152.609492
0
LINE
8
VISIBLE
10
27.495478
20
152.609492
11
26.658918
21
152.440667
0
LINE
8
VISIBLE
10
26.658918
20
152.440667
11
25.975662
21
151.980234
0
LINE
8
VISIBLE
10
25.975662
20
151.980234
11
25.514814
21
151.297257
0
LINE
8
VISIBLE
10
25.514814
20
151.297257
11
25.345481
21
150.460801
0
LINE
8
VISIBLE
10
25.345481
20
150.460801
11
25.514814
21
149.624344
0
LINE
8
VISIBLE
10
25.514814
20
149.624344
11
25.975662
21
148.941368
0
LINE
8
VISIBLE
10
25.975662
20
148.941368
11
26.658918
21
148.480935
0
LINE
8
VISIBLE
10
26.658918
20
148.480935
11
27.495478
21
148.312110
0
LINE
8
VISIBLE
10
27.495478
20
148.312110
11
28.332037
21
148.480935
0
LINE
8
VISIBLE
10
28.332037
20
148.480935
11
29.015294
21
148.941368
0
LINE
8
VISIBLE
10
29.015294
20
148.941368
11
29.476141
21
149.624344
0
LINE
8
VISIBLE
10
29.476141
20
149.624344
11
29.645475
21
150.460801
0
LINE
8
VISIBLE
10
29.645475
20
150.460801
11
29.645475
21
150.460801
0
LINE
8
VISIBLE
10
155.021423
20
52.604813
11
154.733378
21
53.679811
0
LINE
8
VISIBLE
10
154.733378
20
53.679811
11
153.946425
21
54.466765
0
LINE
8
VISIBLE
10
153.946425
20
54.466765
11
152.871426
21
54.754810
0
LINE
8
VISIBLE
10
152.871426
20
54.754810
11
151.796427
21
54.466765
0
LINE
8
VISIBLE
10
151.796427
20
54.466765
11
151.009473
21
53.679811
0
LINE
8
VISIBLE
10
151.009473
20
53.679811
11
150.721428
21
52.604813
0
LINE
8
VISIBLE
10
150.721428
20
52.604813
11
151.009473
21
51.529814
0
LINE
8
VISIBLE
10
151.009473
20
51.529814
11
151.796427
21
50.742860
0
LINE
8
VISIBLE
10
151.796427
20
50.742860
11
152.871426
21
50.454815
0
LINE
8
VISIBLE
10
152.871426
20
50.454815
11
153.946425
21
50.742860
0
LINE
8
VISIBLE
10
153.946425
20
50.742860
11
154.733378
21
51.529814
0
LINE
8
VISIBLE
10
154.733378
20
51.529814
11
155.021423
21
52.604813
0
LINE
8
VISIBLE
10
155.021423
20
52.604813
11
155.021423
21
52.604813
0
LINE
8
VISIBLE
10
29.245568
20
110.500521
11
83.808406
21
110.500521
0
LINE
8
VISIBLE
10
83.808406
20
111.979548
11
83.808406
21
110.500521
0
LINE
8
VISIBLE
10
86.871510
20
111.979548
11
83.808406
21
111.979548
0
LINE
8
VISIBLE
10
86.871510
20
108.918314
11
86.871510
21
111.979548
0
LINE
8
VISIBLE
10
85.391512
20
108.918314
11
86.871510
21
108.918314
0
LINE
8
VISIBLE
10
85.391512
20
60.417605
11
85.391512
21
108.918314
0
LINE
8
VISIBLE
10
85.391512
20
60.417605
11
134.308940
21
60.417605
0
LINE
8
VISIBLE
10
134.308940
20
63.417976
11
134.308940
21
60.417605
0
LINE
8
VISIBLE
10
135.371450
20
63.417870
11
135.105825
21
63.877946
0
LINE
8
VISIBLE
10
135.105825
20
63.877946
11
134.574575
21
63.877946
0
LINE
8
VISIBLE
10
134.574575
20
63.877946
11
134.308951
21
63.417870
0
LINE
8
VISIBLE
10
135.371452
20
63.417976
11
135.371452
21
54.356008
0
LINE
8
VISIBLE
10
135.371450
20
54.354817
11
135.533982
21
52.742541
0
LINE
8
VISIBLE
10
135.533982
20
52.742541
11
136.000130
21
51.240862
0
LINE
8
VISIBLE
10
136.000130
20
51.240862
11
136.737724
21
49.881950
0
LINE
8
VISIBLE
10
136.737724
20
49.881950
11
137.714594
21
48.697974
0
LINE
8
VISIBLE
10
137.714594
20
48.697974
11
138.898571
21
47.721104
0
LINE
8
VISIBLE
10
138.898571
20
47.721104
11
140.257484
21
46.983511
0
LINE
8
VISIBLE
10
140.257484
20
46.983511
11
141.759163
21
46.517364
0
LINE
8
VISIBLE
10
141.759163
20
46.517364
11
143.371440
21
46.354833
0
LINE
8
VISIBLE
10
143.371331
20
46.355018
11
162.371301
21
46.355018
0
LINE
8
VISIBLE
10
162.371415
20
46.354833
11
163.983691
21
46.517364
0
LINE
8
VISIBLE
10
163.983691
20
46.517364
11
165.485371
21
46.983511
0
LINE
8
VISIBLE
10
165.485371
20
46.983511
11
166.844283
21
47.721104
0
LINE
8
VISIBLE
10
166.844283
20
47.721104
11
168.028260
21
48.697974
0
LINE
8
VISIBLE
10
168.028260
20
48.697974
11
169.005130
21
49.881950
0
LINE
8
VISIBLE
10
169.005130
20
49.881950
11
169.742724
21
51.240862
0
LINE
8
VISIBLE
10
169.742724
20
51.240862
11
170.208872
21
52.742541
0
LINE
8
VISIBLE
10
170.208872
20
52.742541
11
170.371405
21
54.354817
0
LINE
8
VISIBLE
10
170.371497
20
54.356008
11
170.371497
21
66.918409
0
LINE
8
VISIBLE
10
170.371497
20
66.918409
11
166.371531
21
66.918409
0
LINE
8
VISIBLE
10
166.371531
20
66.918409
11
166.371531
21
81.917619
0
LINE
8
VISIBLE
10
170.371497
20
81.917619
11
166.371531
21
81.917619
0
LINE
8
VISIBLE
10
170.371497
20
81.917619
11
170.371497
21
189.044638
0
LINE
8
VISIBLE
10
170.371497
20
189.044638
11
166.371531
21
189.044638
0
LINE
8
VISIBLE
10
166.371531
20
204.043848
11
166.371531
21
189.044638
0
LINE
8
VISIBLE
10
170.371497
20
204.043848
11
166.371531
21
204.043848
0
LINE
8
VISIBLE
10
170.371497
20
216.606249
11
170.371497
21
204.043848
0
LINE
8
VISIBLE
10
170.371405
20
216.606823
11
170.208873
21
218.219100
0
LINE
8
VISIBLE
10
170.208873
20
218.219100
11
169.742726
21
219.720780
0
LINE
8
VISIBLE
10
169.742726
20
219.720780
11
169.005132
21
221.079694
0
LINE
8
VISIBLE
10
169.005132
20
221.079694
11
168.028262
21
222.263670
0
LINE
8
VISIBLE
10
168.028262
20
222.263670
11
166.844285
21
223.240540
0
LINE
8
VISIBLE
10
166.844285
20
223.240540
11
165.485372
21
223.978134
0
LINE
8
VISIBLE
10
165.485372
20
223.978134
11
163.983692
21
224.444282
0
LINE
8
VISIBLE
10
163.983692
20
224.444282
11
162.371415
21
224.606813
0
LINE
8
VISIBLE
10
162.371301
20
224.607239
11
143.371331
21
224.607239
0
LINE
8
VISIBLE
10
143.371440
20
224.606813
11
141.803431
21
224.451675
0
LINE
8
VISIBLE
10
141.803431
20
224.451675
11
140.309976
21
223.997850
0
LINE
8
VISIBLE
10
140.309976
20
223.997850
11
138.933041
21
223.262721
0
LINE
8
VISIBLE
10
138.933041
20
223.262721
11
137.714593
21
222.263670
0
LINE
8
VISIBLE
10
137.714593
20
222.263670
11
136.715542
21
221.045222
0
LINE
8
VISIBLE
10
136.715542
20
221.045222
11
135.980413
21
219.668287
0
LINE
8
VISIBLE
10
135.980413
20
219.668287
11
135.526588
21
218.174832
0
LINE
8
VISIBLE
10
135.526588
20
218.174832
11
135.371450
21
216.606823
0
LINE
8
VISIBLE
10
135.371452
20
207.544281
11
135.371452
21
216.606249
0
LINE
8
VISIBLE
10
134.308951
20
207.543781
11
134.574575
21
207.083706
0
LINE
8
VISIBLE
10
134.574575
20
207.083706
11
135.105825
21
207.083706
0
LINE
8
VISIBLE
10
135.105825
20
207.083706
11
135.371450
21
207.543781
0
LINE
8
VISIBLE
10
134.308940
20
210.544653
11
134.308940
21
207.544281
0
LINE
8
VISIBLE
10
85.391512
20
210.544653
11
134.308940
21
210.544653
0
LINE
8
VISIBLE
10
85.391512
20
210.544653
11
85.391512
21
162.043943
0
LINE
8
VISIBLE
10
85.391512
20
162.043943
11
86.871510
21
162.043943
0
LINE
8
VISIBLE
10
86.871510
20
158.980072
11
86.871510
21
162.043943
0
LINE
8
VISIBLE
10
83.808406
20
158.980072
11
86.871510
21
158.980072
0
LINE
8
VISIBLE
10
83.808406
20
160.461736
11
83.808406
21
158.980072
0
LINE
8
VISIBLE
10
83.808406
20
160.461736
11
29.245568
21
160.461736
0
LINE
8
VISIBLE
10
29.245476
20
160.460789
11
27.633199
21
160.298258
0
LINE
8
VISIBLE
10
27.633199
20
160.298258
11
26.131519
21
159.832110
0
LINE
8
VISIBLE
10
26.131519
20
159.832110
11
24.772605
21
159.094517
0
LINE
8
VISIBLE
10
24.772605
20
159.094517
11
23.588629
21
158.117646
0
LINE
8
VISIBLE
10
23.588629
20
158.117646
11
22.611759
21
156.933670
0
LINE
8
VISIBLE
10
22.611759
20
156.933670
11
21.874165
21
155.574756
0
LINE
8
VISIBLE
10
21.874165
20
155.574756
11
21.408017
21
154.073076
0
LINE
8
VISIBLE
10
21.408017
20
154.073076
11
21.245486
21
152.460799
0
LINE
8
VISIBLE
10
21.245373
20
152.460747
11
21.245373
21
118.501519
0
LINE
8
VISIBLE
10
21.245486
20
118.500841
11
21.400622
21
116.932831
0
LINE
8
VISIBLE
10
21.400622
20
116.932831
11
21.854445
21
115.439374
0
LINE
8
VISIBLE
10
21.854445
20
115.439374
11
22.589574
21
114.062437
0
LINE
8
VISIBLE
10
22.589574
20
114.062437
11
23.588624
21
112.843986
0
LINE
8
VISIBLE
10
23.588624
20
112.843986
11
24.807073
21
111.844933
0
LINE
8
VISIBLE
10
24.807073
20
111.844933
11
26.184009
21
111.109802
0
LINE
8
VISIBLE
10
26.184009
20
111.109802
11
27.677465
21
110.655976
0
LINE
8
VISIBLE
10
27.677465
20
110.655976
11
29.245476
21
110.500838
0
LINE
8
VISIBLE
10
127.419585
20
150.974801
11
127.211372
21
151.751863
0
LINE
8
VISIBLE
10
127.211372
20
151.751863
11
126.642523
21
152.320712
0
LINE
8
VISIBLE
10
126.642523
20
152.320712
11
125.865460
21
152.528926
0
LINE
8
VISIBLE
10
125.865460
20
152.528926
11
125.088398
21
152.320712
0
LINE
8
VISIBLE
10
125.088398
20
152.320712
11
124.519549
21
151.751863
0
LINE
8
VISIBLE
10
124.519549
20
151.751863
11
124.311335
21
150.974801
0
LINE
8
VISIBLE
10
124.311335
20
150.974801
11
124.519549
21
150.197738
0
LINE
8
VISIBLE
10
124.519549
20
150.197738
11
125.088398
21
149.628889
0
LINE
8
VISIBLE
10
125.088398
20
149.628889
11
125.865460
21
149.420676
0
LINE
8
VISIBLE
10
125.865460
20
149.420676
11
126.642523
21
149.628889
0
LINE
8
VISIBLE
10
126.642523
20
149.628889
11
127.211372
21
150.197738
0
LINE
8
VISIBLE
10
127.211372
20
150.197738
11
127.419585
21
150.974801
0
LINE
8
VISIBLE
10
127.419585
20
150.974801
11
127.419585
21
150.974801
0
LINE
8
VISIBLE
10
96.431624
20
150.974801
11
96.309493
21
151.579736
0
LINE
8
VISIBLE
10
96.309493
20
151.579736
11
95.976431
21
152.073733
0
LINE
8
VISIBLE
10
95.976431
20
152.073733
11
95.482435
21
152.406795
0
LINE
8
VISIBLE
10
95.482435
20
152.406795
11
94.877499
21
152.528925
0
LINE
8
VISIBLE
10
94.877499
20
152.528925
11
94.272564
21
152.406795
0
LINE
8
VISIBLE
10
94.272564
20
152.406795
11
93.778567
21
152.073733
0
LINE
8
VISIBLE
10
93.778567
20
152.073733
11
93.445505
21
151.579736
0
LINE
8
VISIBLE
10
93.445505
20
151.579736
11
93.323374
21
150.974801
0
LINE
8
VISIBLE
10
93.323374
20
150.974801
11
93.445505
21
150.369865
0
LINE
8
VISIBLE
10
93.445505
20
150.369865
11
93.778567
21
149.875869
0
LINE
8
VISIBLE
10
93.778567
20
149.875869
11
94.272564
21
149.542807
0
LINE
8
VISIBLE
10
94.272564
20
149.542807
11
94.877499
21
149.420676
0
LINE
8
VISIBLE
10
94.877499
20
149.420676
11
95.482435
21
149.542807
0
LINE
8
VISIBLE
10
95.482435
20
149.542807
11
95.976431
21
149.875869
0
LINE
8
VISIBLE
10
95.976431
20
149.875869
11
96.309493
21
150.369865
0
LINE
8
VISIBLE
10
96.309493
20
150.369865
11
96.431624
21
150.974801
0
LINE
8
VISIBLE
10
96.431624
20
150.974801
11
96.431624
21
150.974801
0
LINE
8
VISIBLE
10
123.833464
20
135.480820
11
123.715078
21
137.263989
0
LINE
8
VISIBLE
10
123.715078
20
137.263989
11
123.367471
21
138.993289
0
LINE
8
VISIBLE
10
123.367471
20
138.993289
11
122.801970
21
140.649103
0
LINE
8
VISIBLE
10
122.801970
20
140.649103
11
122.029900
21
142.211812
0
LINE
8
VISIBLE
10
122.029900
20
142.211812
11
121.062589
21
143.661798
0
LINE
8
VISIBLE
10
121.062589
20
143.661798
11
119.911364
21
144.979443
0
LINE
8
VISIBLE
10
119.911364
20
144.979443
11
118.587549
21
146.145130
0
LINE
8
VISIBLE
10
118.587549
20
146.145130
11
117.102473
21
147.139240
0
LINE
8
VISIBLE
10
117.102473
20
147.139240
11
115.499010
21
147.928299
0
LINE
8
VISIBLE
10
115.499010
20
147.928299
11
113.827589
21
148.491912
0
LINE
8
VISIBLE
10
113.827589
20
148.491912
11
112.110861
21
148.830081
0
LINE
8
VISIBLE
10
112.110861
20
148.830081
11
110.371481
21
148.942803
0
LINE
8
VISIBLE
10
110.371481
20
148.942803
11
108.632101
21
148.830081
0
LINE
8
VISIBLE
10
108.632101
20
148.830081
11
106.915373
21
148.491912
0
LINE
8
VISIBLE
10
106.915373
20
148.491912
11
105.243952
21
147.928299
0
LINE
8
VISIBLE
10
105.243952
20
147.928299
11
103.640490
21
147.139240
0
LINE
8
VISIBLE
10
103.640490
20
147.139240
11
102.155413
21
146.145130
0
LINE
8
VISIBLE
10
102.155413
20
146.145130
11
100.831599
21
144.979443
0
LINE
8
VISIBLE
10
100.831599
20
144.979443
11
99.680373
21
143.661798
0
LINE
8
VISIBLE
10
99.680373
20
143.661798
11
98.713062
21
142.211812
0
LINE
8
VISIBLE
10
98.713062
20
142.211812
11
97.940992
21
140.649103
0
LINE
8
VISIBLE
10
97.940992
20
140.649103
11
97.375491
21
138.993289
0
LINE
8
VISIBLE
10
97.375491
20
138.993289
11
97.027884
21
137.263989
0
LINE
8
VISIBLE
10
97.027884
20
137.263989
11
96.909498
21
135.480820
0
LINE
8
VISIBLE
10
96.909498
20
135.480820
11
97.027884
21
133.697652
0
LINE
8
VISIBLE
10
97.027884
20
133.697652
11
97.375491
21
131.968351
0
LINE
8
VISIBLE
10
97.375491
20
131.968351
11
97.940992
21
130.312538
0
LINE
8
VISIBLE
10
97.940992
20
130.312538
11
98.713062
21
128.749829
0
LINE
8
VISIBLE
10
98.713062
20
128.749829
11
99.680373
21
127.299843
0
LINE
8
VISIBLE
10
99.680373
20
127.299843
11
100.831599
21
125.982197
0
LINE
8
VISIBLE
10
100.831599
20
125.982197
11
102.155413
21
124.816511
0
LINE
8
VISIBLE
10
102.155413
20
124.816511
11
103.640490
21
123.822401
0
LINE
8
VISIBLE
10
103.640490
20
123.822401
11
105.243952
21
123.033342
0
LINE
8
VISIBLE
10
105.243952
20
123.033342
11
106.915373
21
122.469728
0
LINE
8
VISIBLE
10
106.915373
20
122.469728
11
108.632101
21
122.131560
0
LINE
8
VISIBLE
10
108.632101
20
122.131560
11
110.371481
21
122.018837
0
LINE
8
VISIBLE
10
110.371481
20
122.018837
11
112.110861
21
122.131560
0
LINE
8
VISIBLE
10
112.110861
20
122.131560
11
113.827589
21
122.469728
0
LINE
8
VISIBLE
10
113.827589
20
122.469728
11
115.499010
21
123.033342
0
LINE
8
VISIBLE
10
115.499010
20
123.033342
11
117.102473
21
123.822401
0
LINE
8
VISIBLE
10
117.102473
20
123.822401
11
118.587549
21
124.816511
0
LINE
8
VISIBLE
10
118.587549
20
124.816511
11
119.911364
21
125.982197
0
LINE
8
VISIBLE
10
119.911364
20
125.982197
11
121.062589
21
127.299843
0
LINE
8
VISIBLE
10
121.062589
20
127.299843
11
122.029900
21
128.749829
0
LINE
8
VISIBLE
10
122.029900
20
128.749829
11
122.801970
21
130.312538
0
LINE
8
VISIBLE
10
122.801970
20
130.312538
11
123.367471
21
131.968351
0
LINE
8
VISIBLE
10
123.367471
20
131.968351
11
123.715078
21
133.697652
0
LINE
8
VISIBLE
10
123.715078
20
133.697652
11
123.833464
21
135.480820
0
LINE
8
VISIBLE
10
123.833464
20
135.480820
11
123.833464
21
135.480820
0
LINE
8
VISIBLE
10
127.419585
20
119.986840
11
127.211372
21
120.763902
0
LINE
8
VISIBLE
10
127.211372
20
120.763902
11
126.642523
21
121.332751
0
LINE
8
VISIBLE
10
126.642523
20
121.332751
11
125.865460
21
121.540965
0
LINE
8
VISIBLE
10
125.865460
20
121.540965
11
125.088398
21
121.332751
0
LINE
8
VISIBLE
10
125.088398
20
121.332751
11
124.519549
21
120.763902
0
LINE
8
VISIBLE
10
124.519549
20
120.763902
11
124.311335
21
119.986840
0
LINE
8
VISIBLE
10
124.311335
20
119.986840
11
124.519549
21
119.209777
0
LINE
8
VISIBLE
10
124.519549
20
119.209777
11
125.088398
21
118.640928
0
LINE
8
VISIBLE
10
125.088398
20
118.640928
11
125.865460
21
118.432715
0
LINE
8
VISIBLE
10
125.865460
20
118.432715
11
126.642523
21
118.640928
0
LINE
8
VISIBLE
10
126.642523
20
118.640928
11
127.211372
21
119.209777
0
LINE
8
VISIBLE
10
127.211372
20
119.209777
11
127.419585
21
119.986840
0
LINE
8
VISIBLE
10
127.419585
20
119.986840
11
127.419585
21
119.986840
0
LINE
8
VISIBLE
10
96.431624
20
119.986840
11
96.309493
21
120.591775
0
LINE
8
VISIBLE
10
96.309493
20
120.591775
11
95.976431
21
121.085772
0
LINE
8
VISIBLE
10
95.976431
20
121.085772
11
95.482435
21
121.418834
0
LINE
8
VISIBLE
10
95.482435
20
121.418834
11
94.877499
21
121.540965
0
LINE
8
VISIBLE
10
94.877499
20
121.540965
11
94.272564
21
121.418834
0
LINE
8
VISIBLE
10
94.272564
20
121.418834
11
93.778567
21
121.085772
0
LINE
8
VISIBLE
10
93.778567
20
121.085772
11
93.445505
21
120.591775
0
LINE
8
VISIBLE
10
93.445505
20
120.591775
11
93.323374
21
119.986840
0
LINE
8
VISIBLE
10
93.323374
20
119.986840
11
93.445505
21
119.381904
0
LINE
8
VISIBLE
10
93.445505
20
119.381904
11
93.778567
21
118.887908
0
LINE
8
VISIBLE
10
93.778567
20
118.887908
11
94.272564
21
118.554846
0
LINE
8
VISIBLE
10
94.272564
20
118.554846
11
94.877499
21
118.432715
0
LINE
8
VISIBLE
10
94.877499
20
118.432715
11
95.482435
21
118.554846
0
LINE
8
VISIBLE
10
95.482435
20
118.554846
11
95.976431
21
118.887908
0
LINE
8
VISIBLE
10
95.976431
20
118.887908
11
96.309493
21
119.381904
0
LINE
8
VISIBLE
10
96.309493
20
119.381904
11
96.431624
21
119.986840
0
LINE
8
VISIBLE
10
96.431624
20
119.986840
11
96.431624
21
119.986840
 0 
ENDSEC
 0 
EOF