999
"DXF R12 Output" (www.mydxf.blogspot.com)
 0 
SECTION
 2 
HEADER
 9 
$ACADVER
 1 
AC1009
 9 
$EXTMIN
 10 
 0 
 20 
 0 
 9 
$EXTMAX
 10 
 8.5 
 20 
 11 
 0 
ENDSEC
 0 
SECTION
 2 
ENTITIES
0
LINE
8
Layer 1
10
0.793749
20
297.793749
11
-0.793749
21
296.206251
0
LINE
8
Layer 1
10
0.000000
20
298.322915
11
0.000000
21
295.677085
0
LINE
8
Layer 1
10
2.116664
20
295.941668
11
1.058332
21
294.883336
0
LINE
8
Layer 1
10
1.587498
20
296.470834
11
0.529166
21
295.412502
0
LINE
8
Layer 1
10
1.058332
20
297.000000
11
0.000000
21
295.941668
0
LINE
8
0
10
44.649944
20
16.181407
11
44.361899
21
17.256405
0
LINE
8
0
10
44.361899
20
17.256405
11
43.574945
21
18.043359
0
LINE
8
0
10
43.574945
20
18.043359
11
42.499947
21
18.331404
0
LINE
8
0
10
42.499947
20
18.331404
11
41.424948
21
18.043359
0
LINE
8
0
10
41.424948
20
18.043359
11
40.637994
21
17.256405
0
LINE
8
0
10
40.637994
20
17.256405
11
40.349949
21
16.181407
0
LINE
8
0
10
40.349949
20
16.181407
11
40.637994
21
15.106408
0
LINE
8
0
10
40.637994
20
15.106408
11
41.424948
21
14.319454
0
LINE
8
0
10
41.424948
20
14.319454
11
42.499947
21
14.031409
0
LINE
8
0
10
42.499947
20
14.031409
11
43.574945
21
14.319454
0
LINE
8
0
10
43.574945
20
14.319454
11
44.361899
21
15.106408
0
LINE
8
0
10
44.361899
20
15.106408
11
44.649944
21
16.181407
0
LINE
8
0
10
44.649944
20
16.181407
11
44.649944
21
16.181407
0
LINE
8
0
10
-80.726004
20
-80.174578
11
-81.014049
21
-79.099579
0
LINE
8
0
10
-81.014049
20
-79.099579
11
-81.801003
21
-78.312625
0
LINE
8
0
10
-81.801003
20
-78.312625
11
-82.876001
21
-78.024580
0
LINE
8
0
10
-82.876001
20
-78.024580
11
-83.951000
21
-78.312625
0
LINE
8
0
10
-83.951000
20
-78.312625
11
-84.737954
21
-79.099579
0
LINE
8
0
10
-84.737954
20
-79.099579
11
-85.025999
21
-80.174578
0
LINE
8
0
10
-85.025999
20
-80.174578
11
-84.737953
21
-81.249576
0
LINE
8
0
10
-84.737953
20
-81.249576
11
-83.951000
21
-82.036530
0
LINE
8
0
10
-83.951000
20
-82.036530
11
-82.876001
21
-82.324575
0
LINE
8
0
10
-82.876001
20
-82.324575
11
-81.801003
21
-82.036530
0
LINE
8
0
10
-81.801003
20
-82.036530
11
-81.014049
21
-81.249576
0
LINE
8
0
10
-81.014049
20
-81.249576
11
-80.726004
21
-80.174578
0
LINE
8
0
10
-80.726004
20
-80.174578
11
-80.726004
21
-80.174578
0
LINE
8
0
10
-80.726004
20
-50.214615
11
-81.014049
21
-49.139617
0
LINE
8
0
10
-81.014049
20
-49.139617
11
-81.801003
21
-48.352663
0
LINE
8
0
10
-81.801003
20
-48.352663
11
-82.876001
21
-48.064618
0
LINE
8
0
10
-82.876001
20
-48.064618
11
-83.951000
21
-48.352663
0
LINE
8
0
10
-83.951000
20
-48.352663
11
-84.737954
21
-49.139617
0
LINE
8
0
10
-84.737954
20
-49.139617
11
-85.025999
21
-50.214615
0
LINE
8
0
10
-85.025999
20
-50.214615
11
-84.737953
21
-51.289614
0
LINE
8
0
10
-84.737953
20
-51.289614
11
-83.951000
21
-52.076568
0
LINE
8
0
10
-83.951000
20
-52.076568
11
-82.876001
21
-52.364613
0
LINE
8
0
10
-82.876001
20
-52.364613
11
-81.801003
21
-52.076568
0
LINE
8
0
10
-81.801003
20
-52.076568
11
-81.014049
21
-51.289614
0
LINE
8
0
10
-81.014049
20
-51.289614
11
-80.726004
21
-50.214615
0
LINE
8
0
10
-80.726004
20
-50.214615
11
-80.726004
21
-50.214615
0
LINE
8
0
10
44.649944
20
-146.570600
11
44.361899
21
-145.495601
0
LINE
8
0
10
44.361899
20
-145.495601
11
43.574945
21
-144.708647
0
LINE
8
0
10
43.574945
20
-144.708647
11
42.499947
21
-144.420602
0
LINE
8
0
10
42.499947
20
-144.420602
11
41.424948
21
-144.708647
0
LINE
8
0
10
41.424948
20
-144.708647
11
40.637994
21
-145.495601
0
LINE
8
0
10
40.637994
20
-145.495601
11
40.349949
21
-146.570600
0
LINE
8
0
10
40.349949
20
-146.570600
11
40.637994
21
-147.645598
0
LINE
8
0
10
40.637994
20
-147.645598
11
41.424948
21
-148.432552
0
LINE
8
0
10
41.424948
20
-148.432552
11
42.499947
21
-148.720597
0
LINE
8
0
10
42.499947
20
-148.720597
11
43.574945
21
-148.432552
0
LINE
8
0
10
43.574945
20
-148.432552
11
44.361899
21
-147.645598
0
LINE
8
0
10
44.361899
20
-147.645598
11
44.649944
21
-146.570600
0
LINE
8
0
10
44.649944
20
-146.570600
11
44.649944
21
-146.570600
0
LINE
8
SHEETMETAL_BEND_LINES_UP
10
-23.499971
20
-40.163409
11
60.000016
21
-40.163409
0
LINE
8
SHEETMETAL_BEND_LINES_UP
10
60.000016
20
-90.225158
11
-23.499971
21
-90.225158
0
LINE
8
SHEETMETAL_BEND_LINES_UP
10
-25.031483
20
-88.695868
11
-25.031483
21
-41.695344
0
LINE
8
SHEETMETAL_BEND_LINES_DOWN
10
60.000016
20
9.900987
11
24.999971
21
9.900987
0
LINE
8
SHEETMETAL_BEND_LINES_DOWN
10
24.999971
20
-140.289553
11
60.000016
21
-140.289553
0
LINE
8
SHEETMETAL_BEND_LINES_DOWN
10
-75.094476
20
-90.174887
11
-75.094476
21
-40.213679
0
LINE
8
VISIBLE
10
44.649944
20
16.181407
11
44.361899
21
17.256405
0
LINE
8
VISIBLE
10
44.361899
20
17.256405
11
43.574945
21
18.043359
0
LINE
8
VISIBLE
10
43.574945
20
18.043359
11
42.499947
21
18.331404
0
LINE
8
VISIBLE
10
42.499947
20
18.331404
11
41.424948
21
18.043359
0
LINE
8
VISIBLE
10
41.424948
20
18.043359
11
40.637994
21
17.256405
0
LINE
8
VISIBLE
10
40.637994
20
17.256405
11
40.349949
21
16.181407
0
LINE
8
VISIBLE
10
40.349949
20
16.181407
11
40.637994
21
15.106408
0
LINE
8
VISIBLE
10
40.637994
20
15.106408
11
41.424948
21
14.319454
0
LINE
8
VISIBLE
10
41.424948
20
14.319454
11
42.499947
21
14.031409
0
LINE
8
VISIBLE
10
42.499947
20
14.031409
11
43.574945
21
14.319454
0
LINE
8
VISIBLE
10
43.574945
20
14.319454
11
44.361899
21
15.106408
0
LINE
8
VISIBLE
10
44.361899
20
15.106408
11
44.649944
21
16.181407
0
LINE
8
VISIBLE
10
44.649944
20
16.181407
11
44.649944
21
16.181407
0
LINE
8
VISIBLE
10
-80.726004
20
-80.174578
11
-81.014049
21
-79.099579
0
LINE
8
VISIBLE
10
-81.014049
20
-79.099579
11
-81.801003
21
-78.312625
0
LINE
8
VISIBLE
10
-81.801003
20
-78.312625
11
-82.876001
21
-78.024580
0
LINE
8
VISIBLE
10
-82.876001
20
-78.024580
11
-83.951000
21
-78.312625
0
LINE
8
VISIBLE
10
-83.951000
20
-78.312625
11
-84.737954
21
-79.099579
0
LINE
8
VISIBLE
10
-84.737954
20
-79.099579
11
-85.025999
21
-80.174578
0
LINE
8
VISIBLE
10
-85.025999
20
-80.174578
11
-84.737953
21
-81.249576
0
LINE
8
VISIBLE
10
-84.737953
20
-81.249576
11
-83.951000
21
-82.036530
0
LINE
8
VISIBLE
10
-83.951000
20
-82.036530
11
-82.876001
21
-82.324575
0
LINE
8
VISIBLE
10
-82.876001
20
-82.324575
11
-81.801003
21
-82.036530
0
LINE
8
VISIBLE
10
-81.801003
20
-82.036530
11
-81.014049
21
-81.249576
0
LINE
8
VISIBLE
10
-81.014049
20
-81.249576
11
-80.726004
21
-80.174578
0
LINE
8
VISIBLE
10
-80.726004
20
-80.174578
11
-80.726004
21
-80.174578
0
LINE
8
VISIBLE
10
-80.726004
20
-50.214615
11
-81.014049
21
-49.139617
0
LINE
8
VISIBLE
10
-81.014049
20
-49.139617
11
-81.801003
21
-48.352663
0
LINE
8
VISIBLE
10
-81.801003
20
-48.352663
11
-82.876001
21
-48.064618
0
LINE
8
VISIBLE
10
-82.876001
20
-48.064618
11
-83.951000
21
-48.352663
0
LINE
8
VISIBLE
10
-83.951000
20
-48.352663
11
-84.737954
21
-49.139617
0
LINE
8
VISIBLE
10
-84.737954
20
-49.139617
11
-85.025999
21
-50.214615
0
LINE
8
VISIBLE
10
-85.025999
20
-50.214615
11
-84.737953
21
-51.289614
0
LINE
8
VISIBLE
10
-84.737953
20
-51.289614
11
-83.951000
21
-52.076568
0
LINE
8
VISIBLE
10
-83.951000
20
-52.076568
11
-82.876001
21
-52.364613
0
LINE
8
VISIBLE
10
-82.876001
20
-52.364613
11
-81.801003
21
-52.076568
0
LINE
8
VISIBLE
10
-81.801003
20
-52.076568
11
-81.014049
21
-51.289614
0
LINE
8
VISIBLE
10
-81.014049
20
-51.289614
11
-80.726004
21
-50.214615
0
LINE
8
VISIBLE
10
-80.726004
20
-50.214615
11
-80.726004
21
-50.214615
0
LINE
8
VISIBLE
10
44.649944
20
-146.570600
11
44.361899
21
-145.495601
0
LINE
8
VISIBLE
10
44.361899
20
-145.495601
11
43.574945
21
-144.708647
0
LINE
8
VISIBLE
10
43.574945
20
-144.708647
11
42.499947
21
-144.420602
0
LINE
8
VISIBLE
10
42.499947
20
-144.420602
11
41.424948
21
-144.708647
0
LINE
8
VISIBLE
10
41.424948
20
-144.708647
11
40.637994
21
-145.495601
0
LINE
8
VISIBLE
10
40.637994
20
-145.495601
11
40.349949
21
-146.570600
0
LINE
8
VISIBLE
10
40.349949
20
-146.570600
11
40.637994
21
-147.645598
0
LINE
8
VISIBLE
10
40.637994
20
-147.645598
11
41.424948
21
-148.432552
0
LINE
8
VISIBLE
10
41.424948
20
-148.432552
11
42.499947
21
-148.720597
0
LINE
8
VISIBLE
10
42.499947
20
-148.720597
11
43.574945
21
-148.432552
0
LINE
8
VISIBLE
10
43.574945
20
-148.432552
11
44.361899
21
-147.645598
0
LINE
8
VISIBLE
10
44.361899
20
-147.645598
11
44.649944
21
-146.570600
0
LINE
8
VISIBLE
10
44.649944
20
-146.570600
11
44.649944
21
-146.570600
0
LINE
8
VISIBLE
10
-81.125910
20
-90.174887
11
-26.563075
21
-90.174887
0
LINE
8
VISIBLE
10
-26.563075
20
-88.695868
11
-26.563075
21
-90.174887
0
LINE
8
VISIBLE
10
-23.499971
20
-88.695868
11
-26.563075
21
-88.695868
0
LINE
8
VISIBLE
10
-23.499971
20
-91.757094
11
-23.499971
21
-88.695868
0
LINE
8
VISIBLE
10
-24.979969
20
-91.757094
11
-23.499971
21
-91.757094
0
LINE
8
VISIBLE
10
-24.979969
20
-140.257803
11
-24.979969
21
-91.757094
0
LINE
8
VISIBLE
10
-24.979969
20
-140.257803
11
23.937459
21
-140.257803
0
LINE
8
VISIBLE
10
23.937459
20
-137.257432
11
23.937459
21
-140.257803
0
LINE
8
VISIBLE
10
24.999969
20
-137.257559
11
24.734344
21
-136.797483
0
LINE
8
VISIBLE
10
24.734344
20
-136.797483
11
24.203095
21
-136.797483
0
LINE
8
VISIBLE
10
24.203095
20
-136.797483
11
23.937470
21
-137.257559
0
LINE
8
VISIBLE
10
24.999971
20
-137.257432
11
24.999971
21
-143.321674
0
LINE
8
VISIBLE
10
24.999969
20
-143.320604
11
25.155106
21
-144.888612
0
LINE
8
VISIBLE
10
25.155106
20
-144.888612
11
25.608931
21
-146.382067
0
LINE
8
VISIBLE
10
25.608931
20
-146.382067
11
26.344061
21
-147.759002
0
LINE
8
VISIBLE
10
26.344061
20
-147.759002
11
27.343111
21
-148.977451
0
LINE
8
VISIBLE
10
27.343111
20
-148.977451
11
28.561560
21
-149.976501
0
LINE
8
VISIBLE
10
28.561560
20
-149.976501
11
29.938495
21
-150.711631
0
LINE
8
VISIBLE
10
29.938495
20
-150.711631
11
31.431950
21
-151.165456
0
LINE
8
VISIBLE
10
31.431950
20
-151.165456
11
32.999958
21
-151.320594
0
LINE
8
VISIBLE
10
32.999850
20
-151.320019
11
51.999820
21
-151.320019
0
LINE
8
VISIBLE
10
51.999934
20
-151.320594
11
53.567943
21
-151.165456
0
LINE
8
VISIBLE
10
53.567943
20
-151.165456
11
55.061398
21
-150.711631
0
LINE
8
VISIBLE
10
55.061398
20
-150.711631
11
56.438333
21
-149.976502
0
LINE
8
VISIBLE
10
56.438333
20
-149.976502
11
57.656782
21
-148.977451
0
LINE
8
VISIBLE
10
57.656782
20
-148.977451
11
58.655832
21
-147.759002
0
LINE
8
VISIBLE
10
58.655832
20
-147.759002
11
59.390962
21
-146.382067
0
LINE
8
VISIBLE
10
59.390962
20
-146.382067
11
59.844787
21
-144.888612
0
LINE
8
VISIBLE
10
59.844787
20
-144.888612
11
59.999925
21
-143.320604
0
LINE
8
VISIBLE
10
60.000016
20
-143.321674
11
60.000016
21
-133.756999
0
LINE
8
VISIBLE
10
60.000016
20
-133.756999
11
56.000050
21
-133.756999
0
LINE
8
VISIBLE
10
56.000050
20
-133.756999
11
56.000050
21
-118.757789
0
LINE
8
VISIBLE
10
60.000016
20
-118.757789
11
56.000050
21
-118.757789
0
LINE
8
VISIBLE
10
60.000016
20
-118.757789
11
60.000016
21
-11.630778
0
LINE
8
VISIBLE
10
60.000016
20
-11.630778
11
56.000050
21
-11.630778
0
LINE
8
VISIBLE
10
56.000050
20
3.368432
11
56.000050
21
-11.630778
0
LINE
8
VISIBLE
10
60.000016
20
3.368432
11
56.000050
21
3.368432
0
LINE
8
VISIBLE
10
60.000016
20
12.930462
11
60.000016
21
3.368432
0
LINE
8
VISIBLE
10
59.999925
20
12.931411
11
59.844787
21
14.499420
0
LINE
8
VISIBLE
10
59.844787
20
14.499420
11
59.390962
21
15.992874
0
LINE
8
VISIBLE
10
59.390962
20
15.992874
11
58.655832
21
17.369809
0
LINE
8
VISIBLE
10
58.655832
20
17.369809
11
57.656782
21
18.588258
0
LINE
8
VISIBLE
10
57.656782
20
18.588258
11
56.438333
21
19.587308
0
LINE
8
VISIBLE
10
56.438333
20
19.587308
11
55.061398
21
20.322438
0
LINE
8
VISIBLE
10
55.061398
20
20.322438
11
53.567943
21
20.776263
0
LINE
8
VISIBLE
10
53.567943
20
20.776263
11
51.999934
21
20.931401
0
LINE
8
VISIBLE
10
51.999820
20
20.931452
11
32.999850
21
20.931452
0
LINE
8
VISIBLE
10
32.999958
20
20.931401
11
31.387681
21
20.768869
0
LINE
8
VISIBLE
10
31.387681
20
20.768869
11
29.886001
21
20.302722
0
LINE
8
VISIBLE
10
29.886001
20
20.302722
11
28.527088
21
19.565128
0
LINE
8
VISIBLE
10
28.527088
20
19.565128
11
27.343111
21
18.588258
0
LINE
8
VISIBLE
10
27.343111
20
18.588258
11
26.366241
21
17.404281
0
LINE
8
VISIBLE
10
26.366241
20
17.404281
11
25.628647
21
16.045368
0
LINE
8
VISIBLE
10
25.628647
20
16.045368
11
25.162500
21
14.543688
0
LINE
8
VISIBLE
10
25.162500
20
14.543688
11
24.999969
21
12.931411
0
LINE
8
VISIBLE
10
24.999971
20
6.868866
11
24.999971
21
12.930462
0
LINE
8
VISIBLE
10
23.937470
20
6.868365
11
24.203095
21
6.408290
0
LINE
8
VISIBLE
10
24.203095
20
6.408290
11
24.734344
21
6.408290
0
LINE
8
VISIBLE
10
24.734344
20
6.408290
11
24.999969
21
6.868365
0
LINE
8
VISIBLE
10
23.937459
20
9.869237
11
23.937459
21
6.868866
0
LINE
8
VISIBLE
10
-24.979969
20
9.869237
11
23.937459
21
9.869237
0
LINE
8
VISIBLE
10
-24.979969
20
9.869237
11
-24.979969
21
-38.631473
0
LINE
8
VISIBLE
10
-24.979969
20
-38.631473
11
-23.499971
21
-38.631473
0
LINE
8
VISIBLE
10
-23.499971
20
-41.695344
11
-23.499971
21
-38.631473
0
LINE
8
VISIBLE
10
-26.563075
20
-41.695344
11
-23.499971
21
-41.695344
0
LINE
8
VISIBLE
10
-26.563075
20
-40.213679
11
-26.563075
21
-41.695344
0
LINE
8
VISIBLE
10
-26.563075
20
-40.213679
11
-81.125910
21
-40.213679
0
LINE
8
VISIBLE
10
-81.126003
20
-40.214628
11
-82.694012
21
-40.369766
0
LINE
8
VISIBLE
10
-82.694012
20
-40.369766
11
-84.187467
21
-40.823591
0
LINE
8
VISIBLE
10
-84.187467
20
-40.823591
11
-85.564402
21
-41.558720
0
LINE
8
VISIBLE
10
-85.564402
20
-41.558720
11
-86.782851
21
-42.557771
0
LINE
8
VISIBLE
10
-86.782851
20
-42.557771
11
-87.781901
21
-43.776219
0
LINE
8
VISIBLE
10
-87.781901
20
-43.776219
11
-88.517030
21
-45.153154
0
LINE
8
VISIBLE
10
-88.517030
20
-45.153154
11
-88.970856
21
-46.646609
0
LINE
8
VISIBLE
10
-88.970856
20
-46.646609
11
-89.125993
21
-48.214618
0
LINE
8
VISIBLE
10
-89.126106
20
-48.214669
11
-89.126106
21
-82.173897
0
LINE
8
VISIBLE
10
-89.125993
20
-82.174575
11
-88.970856
21
-83.742584
0
LINE
8
VISIBLE
10
-88.970856
20
-83.742584
11
-88.517030
21
-85.236039
0
LINE
8
VISIBLE
10
-88.517030
20
-85.236039
11
-87.781901
21
-86.612974
0
LINE
8
VISIBLE
10
-87.781901
20
-86.612974
11
-86.782851
21
-87.831422
0
LINE
8
VISIBLE
10
-86.782851
20
-87.831422
11
-85.564402
21
-88.830473
0
LINE
8
VISIBLE
10
-85.564402
20
-88.830473
11
-84.187467
21
-89.565602
0
LINE
8
VISIBLE
10
-84.187467
20
-89.565602
11
-82.694012
21
-90.019427
0
LINE
8
VISIBLE
10
-82.694012
20
-90.019427
11
-81.126003
21
-90.174565
0
LINE
8
VISIBLE
10
17.048105
20
-49.700616
11
16.839892
21
-48.923554
0
LINE
8
VISIBLE
10
16.839892
20
-48.923554
11
16.271043
21
-48.354705
0
LINE
8
VISIBLE
10
16.271043
20
-48.354705
11
15.493980
21
-48.146492
0
LINE
8
VISIBLE
10
15.493980
20
-48.146492
11
14.716918
21
-48.354705
0
LINE
8
VISIBLE
10
14.716918
20
-48.354705
11
14.148069
21
-48.923554
0
LINE
8
VISIBLE
10
14.148069
20
-48.923554
11
13.939856
21
-49.700616
0
LINE
8
VISIBLE
10
13.939856
20
-49.700616
11
14.148069
21
-50.477678
0
LINE
8
VISIBLE
10
14.148069
20
-50.477678
11
14.716918
21
-51.046527
0
LINE
8
VISIBLE
10
14.716918
20
-51.046527
11
15.493980
21
-51.254741
0
LINE
8
VISIBLE
10
15.493980
20
-51.254741
11
16.271043
21
-51.046527
0
LINE
8
VISIBLE
10
16.271043
20
-51.046527
11
16.839892
21
-50.477678
0
LINE
8
VISIBLE
10
16.839892
20
-50.477678
11
17.048105
21
-49.700616
0
LINE
8
VISIBLE
10
17.048105
20
-49.700616
11
17.048105
21
-49.700616
0
LINE
8
VISIBLE
10
-13.939856
20
-49.700616
11
-14.148069
21
-48.923554
0
LINE
8
VISIBLE
10
-14.148069
20
-48.923554
11
-14.716918
21
-48.354705
0
LINE
8
VISIBLE
10
-14.716918
20
-48.354705
11
-15.493980
21
-48.146492
0
LINE
8
VISIBLE
10
-15.493980
20
-48.146492
11
-16.271043
21
-48.354705
0
LINE
8
VISIBLE
10
-16.271043
20
-48.354705
11
-16.839892
21
-48.923554
0
LINE
8
VISIBLE
10
-16.839892
20
-48.923554
11
-17.048105
21
-49.700616
0
LINE
8
VISIBLE
10
-17.048105
20
-49.700616
11
-16.839892
21
-50.477678
0
LINE
8
VISIBLE
10
-16.839892
20
-50.477678
11
-16.271043
21
-51.046527
0
LINE
8
VISIBLE
10
-16.271043
20
-51.046527
11
-15.493980
21
-51.254741
0
LINE
8
VISIBLE
10
-15.493980
20
-51.254741
11
-14.716918
21
-51.046527
0
LINE
8
VISIBLE
10
-14.716918
20
-51.046527
11
-14.148069
21
-50.477678
0
LINE
8
VISIBLE
10
-14.148069
20
-50.477678
11
-13.939856
21
-49.700616
0
LINE
8
VISIBLE
10
-13.939856
20
-49.700616
11
-13.939856
21
-49.700616
0
LINE
8
VISIBLE
10
13.461983
20
-65.194597
11
13.343597
21
-63.411428
0
LINE
8
VISIBLE
10
13.343597
20
-63.411428
11
12.995990
21
-61.682128
0
LINE
8
VISIBLE
10
12.995990
20
-61.682128
11
12.430489
21
-60.026314
0
LINE
8
VISIBLE
10
12.430489
20
-60.026314
11
11.658419
21
-58.463605
0
LINE
8
VISIBLE
10
11.658419
20
-58.463605
11
10.691108
21
-57.013619
0
LINE
8
VISIBLE
10
10.691108
20
-57.013619
11
9.539882
21
-55.695973
0
LINE
8
VISIBLE
10
9.539882
20
-55.695973
11
8.216068
21
-54.530287
0
LINE
8
VISIBLE
10
8.216068
20
-54.530287
11
6.730992
21
-53.536177
0
LINE
8
VISIBLE
10
6.730992
20
-53.536177
11
5.127529
21
-52.747118
0
LINE
8
VISIBLE
10
5.127529
20
-52.747118
11
3.456108
21
-52.183504
0
LINE
8
VISIBLE
10
3.456108
20
-52.183504
11
1.739380
21
-51.845336
0
LINE
8
VISIBLE
10
1.739380
20
-51.845336
11
0.000000
21
-51.732614
0
LINE
8
VISIBLE
10
0.000000
20
-51.732614
11
-1.739380
21
-51.845336
0
LINE
8
VISIBLE
10
-1.739380
20
-51.845336
11
-3.456108
21
-52.183504
0
LINE
8
VISIBLE
10
-3.456108
20
-52.183504
11
-5.127529
21
-52.747118
0
LINE
8
VISIBLE
10
-5.127529
20
-52.747118
11
-6.730992
21
-53.536177
0
LINE
8
VISIBLE
10
-6.730992
20
-53.536177
11
-8.216068
21
-54.530287
0
LINE
8
VISIBLE
10
-8.216068
20
-54.530287
11
-9.539882
21
-55.695973
0
LINE
8
VISIBLE
10
-9.539882
20
-55.695973
11
-10.691108
21
-57.013619
0
LINE
8
VISIBLE
10
-10.691108
20
-57.013619
11
-11.658419
21
-58.463605
0
LINE
8
VISIBLE
10
-11.658419
20
-58.463605
11
-12.430489
21
-60.026314
0
LINE
8
VISIBLE
10
-12.430489
20
-60.026314
11
-12.995990
21
-61.682128
0
LINE
8
VISIBLE
10
-12.995990
20
-61.682128
11
-13.343597
21
-63.411428
0
LINE
8
VISIBLE
10
-13.343597
20
-63.411428
11
-13.461983
21
-65.194597
0
LINE
8
VISIBLE
10
-13.461983
20
-65.194597
11
-13.343597
21
-66.977765
0
LINE
8
VISIBLE
10
-13.343597
20
-66.977765
11
-12.995990
21
-68.707066
0
LINE
8
VISIBLE
10
-12.995990
20
-68.707066
11
-12.430489
21
-70.362879
0
LINE
8
VISIBLE
10
-12.430489
20
-70.362879
11
-11.658419
21
-71.925588
0
LINE
8
VISIBLE
10
-11.658419
20
-71.925588
11
-10.691108
21
-73.375574
0
LINE
8
VISIBLE
10
-10.691108
20
-73.375574
11
-9.539882
21
-74.693220
0
LINE
8
VISIBLE
10
-9.539882
20
-74.693220
11
-8.216068
21
-75.858906
0
LINE
8
VISIBLE
10
-8.216068
20
-75.858906
11
-6.730992
21
-76.853016
0
LINE
8
VISIBLE
10
-6.730992
20
-76.853016
11
-5.127529
21
-77.642075
0
LINE
8
VISIBLE
10
-5.127529
20
-77.642075
11
-3.456108
21
-78.205689
0
LINE
8
VISIBLE
10
-3.456108
20
-78.205689
11
-1.739380
21
-78.543857
0
LINE
8
VISIBLE
10
-1.739380
20
-78.543857
11
-0.000000
21
-78.656580
0
LINE
8
VISIBLE
10
-0.000000
20
-78.656580
11
1.739380
21
-78.543857
0
LINE
8
VISIBLE
10
1.739380
20
-78.543857
11
3.456108
21
-78.205689
0
LINE
8
VISIBLE
10
3.456108
20
-78.205689
11
5.127529
21
-77.642075
0
LINE
8
VISIBLE
10
5.127529
20
-77.642075
11
6.730992
21
-76.853016
0
LINE
8
VISIBLE
10
6.730992
20
-76.853016
11
8.216068
21
-75.858906
0
LINE
8
VISIBLE
10
8.216068
20
-75.858906
11
9.539882
21
-74.693220
0
LINE
8
VISIBLE
10
9.539882
20
-74.693220
11
10.691108
21
-73.375574
0
LINE
8
VISIBLE
10
10.691108
20
-73.375574
11
11.658419
21
-71.925588
0
LINE
8
VISIBLE
10
11.658419
20
-71.925588
11
12.430489
21
-70.362879
0
LINE
8
VISIBLE
10
12.430489
20
-70.362879
11
12.995990
21
-68.707066
0
LINE
8
VISIBLE
10
12.995990
20
-68.707066
11
13.343597
21
-66.977765
0
LINE
8
VISIBLE
10
13.343597
20
-66.977765
11
13.461983
21
-65.194597
0
LINE
8
VISIBLE
10
13.461983
20
-65.194597
11
13.461983
21
-65.194597
0
LINE
8
VISIBLE
10
17.048105
20
-80.688577
11
16.839892
21
-79.911515
0
LINE
8
VISIBLE
10
16.839892
20
-79.911515
11
16.271043
21
-79.342666
0
LINE
8
VISIBLE
10
16.271043
20
-79.342666
11
15.493980
21
-79.134452
0
LINE
8
VISIBLE
10
15.493980
20
-79.134452
11
14.716918
21
-79.342666
0
LINE
8
VISIBLE
10
14.716918
20
-79.342666
11
14.148069
21
-79.911515
0
LINE
8
VISIBLE
10
14.148069
20
-79.911515
11
13.939856
21
-80.688577
0
LINE
8
VISIBLE
10
13.939856
20
-80.688577
11
14.148069
21
-81.465639
0
LINE
8
VISIBLE
10
14.148069
20
-81.465639
11
14.716918
21
-82.034488
0
LINE
8
VISIBLE
10
14.716918
20
-82.034488
11
15.493980
21
-82.242702
0
LINE
8
VISIBLE
10
15.493980
20
-82.242702
11
16.271043
21
-82.034488
0
LINE
8
VISIBLE
10
16.271043
20
-82.034488
11
16.839892
21
-81.465639
0
LINE
8
VISIBLE
10
16.839892
20
-81.465639
11
17.048105
21
-80.688577
0
LINE
8
VISIBLE
10
17.048105
20
-80.688577
11
17.048105
21
-80.688577
0
LINE
8
VISIBLE
10
-13.939856
20
-80.688577
11
-14.148069
21
-79.911515
0
LINE
8
VISIBLE
10
-14.148069
20
-79.911515
11
-14.716918
21
-79.342666
0
LINE
8
VISIBLE
10
-14.716918
20
-79.342666
11
-15.493980
21
-79.134452
0
LINE
8
VISIBLE
10
-15.493980
20
-79.134452
11
-16.271043
21
-79.342666
0
LINE
8
VISIBLE
10
-16.271043
20
-79.342666
11
-16.839892
21
-79.911515
0
LINE
8
VISIBLE
10
-16.839892
20
-79.911515
11
-17.048105
21
-80.688577
0
LINE
8
VISIBLE
10
-17.048105
20
-80.688577
11
-16.839892
21
-81.465639
0
LINE
8
VISIBLE
10
-16.839892
20
-81.465639
11
-16.271043
21
-82.034488
0
LINE
8
VISIBLE
10
-16.271043
20
-82.034488
11
-15.493980
21
-82.242702
0
LINE
8
VISIBLE
10
-15.493980
20
-82.242702
11
-14.716918
21
-82.034488
0
LINE
8
VISIBLE
10
-14.716918
20
-82.034488
11
-14.148069
21
-81.465639
0
LINE
8
VISIBLE
10
-14.148069
20
-81.465639
11
-13.939856
21
-80.688577
0
LINE
8
VISIBLE
10
-13.939856
20
-80.688577
11
-13.939856
21
-80.688577
 0 
ENDSEC
 0 
EOF