  0
SECTION
  2
HEADER
  9
$ACADVER
  1
AC1027
  9
$ACADMAINTVER
 70
105
  9
$DWGCODEPAGE
  3
ANSI_1252
  9
$LASTSAVEDBY
  1
ezdxf
  9
$REQUIREDVERSIONS
160
0
  9
$INSBASE
 10
0.0
 20
0.0
 30
0.0
  9
$EXTMIN
 10
1e+20
 20
1e+20
 30
1e+20
  9
$EXTMAX
 10
-1e+20
 20
-1e+20
 30
-1e+20
  9
$LIMMIN
 10
0.0
 20
0.0
  9
$LIMMAX
 10
420.0
 20
297.0
  9
$ORTHOMODE
 70
0
  9
$REGENMODE
 70
1
  9
$FILLMODE
 70
1
  9
$QTEXTMODE
 70
0
  9
$MIRRTEXT
 70
1
  9
$LTSCALE
 40
1.0
  9
$ATTMODE
 70
1
  9
$TEXTSIZE
 40
2.5
  9
$TRACEWID
 40
1.0
  9
$TEXTSTYLE
  7
Standard
  9
$CLAYER
  8
0
  9
$CELTYPE
  6
ByLayer
  9
$CECOLOR
 62
256
  9
$CELTSCALE
 40
1.0
  9
$DISPSILH
 70
0
  9
$DIMSCALE
 40
1.0
  9
$DIMASZ
 40
2.5
  9
$DIMEXO
 40
0.625
  9
$DIMDLI
 40
3.75
  9
$DIMRND
 40
0.0
  9
$DIMDLE
 40
0.0
  9
$DIMEXE
 40
1.25
  9
$DIMTP
 40
0.0
  9
$DIMTM
 40
0.0
  9
$DIMTXT
 40
2.5
  9
$DIMCEN
 40
2.5
  9
$DIMTSZ
 40
0.0
  9
$DIMTOL
 70
0
  9
$DIMLIM
 70
0
  9
$DIMTIH
 70
0
  9
$DIMTOH
 70
0
  9
$DIMSE1
 70
0
  9
$DIMSE2
 70
0
  9
$DIMTAD
 70
1
  9
$DIMZIN
 70
8
  9
$DIMBLK
  1

  9
$DIMASO
 70
1
  9
$DIMSHO
 70
1
  9
$DIMPOST
  1

  9
$DIMAPOST
  1

  9
$DIMALT
 70
0
  9
$DIMALTD
 70
3
  9
$DIMALTF
 40
0.03937007874
  9
$DIMLFAC
 40
1.0
  9
$DIMTOFL
 70
1
  9
$DIMTVP
 40
0.0
  9
$DIMTIX
 70
0
  9
$DIMSOXD
 70
0
  9
$DIMSAH
 70
0
  9
$DIMBLK1
  1

  9
$DIMBLK2
  1

  9
$DIMSTYLE
  2
ISO-25
  9
$DIMCLRD
 70
0
  9
$DIMCLRE
 70
0
  9
$DIMCLRT
 70
0
  9
$DIMTFAC
 40
1.0
  9
$DIMGAP
 40
0.625
  9
$DIMJUST
 70
0
  9
$DIMSD1
 70
0
  9
$DIMSD2
 70
0
  9
$DIMTOLJ
 70
0
  9
$DIMTZIN
 70
8
  9
$DIMALTZ
 70
0
  9
$DIMALTTZ
 70
0
  9
$DIMUPT
 70
0
  9
$DIMDEC
 70
2
  9
$DIMTDEC
 70
2
  9
$DIMALTU
 70
2
  9
$DIMALTTD
 70
3
  9
$DIMTXSTY
  7
Standard
  9
$DIMAUNIT
 70
0
  9
$DIMADEC
 70
0
  9
$DIMALTRND
 40
0.0
  9
$DIMAZIN
 70
0
  9
$DIMDSEP
 70
44
  9
$DIMATFIT
 70
3
  9
$DIMFRAC
 70
0
  9
$DIMLDRBLK
  1

  9
$DIMLUNIT
 70
2
  9
$DIMLWD
 70
-2
  9
$DIMLWE
 70
-2
  9
$DIMTMOVE
 70
0
  9
$DIMFXL
 40
1.0
  9
$DIMFXLON
 70
0
  9
$DIMJOGANG
 40
0.785398163397
  9
$DIMTFILL
 70
0
  9
$DIMTFILLCLR
 70
0
  9
$DIMARCSYM
 70
0
  9
$DIMLTYPE
  6

  9
$DIMLTEX1
  6

  9
$DIMLTEX2
  6

  9
$DIMTXTDIRECTION
 70
0
  9
$LUNITS
 70
2
  9
$LUPREC
 70
4
  9
$SKETCHINC
 40
1.0
  9
$FILLETRAD
 40
10.0
  9
$AUNITS
 70
0
  9
$AUPREC
 70
2
  9
$MENU
  1
.
  9
$ELEVATION
 40
0.0
  9
$PELEVATION
 40
0.0
  9
$THICKNESS
 40
0.0
  9
$LIMCHECK
 70
0
  9
$CHAMFERA
 40
0.0
  9
$CHAMFERB
 40
0.0
  9
$CHAMFERC
 40
0.0
  9
$CHAMFERD
 40
0.0
  9
$SKPOLY
 70
0
  9
$TDCREATE
 40
2460586.793460648
  9
$TDUCREATE
 40
2458532.153996898
  9
$TDUPDATE
 40
2460586.793460648
  9
$TDUUPDATE
 40
2458532.1544311
  9
$TDINDWG
 40
0.0
  9
$TDUSRTIMER
 40
0.0
  9
$USRTIMER
 70
1
  9
$ANGBASE
 50
0.0
  9
$ANGDIR
 70
0
  9
$PDMODE
 70
0
  9
$PDSIZE
 40
0.0
  9
$PLINEWID
 40
0.0
  9
$SPLFRAME
 70
0
  9
$SPLINETYPE
 70
6
  9
$SPLINESEGS
 70
8
  9
$HANDSEED
  5
35
  9
$SURFTAB1
 70
6
  9
$SURFTAB2
 70
6
  9
$SURFTYPE
 70
6
  9
$SURFU
 70
6
  9
$SURFV
 70
6
  9
$UCSBASE
  2

  9
$UCSNAME
  2

  9
$UCSORG
 10
0.0
 20
0.0
 30
0.0
  9
$UCSXDIR
 10
1.0
 20
0.0
 30
0.0
  9
$UCSYDIR
 10
0.0
 20
1.0
 30
0.0
  9
$UCSORTHOREF
  2

  9
$UCSORTHOVIEW
 70
0
  9
$UCSORGTOP
 10
0.0
 20
0.0
 30
0.0
  9
$UCSORGBOTTOM
 10
0.0
 20
0.0
 30
0.0
  9
$UCSORGLEFT
 10
0.0
 20
0.0
 30
0.0
  9
$UCSORGRIGHT
 10
0.0
 20
0.0
 30
0.0
  9
$UCSORGFRONT
 10
0.0
 20
0.0
 30
0.0
  9
$UCSORGBACK
 10
0.0
 20
0.0
 30
0.0
  9
$PUCSBASE
  2

  9
$PUCSNAME
  2

  9
$PUCSORG
 10
0.0
 20
0.0
 30
0.0
  9
$PUCSXDIR
 10
1.0
 20
0.0
 30
0.0
  9
$PUCSYDIR
 10
0.0
 20
1.0
 30
0.0
  9
$PUCSORTHOREF
  2

  9
$PUCSORTHOVIEW
 70
0
  9
$PUCSORGTOP
 10
0.0
 20
0.0
 30
0.0
  9
$PUCSORGBOTTOM
 10
0.0
 20
0.0
 30
0.0
  9
$PUCSORGLEFT
 10
0.0
 20
0.0
 30
0.0
  9
$PUCSORGRIGHT
 10
0.0
 20
0.0
 30
0.0
  9
$PUCSORGFRONT
 10
0.0
 20
0.0
 30
0.0
  9
$PUCSORGBACK
 10
0.0
 20
0.0
 30
0.0
  9
$USERI1
 70
0
  9
$USERI2
 70
0
  9
$USERI3
 70
0
  9
$USERI4
 70
0
  9
$USERI5
 70
0
  9
$USERR1
 40
0.0
  9
$USERR2
 40
0.0
  9
$USERR3
 40
0.0
  9
$USERR4
 40
0.0
  9
$USERR5
 40
0.0
  9
$WORLDVIEW
 70
1
  9
$SHADEDGE
 70
3
  9
$SHADEDIF
 70
70
  9
$TILEMODE
 70
1
  9
$MAXACTVP
 70
64
  9
$PINSBASE
 10
0.0
 20
0.0
 30
0.0
  9
$PLIMCHECK
 70
0
  9
$PEXTMIN
 10
1e+20
 20
1e+20
 30
1e+20
  9
$PEXTMAX
 10
-1e+20
 20
-1e+20
 30
-1e+20
  9
$PLIMMIN
 10
0.0
 20
0.0
  9
$PLIMMAX
 10
420.0
 20
297.0
  9
$UNITMODE
 70
0
  9
$VISRETAIN
 70
1
  9
$PLINEGEN
 70
0
  9
$PSLTSCALE
 70
1
  9
$TREEDEPTH
 70
3020
  9
$CMLSTYLE
  2
Standard
  9
$CMLJUST
 70
0
  9
$CMLSCALE
 40
20.0
  9
$PROXYGRAPHICS
 70
1
  9
$MEASUREMENT
 70
1
  9
$CELWEIGHT
370
-1
  9
$ENDCAPS
280
0
  9
$JOINSTYLE
280
0
  9
$LWDISPLAY
290
0
  9
$INSUNITS
 70
6
  9
$HYPERLINKBASE
  1

  9
$STYLESHEET
  1

  9
$XEDIT
290
1
  9
$CEPSNTYPE
380
0
  9
$PSTYLEMODE
290
1
  9
$FINGERPRINTGUID
  2
{1F51B878-E26B-4671-9D9E-7ED652D782F0}
  9
$VERSIONGUID
  2
{85CD374E-EFF5-4827-BED6-D2A2DA094A3A}
  9
$EXTNAMES
290
1
  9
$PSVPSCALE
 40
0.0
  9
$OLESTARTUP
290
0
  9
$SORTENTS
280
127
  9
$INDEXCTL
280
0
  9
$HIDETEXT
280
1
  9
$XCLIPFRAME
280
1
  9
$HALOGAP
280
0
  9
$OBSCOLOR
 70
257
  9
$OBSLTYPE
280
0
  9
$INTERSECTIONDISPLAY
280
0
  9
$INTERSECTIONCOLOR
 70
257
  9
$DIMASSOC
280
2
  9
$PROJECTNAME
  1

  9
$CAMERADISPLAY
290
0
  9
$LENSLENGTH
 40
50.0
  9
$CAMERAHEIGHT
 40
0.0
  9
$STEPSPERSEC
 40
24.0
  9
$STEPSIZE
 40
100.0
  9
$3DDWFPREC
 40
2.0
  9
$PSOLWIDTH
 40
0.005
  9
$PSOLHEIGHT
 40
0.08
  9
$LOFTANG1
 40
1.570796326795
  9
$LOFTANG2
 40
1.570796326795
  9
$LOFTMAG1
 40
0.0
  9
$LOFTMAG2
 40
0.0
  9
$LOFTPARAM
 70
7
  9
$LOFTNORMALS
280
1
  9
$LATITUDE
 40
37.795
  9
$LONGITUDE
 40
-122.394
  9
$NORTHDIRECTION
 40
0.0
  9
$TIMEZONE
 70
-8000
  9
$LIGHTGLYPHDISPLAY
280
1
  9
$TILEMODELIGHTSYNCH
280
1
  9
$CMATERIAL
347
20
  9
$SOLIDHIST
280
0
  9
$SHOWHIST
280
1
  9
$DWFFRAME
280
2
  9
$DGNFRAME
280
2
  9
$REALWORLDSCALE
290
1
  9
$INTERFERECOLOR
 62
256
  9
$CSHADOW
280
0
  9
$SHADOWPLANELOCATION
 40
0.0
  0
ENDSEC
  0
SECTION
  2
CLASSES
  0
CLASS
  1
ACDBDICTIONARYWDFLT
  2
AcDbDictionaryWithDefault
  3
ObjectDBX Classes
 90
0
 91
0
280
0
281
0
  0
CLASS
  1
SUN
  2
AcDbSun
  3
SCENEOE
 90
1153
 91
0
280
0
281
0
  0
CLASS
  1
VISUALSTYLE
  2
AcDbVisualStyle
  3
ObjectDBX Classes
 90
4095
 91
0
280
0
281
0
  0
CLASS
  1
MATERIAL
  2
AcDbMaterial
  3
ObjectDBX Classes
 90
1153
 91
0
280
0
281
0
  0
CLASS
  1
SCALE
  2
AcDbScale
  3
ObjectDBX Classes
 90
1153
 91
0
280
0
281
0
  0
CLASS
  1
TABLESTYLE
  2
AcDbTableStyle
  3
ObjectDBX Classes
 90
4095
 91
0
280
0
281
0
  0
CLASS
  1
MLEADERSTYLE
  2
AcDbMLeaderStyle
  3
ACDB_MLEADERSTYLE_CLASS
 90
4095
 91
0
280
0
281
0
  0
CLASS
  1
DICTIONARYVAR
  2
AcDbDictionaryVar
  3
ObjectDBX Classes
 90
0
 91
0
280
0
281
0
  0
CLASS
  1
CELLSTYLEMAP
  2
AcDbCellStyleMap
  3
ObjectDBX Classes
 90
1152
 91
0
280
0
281
0
  0
CLASS
  1
MENTALRAYRENDERSETTINGS
  2
AcDbMentalRayRenderSettings
  3
SCENEOE
 90
1024
 91
0
280
0
281
0
  0
CLASS
  1
ACDBDETAILVIEWSTYLE
  2
AcDbDetailViewStyle
  3
ObjectDBX Classes
 90
1025
 91
0
280
0
281
0
  0
CLASS
  1
ACDBSECTIONVIEWSTYLE
  2
AcDbSectionViewStyle
  3
ObjectDBX Classes
 90
1025
 91
0
280
0
281
0
  0
CLASS
  1
RASTERVARIABLES
  2
AcDbRasterVariables
  3
ISM
 90
0
 91
0
280
0
281
0
  0
CLASS
  1
LAYOUT
  2
AcDbLayout
  3
ObjectDBX Classes
 90
0
 91
0
280
0
281
0
  0
CLASS
  1
ACDBPLACEHOLDER
  2
AcDbPlaceHolder
  3
ObjectDBX Classes
 90
0
 91
0
280
0
281
0
  0
ENDSEC
  0
SECTION
  2
TABLES
  0
TABLE
  2
VPORT
  5
8
330
0
100
AcDbSymbolTable
 70
1
  0
VPORT
  5
23
330
8
100
AcDbSymbolTableRecord
100
AcDbViewportTableRecord
  2
*Active
 70
0
 10
0.0
 20
0.0
 11
1.0
 21
1.0
 12
0.0
 22
0.0
 13
0.0
 23
0.0
 14
0.5
 24
0.5
 15
0.5
 25
0.5
 16
0.0
 26
0.0
 36
1.0
 17
0.0
 27
0.0
 37
0.0
 40
1000.0
 41
1.34
 42
50.0
 43
0.0
 44
0.0
 50
0.0
 51
0.0
 71
0
 72
1000
 73
1
 74
3
 75
0
 76
0
 77
0
 78
0
281
0
 65
0
146
0.0
  0
ENDTAB
  0
TABLE
  2
LTYPE
  5
2
330
0
100
AcDbSymbolTable
 70
3
  0
LTYPE
  5
24
330
2
100
AcDbSymbolTableRecord
100
AcDbLinetypeTableRecord
  2
ByBlock
 70
0
  3

 72
65
 73
0
 40
0.0
  0
LTYPE
  5
25
330
2
100
AcDbSymbolTableRecord
100
AcDbLinetypeTableRecord
  2
ByLayer
 70
0
  3

 72
65
 73
0
 40
0.0
  0
LTYPE
  5
26
330
2
100
AcDbSymbolTableRecord
100
AcDbLinetypeTableRecord
  2
Continuous
 70
0
  3

 72
65
 73
0
 40
0.0
  0
ENDTAB
  0
TABLE
  2
LAYER
  5
1
330
0
100
AcDbSymbolTable
 70
2
  0
LAYER
  5
27
330
1
100
AcDbSymbolTableRecord
100
AcDbLayerTableRecord
  2
0
 70
0
 62
7
  6
Continuous
370
-3
390
13
347
21
  0
LAYER
  5
28
330
1
100
AcDbSymbolTableRecord
100
AcDbLayerTableRecord
  2
Defpoints
 70
0
 62
7
  6
Continuous
290
0
370
-3
390
13
347
21
  0
ENDTAB
  0
TABLE
  2
STYLE
  5
5
330
0
100
AcDbSymbolTable
 70
1
  0
STYLE
  5
29
330
5
100
AcDbSymbolTableRecord
100
AcDbTextStyleTableRecord
  2
Standard
 70
0
 40
0.0
 41
1.0
 50
0.0
 71
0
 42
2.5
  3
txt
  4

  0
ENDTAB
  0
TABLE
  2
VIEW
  5
7
330
0
100
AcDbSymbolTable
 70
0
  0
ENDTAB
  0
TABLE
  2
UCS
  5
6
330
0
100
AcDbSymbolTable
 70
0
  0
ENDTAB
  0
TABLE
  2
APPID
  5
3
330
0
100
AcDbSymbolTable
 70
3
  0
APPID
  5
2A
330
3
100
AcDbSymbolTableRecord
100
AcDbRegAppTableRecord
  2
ACAD
 70
0
  0
APPID
  5
32
330
3
100
AcDbSymbolTableRecord
100
AcDbRegAppTableRecord
  2
HATCHBACKGROUNDCOLOR
 70
0
  0
APPID
  5
33
330
3
100
AcDbSymbolTableRecord
100
AcDbRegAppTableRecord
  2
EZDXF
 70
0
  0
ENDTAB
  0
TABLE
  2
DIMSTYLE
  5
4
330
0
100
AcDbSymbolTable
 70
1
100
AcDbDimStyleTable
  0
DIMSTYLE
105
2B
330
4
100
AcDbSymbolTableRecord
100
AcDbDimStyleTableRecord
  2
Standard
 70
0
 40
1.0
 41
2.5
 42
0.625
 43
3.75
 44
1.25
 45
0.0
 46
0.0
 47
0.0
 48
0.0
 49
2.5
140
2.5
141
2.5
142
0.0
143
0.03937007874
144
1.0
145
0.0
146
1.0
147
0.625
148
0.0
 69
0
 70
0
 71
0
 72
0
 73
0
 74
0
 75
0
 76
0
 77
1
 78
8
 79
3
170
0
171
3
172
1
173
0
174
0
175
0
176
0
177
0
178
0
179
2
271
2
272
2
273
2
274
3
275
0
276
0
277
2
278
44
279
0
280
0
281
0
282
0
283
0
284
8
285
0
286
0
288
0
289
3
290
0
371
-2
372
-2
  0
ENDTAB
  0
TABLE
  2
BLOCK_RECORD
  5
9
330
0
100
AcDbSymbolTable
 70
2
  0
BLOCK_RECORD
  5
17
330
9
100
AcDbSymbolTableRecord
100
AcDbBlockTableRecord
  2
*Model_Space
340
1A
 70
0
280
1
281
0
  0
BLOCK_RECORD
  5
1B
330
9
100
AcDbSymbolTableRecord
100
AcDbBlockTableRecord
  2
*Paper_Space
340
1E
 70
0
280
1
281
0
  0
ENDTAB
  0
ENDSEC
  0
SECTION
  2
BLOCKS
  0
BLOCK
  5
18
330
17
100
AcDbEntity
  8
0
100
AcDbBlockBegin
  2
*Model_Space
 70
0
 10
0.0
 20
0.0
 30
0.0
  3
*Model_Space
  1

  0
ENDBLK
  5
19
330
17
100
AcDbEntity
  8
0
100
AcDbBlockEnd
  0
BLOCK
  5
1C
330
1B
100
AcDbEntity
  8
0
100
AcDbBlockBegin
  2
*Paper_Space
 70
0
 10
0.0
 20
0.0
 30
0.0
  3
*Paper_Space
  1

  0
ENDBLK
  5
1D
330
1B
100
AcDbEntity
  8
0
100
AcDbBlockEnd
  0
ENDSEC
  0
SECTION
  2
ENTITIES
  0
LWPOLYLINE
  5
2F
330
17
100
AcDbEntity
  8
0
100
AcDbPolyline
 90
500
 70
1
 10
19.0
 20
0.0
 10
19.19848404871327
 20
0.24126796576037005
 10
19.393873272096016
 20
0.48752385160074707
 10
19.58607366375555
 20
0.7387275803307171
 10
19.77499174079915
 20
0.9948374999594373
 10
19.960534568565432
 20
1.2558103905862674
 10
20.1426097852644
 20
1.521601471664241
 10
20.32112562652072
 20
1.7921644096351608
 10
20.495990949814786
 20
2.067451325935027
 10
20.667115258816175
 20
2.347412805368419
 10
18.85017932497508
 20
2.381331437721781
 10
19.016859373375702
 20
2.645573581145051
 10
19.17984384791553
 20
2.914376428942687
 10
19.339044506474217
 20
3.1876884378197183
 10
19.494373823678266
 20
3.4654565677104663
 10
19.645745014573773
 20
3.7476262917144925
 10
19.793072058161787
 20
4.034141606391022
 10
19.936269720791145
 20
4.324945042409914
 10
20.07525357940349
 20
4.619977675557252
 10
20.20994004462522
 20
4.919179138093474
 10
18.40308006144399
 20
4.725107856132241
 10
18.535327465598858
 20
5.008156920766021
 10
18.663336828770067
 20
5.295267549036109
 10
18.787027064740567
 20
5.5863775444115324
 10
18.90631798598353
 20
5.881423315225292
 10
19.02113032590307
 20
6.180339887498948
 10
19.131385760893835
 20
6.483060918105632
 10
19.237006932214435
 20
6.789518708268929
 10
19.337917467669808
 20
7.099644217395052
 10
19.43404200309753
 20
7.413367077235616
 10
17.665753231876774
 20
6.994366501008882
 10
17.761482371221593
 20
7.291758634018581
 10
17.852497838897882
 20
7.592649136641726
 10
17.938726983369985
 20
7.896966139987788
 10
18.020098219562914
 20
8.204636503667027
 10
18.096541049320393
 20
8.515585831301454
 10
18.167986081640695
 20
8.829738486348845
 10
18.23436505268578
 20
9.147017608236657
 10
18.29561084555902
 20
9.46734512880265
 10
18.35165750984703
 20
9.790641789038919
 10
16.64982692083341
 20
9.153319807932592
 10
16.707528089654897
 20
9.460364957727199
 10
16.760114293541005
 20
9.77029011173376
 10
16.807522461395585
 20
10.083014862117526
 10
16.8496907395349
 20
10.398457673233656
 10
16.886558510040302
 20
10.716535899579933
 10
16.918066408851264
 20
11.037165804032236
 10
16.944156343594578
 20
11.360262576359034
 10
16.964771511145607
 20
11.685740352011186
 10
16.97985641491743
 20
12.013512231183165
 10
15.371322893124002
 20
11.16791979355699
 10
15.39008610952083
 20
11.479775674704362
 10
15.403413733768005
 20
11.793847775275344
 10
15.41125326987773
 20
12.110048416570551
 10
15.413553571027062
 20
12.428288953555873
 10
15.410264855515782
 20
12.748479794973795
 10
15.40133872243125
 20
13.070530423702778
 10
15.386728167016518
 20
13.394349417360315
 10
15.366387595738152
 20
13.719844469145585
 10
15.340272841050018
 20
14.04692240891731
 10
13.85040392100682
 20
13.006395012645086
 10
13.829933277847813
 20
13.318143471605858
 10
13.803792137860135
 20
13.631409414097673
 10
13.771939408057445
 20
13.946099273301995
 10
13.734335455093538
 20
14.262118692780557
 10
13.690942118573773
 20
14.579372548428232
 10
13.641722724044692
 20
14.897764970635112
 10
13.586642095658734
 20
15.217199366653317
 10
13.525666568510903
 20
15.537578443163738
 10
13.458764000644443
 20
15.858804229038117
 10
12.111055805225105
 20
14.639751612739996
 10
12.05167413678145
 20
14.946476190086852
 10
11.986476493952486
 20
15.253995583450406
 10
11.915433834814266
 20
15.562211813497573
 10
11.838518664538876
 20
15.871026300443356
 10
11.75570504584946
 20
16.18033988749895
 10
11.666968609129805
 20
16.49005286448712
 10
11.572286562185832
 20
16.800064991619923
 10
11.471637699656673
 20
17.110275523433742
 10
11.365002412072796
 20
17.42058323287655
 10
10.180709104600936
 20
16.042230584538288
 10
10.083352895256878
 20
16.339094050458083
 10
9.980126955361225
 20
16.63601713015686
 10
9.871014752060912
 20
16.93289897697957
 10
9.756001362656173
 20
17.22963834245661
 10
9.635073482034306
 20
17.526133600877273
 10
9.508219429739716
 20
17.822282773986057
 10
9.37542915667835
 20
18.11798355579631
 10
9.236694251454665
 20
18.413133337516037
 10
9.092007946339404
 20
18.707629232580523
 10
8.089806539736381
 20
17.19171399685437
 10
7.956011155071055
 20
17.47403463715192
 10
7.816384852845055
 20
17.7556787488458
 10
7.670923870009166
 20
18.036544208371062
 10
7.519626091331662
 20
18.31652869532227
 10
7.3624910536935575
 20
18.59552971776503
 10
7.199519950007665
 20
18.873444637623564
 10
7.030715632760147
 20
19.150170696139032
 10
6.856082617173526
 20
19.42560503939301
 10
6.675627083989957
 20
19.699644743890683
 10
5.871322893124002
 20
18.070073809607916
 10
5.703198366279071
 20
18.333399259135547
 10
5.529373691917537
 20
18.59532270693709
 10
5.349857936139575
 20
18.855742363087288
 10
5.1646618245399605
 20
19.114556448898824
 10
4.973797743297094
 20
19.37166322257262
 10
4.77727973987924
 20
19.62696100487641
 10
4.575123523367377
 20
19.880348204846175
 10
4.367346464394324
 20
20.131723345504792
 10
4.153967594699666
 20
20.380985089592336
 10
3.5602449771287663
 20
18.663457763845088
 10
3.3604427323253
 20
18.90363522296074
 10
3.155161004780741
 20
19.141707317632644
 10
2.9444215467668386
 20
19.37757419686312
 10
2.7282477555558318
 20
19.611136228793693
 10
2.506664671286085
 20
19.842294026289558
 10
2.2796989744443286
 20
20.070948472504174
 10
2.0473789829647844
 20
20.297000746418526
 10
1.8097346489453079
 20
20.520352348349356
 10
1.566797554981001
 20
20.740905125420767
 10
1.1930198710569528
 20
18.96250784013716
 10
0.9646909090515764
 20
19.175749566835538
 10
0.7311895437967288
 20
19.386215769227434
 10
0.4925498706894156
 20
19.593810109952678
 10
0.24880758969038058
 20
19.79843667523556
 10
1.2246467991473533e-15
 20
20.0
 10
-0.2538340056437236
 20
20.19840509291709
 10
-0.5126539470440831
 20
20.393557461379316
 10
-0.7764177630006524
 20
20.58536313639614
 10
-1.0450818181392096
 20
20.773728697405165
 10
-1.1930198710569548
 20
18.962507840137164
 10
-1.4462746661363108
 20
19.14545088500379
 10
-1.7043132130844179
 20
19.324992017377546
 10
-1.9670896110838143
 20
19.501039932833486
 10
-2.2345564204949375
 20
19.673503948296165
 10
-2.506664671286088
 20
19.842294026289558
 10
-2.7833638718296885
 20
20.007320799072353
 10
-3.064602018063446
 20
20.168495592653446
 10
-3.350325603014602
 20
20.325730450682084
 10
-3.6404796266857447
 20
20.478938158207477
 10
-3.560244977128767
 20
18.663457763845084
 10
-3.834431625876617
 20
18.813217005777542
 10
-4.11293793248786
 20
18.959001597222954
 10
-4.3957069146078735
 20
19.100726706616918
 10
-4.682680141069748
 20
19.238308311710547
 10
-4.973797743297097
 20
19.37166322257262
 10
-5.268998427055918
 20
19.500709104432136
 10
-5.5682194845534365
 20
19.625364500356152
 10
-5.871396806881507
 20
19.745548853757946
 10
-6.1784648968023275
 20
19.861182530730176
 10
-5.871322893124005
 20
18.07007380960792
 10
-6.162117308298424
 20
18.184287455899092
 10
-6.456699163745945
 20
18.294016396321574
 10
-6.755001294220535
 20
18.399183610015932
 10
-7.056955198522366
 20
18.499713060640918
 10
-7.362491053693561
 20
18.595529717765032
 10
-7.671537729540386
 20
18.686559578056055
 10
-7.98402280347893
 20
18.77272968626376
 10
-8.299872575701453
 20
18.853968155990902
 10
-8.619012084660309
 20
18.930204190247906
 10
-8.089806539736383
 20
17.19171399685437
 10
-8.392622719697918
 20
17.268580830074328
 10
-8.698634392146623
 20
17.34052362853452
 10
-9.00776526818116
 20
17.40747439674547
 10
-9.319937856873588
 20
17.46936628341208
 10
-9.635073482034311
 20
17.526133600877277
 10
-9.953092299275488
 20
17.57771184432442
 10
-10.273913313369519
 20
17.62403771073384
 10
-10.597454395899035
 20
17.665049117589238
 10
-10.923632303194955
 20
17.700685221329593
 10
-11.252362694558924
 20
17.730886435542317
 10
-10.490771457297965
 20
16.080538368809123
 10
-10.803386959870847
 20
16.113560444398765
 10
-11.118471402884433
 20
16.14123891351718
 10
-11.435939527760906
 20
16.163517164200247
 10
-11.75570504584946
 20
16.18033988749895
 10
-12.077680657761881
 20
16.191653094391704
 10
-12.401778072969954
 20
16.19740413241584
 10
-12.727908029660897
 20
16.197541702014355
 10
-13.055980314846565
 20
16.192015872594087
 10
-12.111055805225105
 20
14.639751612739996
 10
-12.423474462133335
 20
14.6388962114198
 10
-12.737763661607362
 20
14.632476786280415
 10
-13.05383260171133
 20
14.62044645031397
 10
-13.371589600796282
 20
14.602759723691845
 10
-13.690942118573775
 20
14.579372548428228
 10
-14.011796777418663
 20
14.550242302735718
 10
-14.33405938389652
 20
14.515327815069423
 10
-14.657634950511278
 20
14.474589377856294
 10
-14.982427717668465
 20
14.427988760906343
 10
-13.850403921006825
 20
13.006395012645084
 10
-14.160251853276938
 20
12.966389915923672
 10
-14.471258221229132
 20
12.920630228224482
 10
-14.783327062427636
 20
12.869080812757947
 10
-15.096361718026671
 20
12.811708039074997
 10
-15.41026485551579
 20
12.748479794973793
 10
-15.724938491653871
 20
12.679365498072151
 10
-16.040284015587027
 20
12.60433610704282
 10
-16.35620221214541
 20
12.523364132508869
 10
-16.67259328531424
 20
12.436423647596392
 10
-15.371322893123999
 20
11.167919793556992
 10
-15.673713613769934
 20
11.08939590570754
 10
-15.976532393991494
 20
11.005017613059076
 10
-16.279679624237936
 20
10.914762083168485
 10
-16.5830551928344
 20
10.818608065338529
 10
-16.886558510040306
 20
10.716535899579936
 10
-17.190088532252783
 20
10.608527525218175
 10
-17.493543786350514
 20
10.494566489142734
 10
-17.79682239417241
 20
10.374637953696675
 10
-18.099822097126136
 20
10.248728704204465
 10
-16.649826920833412
 20
9.15331980793259
 10
-16.93999154755111
 20
9.037515497574384
 10
-17.22984710698276
 20
8.915849296056864
 10
-17.519291913364768
 20
8.788311035364632
 10
-17.808223981014155
 20
8.654892179688474
 10
-18.096541049320397
 20
8.515585831301452
 10
-18.384140607836922
 20
8.370386736064338
 10
-18.67091992146672
 20
8.21929128855872
 10
-18.95677605573693
 20
8.06229753684637
 10
-19.24160590215673
 20
7.899405186853462
 10
-17.66575323187678
 20
6.994366501008878
 10
-17.939115695166947
 20
6.843108071294414
 10
-18.211436838485156
 20
6.6860727095856305
 10
-18.48261450350015
 20
6.523263072650538
 10
-18.752546438895944
 20
6.354683474182746
 10
-19.02113032590307
 20
6.18033988749895
 10
-19.28826380388219
 20
6.000239947856106
 10
-19.553844495954472
 20
5.814392954387512
 10
-19.817770034673377
 20
5.622809871656897
 10
-20.079938087732096
 20
5.425503330829858
 10
-20.34024638370125
 20
5.22248763046195
 10
-18.65532927196174
 20
4.540780742855512
 10
-18.905821332059606
 20
4.350852762417993
 10
-19.154455221936594
 20
4.155339354472274
 10
-19.401130037208087
 20
3.9542576141852597
 10
-19.645745014573777
 20
3.747626291714492
 10
-19.88819955748995
 20
3.535465791300573
 10
-20.128393261840515
 20
3.317798169975621
 10
-20.366225941601027
 20
3.0946471358875964
 10
-20.60159765449034
 20
2.8660380462404706
 10
-18.85017932497508
 20
2.381331437721778
 10
-19.077337161984172
 20
2.1668425895708445
 10
-19.302049729437226
 20
1.947017268113571
 10
-19.524218739206187
 20
1.7218834523945663
 10
-19.74374622516016
 20
1.4914707494530657
 10
-19.96053456856544
 20
1.2558103905862632
 10
-20.17448652344155
 20
1.0149352272313472
 10
-20.385505241868017
 20
0.7688797264666645
 10
-20.59349429923598
 20
0.5176799661327498
 10
-20.798357719439377
 20
0.2613736295737298
 10
-19.000000000000004
 20
2.3268289183799714e-15
 10
-19.198484048713272
 20
-0.2412679657603698
 10
-19.393873272096023
 20
-0.487523851600749
 10
-19.586073663755553
 20
-0.738727580330721
 10
-19.774991740799145
 20
-0.9948374999594344
 10
-19.960534568565432
 20
-1.255810390586267
 10
-20.1426097852644
 20
-1.5216014716642423
 10
-20.321125626520722
 20
-1.7921644096351645
 10
-20.495990949814786
 20
-2.067451325935033
 10
-20.667115258816178
 20
-2.3474128053684185
 10
-18.850179324975084
 20
-2.381331437721782
 10
-19.01685937337571
 20
-2.6455735811450545
 10
-19.179843847915535
 20
-2.9143764289426928
 10
-19.339044506474213
 20
-3.1876884378197166
 10
-19.494373823678266
 20
-3.4654565677104667
 10
-19.645745014573773
 20
-3.7476262917144956
 10
-19.79307205816179
 20
-4.034141606391027
 10
-19.93626972079115
 20
-4.324945042409913
 10
-20.075253579403494
 20
-4.619977675557254
 10
-20.20994004462522
 20
-4.919179138093477
 10
-18.403080061443998
 20
-4.725107856132247
 10
-18.535327465598858
 20
-5.008156920766019
 10
-18.663336828770067
 20
-5.295267549036109
 10
-18.787027064740567
 20
-5.586377544411534
 10
-18.90631798598353
 20
-5.881423315225295
 10
-19.021130325903076
 20
-6.180339887498946
 10
-19.13138576089384
 20
-6.4830609181056325
 10
-19.237006932214438
 20
-6.789518708268932
 10
-19.337917467669815
 20
-7.099644217395058
 10
-19.434042003097534
 20
-7.413367077235623
 10
-17.665753231876778
 20
-6.99436650100888
 10
-17.761482371221597
 20
-7.291758634018583
 10
-17.852497838897886
 20
-7.5926491366417315
 10
-17.938726983369985
 20
-7.8969661399877955
 10
-18.020098219562918
 20
-8.204636503667027
 10
-18.096541049320397
 20
-8.515585831301456
 10
-18.1679860816407
 20
-8.82973848634885
 10
-18.23436505268579
 20
-9.147017608236666
 10
-18.29561084555902
 20
-9.467345128802648
 10
-18.35165750984703
 20
-9.790641789038919
 10
-16.649826920833412
 20
-9.153319807932593
 10
-16.707528089654893
 20
-9.460364957727204
 10
-16.76011429354101
 20
-9.770290111733761
 10
-16.80752246139559
 20
-10.083014862117528
 10
-16.849690739534903
 20
-10.398457673233661
 10
-16.886558510040306
 20
-10.71653589957994
 10
-16.918066408851264
 20
-11.037165804032234
 10
-16.94415634359458
 20
-11.360262576359036
 10
-16.964771511145603
 20
-11.685740352011186
 10
-16.97985641491743
 20
-12.01351223118317
 10
-15.371322893124
 20
-11.167919793556996
 10
-15.390086109520837
 20
-11.479775674704365
 10
-15.403413733768009
 20
-11.79384777527535
 10
-15.411253269877735
 20
-12.11004841657056
 10
-15.413553571027066
 20
-12.428288953555878
 10
-15.410264855515784
 20
-12.748479794973793
 10
-15.40133872243125
 20
-13.070530423702778
 10
-15.386728167016518
 20
-13.394349417360315
 10
-15.366387595738153
 20
-13.71984446914559
 10
-15.340272841050016
 20
-14.046922408917306
 10
-13.850403921006825
 20
-13.00639501264509
 10
-13.829933277847816
 20
-13.318143471605861
 10
-13.803792137860137
 20
-13.631409414097684
 10
-13.771939408057447
 20
-13.946099273301991
 10
-13.734335455093538
 20
-14.262118692780557
 10
-13.690942118573775
 20
-14.579372548428234
 10
-13.641722724044692
 20
-14.897764970635118
 10
-13.58664209565873
 20
-15.217199366653311
 10
-13.5256665685109
 20
-15.537578443163737
 10
-13.458764000644445
 20
-15.858804229038123
 10
-12.111055805225108
 20
-14.639751612740007
 10
-12.05167413678145
 20
-14.94647619008686
 10
-11.986476493952487
 20
-15.253995583450422
 10
-11.915433834814264
 20
-15.562211813497587
 10
-11.838518664538876
 20
-15.87102630044335
 10
-11.755705045849464
 20
-16.180339887498945
 10
-11.666968609129805
 20
-16.490052864487115
 10
-11.57228656218583
 20
-16.80006499161992
 10
-11.471637699656675
 20
-17.11027552343375
 10
-11.3650024120728
 20
-17.42058323287656
 10
-10.180709104600936
 20
-16.0422305845383
 10
-10.083352895256876
 20
-16.339094050458097
 10
-9.980126955361229
 20
-16.636017130156848
 10
-9.871014752060915
 20
-16.93289897697957
 10
-9.756001362656173
 20
-17.229638342456603
 10
-9.635073482034306
 20
-17.526133600877273
 10
-9.508219429739716
 20
-17.822282773986057
 10
-9.375429156678353
 20
-18.117983555796318
 10
-9.236694251454663
 20
-18.413133337516047
 10
-9.0920079463394
 20
-18.70762923258053
 10
-8.94136512286653
 20
-19.001368101786404
 10
-7.956011155071058
 20
-17.47403463715191
 10
-7.816384852845058
 20
-17.7556787488458
 10
-7.670923870009167
 20
-18.03654420837106
 10
-7.519626091331661
 20
-18.31652869532227
 10
-7.362491053693557
 20
-18.59552971776503
 10
-7.199519950007662
 20
-18.873444637623574
 10
-7.0307156327601446
 20
-19.150170696139046
 10
-6.856082617173519
 20
-19.425605039393023
 10
-6.675627083989962
 20
-19.699644743890676
 10
-6.489356881873897
 20
-19.97218684219822
 10
-5.7031983662790715
 20
-18.333399259135543
 10
-5.529373691917536
 20
-18.595322706937093
 10
-5.349857936139572
 20
-18.855742363087284
 10
-5.164661824539954
 20
-19.114556448898824
 10
-4.973797743297093
 20
-19.371663222572636
 10
-4.777279739879233
 20
-19.62696100487643
 10
-4.575123523367382
 20
-19.880348204846168
 10
-4.36734646439433
 20
-20.13172334550478
 10
-4.153967594699667
 20
-20.380985089592333
 10
-3.560244977128768
 20
-18.663457763845084
 10
-3.360442732325299
 20
-18.903635222960748
 10
-3.155161004780738
 20
-19.141707317632644
 10
-2.944421546766833
 20
-19.37757419686312
 10
-2.7282477555558273
 20
-19.61113622879371
 10
-2.5066646712860763
 20
-19.842294026289572
 10
-2.279698974444335
 20
-20.07094847250417
 10
-2.0473789829647866
 20
-20.297000746418522
 10
-1.80973464894531
 20
-20.520352348349356
 10
-1.5667975549809992
 20
-20.74090512542077
 10
-1.193019871056951
 20
-18.962507840137164
 10
-0.9646909090515703
 20
-19.175749566835538
 10
-0.7311895437967227
 20
-19.386215769227437
 10
-0.4925498706894053
 20
-19.593810109952695
 10
-0.24880758969038733
 20
-19.798436675235557
 10
-3.673940397442059e-15
 20
-20.0
 10
0.2538340056437211
 20
-20.198405092917085
 10
0.5126539470440852
 20
-20.39355746137932
 10
0.7764177630006543
 20
-20.58536313639614
 10
1.045081818139212
 20
-20.77372869740517
 10
1.1930198710569608
 20
-18.962507840137164
 10
1.4462746661363175
 20
-19.145450885003793
 10
1.7043132130844112
 20
-19.324992017377546
 10
1.9670896110838074
 20
-19.501039932833482
 10
2.2345564204949353
 20
-19.673503948296165
 10
2.5066646712860847
 20
-19.842294026289558
 10
2.783363871829691
 20
-20.007320799072357
 10
3.0646020180634483
 20
-20.168495592653446
 10
3.3503256030146096
 20
-20.325730450682087
 10
3.640479626685751
 20
-20.478938158207477
 10
3.5602449771287787
 20
-18.66345776384509
 10
3.8344316258766096
 20
-18.813217005777542
 10
4.112937932487856
 20
-18.95900159722295
 10
4.395706914607871
 20
-19.100726706616914
 10
4.68268014106975
 20
-19.238308311710547
 10
4.9737977432971
 20
-19.371663222572625
 10
5.268998427055924
 20
-19.500709104432133
 10
5.568219484553444
 20
-19.625364500356156
 10
5.8713968068815205
 20
-19.74554885375795
 10
6.1784648968023195
 20
-19.861182530730172
 10
5.871322893123997
 20
-18.07007380960792
 10
6.162117308298422
 20
-18.184287455899096
 10
6.4566991637459425
 20
-18.29401639632157
 10
6.755001294220539
 20
-18.399183610015935
 10
7.0569551985223695
 20
-18.49971306064092
 10
7.362491053693567
 20
-18.595529717765032
 10
7.671537729540392
 20
-18.686559578056055
 10
7.984022803478943
 20
-18.77272968626376
 10
8.299872575701443
 20
-18.853968155990895
 10
8.619012084660309
 20
-18.930204190247913
 10
8.089806539736385
 20
-17.191713996854382
 10
8.392622719697915
 20
-17.268580830074324
 10
8.698634392146634
 20
-17.340523628534527
 10
9.00776526818117
 20
-17.407474396745474
 10
9.319937856873599
 20
-17.469366283412082
 10
9.635073482034318
 20
-17.526133600877273
 10
9.953092299275484
 20
-17.57771184432442
 10
10.273913313369514
 20
-17.624037710733834
 10
10.597454395899033
 20
-17.665049117589238
 10
10.923632303194957
 20
-17.7006852213296
 10
10.18070910460094
 20
-16.042230584538288
 10
10.49077145729798
 20
-16.08053836880913
 10
10.803386959870856
 20
-16.113560444398765
 10
11.118471402884444
 20
-16.141238913517185
 10
11.435939527760887
 20
-16.16351716420024
 10
11.755705045849458
 20
-16.180339887498953
 10
12.077680657761876
 20
-16.1916530943917
 10
12.40177807296995
 20
-16.197404132415844
 10
12.727908029660897
 20
-16.197541702014355
 10
13.055980314846577
 20
-16.192015872594087
 10
12.111055805225119
 20
-14.639751612740003
 10
12.423474462133342
 20
-14.638896211419798
 10
12.737763661607376
 20
-14.63247678628042
 10
13.053832601711322
 20
-14.620446450313967
 10
13.371589600796282
 20
-14.602759723691847
 10
13.690942118573767
 20
-14.579372548428227
 10
14.011796777418663
 20
-14.55024230273572
 10
14.334059383896538
 20
-14.51532781506943
 10
14.657634950511289
 20
-14.474589377856296
 10
14.982427717668482
 20
-14.42798876090635
 10
13.850403921006833
 20
-13.006395012645084
 10
14.160251853276938
 20
-12.966389915923674
 10
14.471258221229125
 20
-12.920630228224478
 10
14.783327062427638
 20
-12.869080812757952
 10
15.096361718026666
 20
-12.811708039074997
 10
15.410264855515793
 20
-12.748479794973797
 10
15.724938491653889
 20
-12.679365498072155
 10
16.040284015587037
 20
-12.60433610704282
 10
16.35620221214543
 20
-12.523364132508876
 10
16.67259328531425
 20
-12.436423647596389
 10
15.371322893124002
 20
-11.167919793556996
 10
15.673713613769927
 20
-11.089395905707539
 10
15.976532393991498
 20
-11.00501761305908
 10
16.279679624237925
 20
-10.914762083168483
 10
16.583055192834415
 20
-10.818608065338529
 10
16.88655851004032
 20
-10.716535899579936
 10
17.190088532252787
 20
-10.608527525218172
 10
17.49354378635053
 20
-10.494566489142732
 10
17.7968223941724
 20
-10.374637953696674
 10
18.099822097126136
 20
-10.248728704204469
 10
18.402440280921134
 20
-10.11682715613602
 10
16.93999154755111
 20
-9.037515497574388
 10
17.229847106982763
 20
-8.91584929605686
 10
17.51929191336478
 20
-8.78831103536463
 10
17.808223981014166
 20
-8.654892179688472
 10
18.096541049320404
 20
-8.515585831301449
 10
18.384140607836912
 20
-8.370386736064347
 10
18.670919921466712
 20
-8.21929128855872
 10
18.95677605573693
 20
-8.062297536846373
 10
19.241605902156724
 20
-7.899405186853462
 10
17.665753231876785
 20
-6.994366501008882
 10
17.93911569516695
 20
-6.843108071294409
 10
18.211436838485167
 20
-6.686072709585628
 10
18.482614503500166
 20
-6.523263072650536
 10
18.75254643889595
 20
-6.354683474182742
 10
19.021130325903073
 20
-6.180339887498954
 10
19.288263803882185
 20
-6.000239947856106
 10
19.553844495954472
 20
-5.8143929543875155
 10
19.81777003467337
 20
-5.622809871656898
 10
20.079938087732103
 20
-5.425503330829855
 10
18.403080061443994
 20
-4.725107856132236
 10
18.65532927196175
 20
-4.5407807428555085
 10
18.905821332059617
 20
-4.35085276241799
 10
19.154455221936583
 20
-4.155339354472275
 10
19.40113003720809
 20
-3.9542576141852632
 10
19.64574501457377
 20
-3.747626291714493
 10
19.888199557489955
 20
-3.5354657913005765
 10
20.128393261840507
 20
-3.317798169975622
 10
20.366225941601037
 20
-3.094647135887591
 10
20.601597654490348
 20
-2.866038046240464
 10
18.85017932497509
 20
-2.3813314377217734
 10
19.077337161984183
 20
-2.1668425895708396
 10
19.30204972943722
 20
-1.9470172681135722
 10
19.524218739206187
 20
-1.7218834523945687
 10
19.74374622516015
 20
-1.4914707494530677
 10
19.96053456856544
 20
-1.2558103905862656
 10
20.17448652344155
 20
-1.0149352272313406
 10
20.385505241868028
 20
-0.7688797264666584
 10
20.59349429923598
 20
-0.5176799661327433
 10
20.798357719439387
 20
-0.26137362957372323
  0
CIRCLE
  5
30
330
17
100
AcDbEntity
  8
0
100
AcDbCircle
 10
0.0
 20
0.0
 30
0.0
 40
2.875
  0
POINT
  5
31
330
17
100
AcDbEntity
  8
0
100
AcDbPoint
 10
0.0
 20
0.0
 30
0.0
  0
ENDSEC
  0
SECTION
  2
OBJECTS
  0
DICTIONARY
  5
A
330
0
100
AcDbDictionary
280
0
281
1
  3
ACAD_COLOR
350
B
  3
ACAD_GROUP
350
C
  3
ACAD_LAYOUT
350
D
  3
ACAD_MATERIAL
350
E
  3
ACAD_MLEADERSTYLE
350
F
  3
ACAD_MLINESTYLE
350
10
  3
ACAD_PLOTSETTINGS
350
11
  3
ACAD_PLOTSTYLENAME
350
12
  3
ACAD_SCALELIST
350
14
  3
ACAD_TABLESTYLE
350
15
  3
ACAD_VISUALSTYLE
350
16
  3
EZDXF_META
350
2D
  0
DICTIONARY
  5
B
330
A
100
AcDbDictionary
280
0
281
1
  0
DICTIONARY
  5
C
330
A
100
AcDbDictionary
280
0
281
1
  0
DICTIONARY
  5
D
330
A
100
AcDbDictionary
280
0
281
1
  3
Model
350
1A
  3
Layout1
350
1E
  0
DICTIONARY
  5
E
330
A
100
AcDbDictionary
280
0
281
1
  3
ByBlock
350
1F
  3
ByLayer
350
20
  3
Global
350
21
  0
DICTIONARY
  5
F
330
A
100
AcDbDictionary
280
0
281
1
  3
Standard
350
2C
  0
DICTIONARY
  5
10
330
A
100
AcDbDictionary
280
0
281
1
  3
Standard
350
22
  0
DICTIONARY
  5
11
330
A
100
AcDbDictionary
280
0
281
1
  0
ACDBDICTIONARYWDFLT
  5
12
330
A
100
AcDbDictionary
280
0
281
1
  3
Normal
350
13
100
AcDbDictionaryWithDefault
340
13
  0
ACDBPLACEHOLDER
  5
13
330
12
  0
DICTIONARY
  5
14
330
A
100
AcDbDictionary
280
0
281
1
  0
DICTIONARY
  5
15
330
A
100
AcDbDictionary
280
0
281
1
  0
DICTIONARY
  5
16
330
A
100
AcDbDictionary
280
0
281
1
  0
LAYOUT
  5
1A
330
D
100
AcDbPlotSettings
  1

  4
A3
  6

 40
7.5
 41
20.0
 42
7.5
 43
20.0
 44
420.0
 45
297.0
 46
0.0
 47
0.0
 48
0.0
 49
0.0
140
0.0
141
0.0
142
1.0
143
1.0
 70
1024
 72
1
 73
0
 74
5
  7

 75
16
 76
0
 77
2
 78
300
147
1.0
148
0.0
149
0.0
100
AcDbLayout
  1
Model
 70
1
 71
0
 10
0.0
 20
0.0
 11
420.0
 21
297.0
 12
0.0
 22
0.0
 32
0.0
 14
1e+20
 24
1e+20
 34
1e+20
 15
-1e+20
 25
-1e+20
 35
-1e+20
146
0.0
 13
0.0
 23
0.0
 33
0.0
 16
1.0
 26
0.0
 36
0.0
 17
0.0
 27
1.0
 37
0.0
 76
1
330
17
  0
LAYOUT
  5
1E
330
D
100
AcDbPlotSettings
  1

  4
A3
  6

 40
7.5
 41
20.0
 42
7.5
 43
20.0
 44
420.0
 45
297.0
 46
0.0
 47
0.0
 48
0.0
 49
0.0
140
0.0
141
0.0
142
1.0
143
1.0
 70
0
 72
1
 73
0
 74
5
  7

 75
16
 76
0
 77
2
 78
300
147
1.0
148
0.0
149
0.0
100
AcDbLayout
  1
Layout1
 70
1
 71
1
 10
0.0
 20
0.0
 11
420.0
 21
297.0
 12
0.0
 22
0.0
 32
0.0
 14
1e+20
 24
1e+20
 34
1e+20
 15
-1e+20
 25
-1e+20
 35
-1e+20
146
0.0
 13
0.0
 23
0.0
 33
0.0
 16
1.0
 26
0.0
 36
0.0
 17
0.0
 27
1.0
 37
0.0
 76
1
330
1B
  0
MATERIAL
  5
1F
102
{ACAD_REACTORS
330
E
102
}
330
E
100
AcDbMaterial
  1
ByBlock
  2

 70
0
 40
1.0
 71
1
 41
1.0
 91
-1023410177
 42
1.0
 72
1
  3

 73
1
 74
1
 75
1
 44
0.5
 73
0
 45
1.0
 46
1.0
 77
1
  4

 78
1
 79
1
170
1
 48
1.0
171
1
  6

172
1
173
1
174
1
140
1.0
141
1.0
175
1
  7

176
1
177
1
178
1
143
1.0
179
1
  8

270
1
271
1
272
1
145
1.0
146
1.0
273
1
  9

274
1
275
1
276
1
 42
1.0
 72
1
  3

 73
1
 74
1
 75
1
 94
63
  0
MATERIAL
  5
20
102
{ACAD_REACTORS
330
E
102
}
330
E
100
AcDbMaterial
  1
ByLayer
  2

 70
0
 40
1.0
 71
1
 41
1.0
 91
-1023410177
 42
1.0
 72
1
  3

 73
1
 74
1
 75
1
 44
0.5
 73
0
 45
1.0
 46
1.0
 77
1
  4

 78
1
 79
1
170
1
 48
1.0
171
1
  6

172
1
173
1
174
1
140
1.0
141
1.0
175
1
  7

176
1
177
1
178
1
143
1.0
179
1
  8

270
1
271
1
272
1
145
1.0
146
1.0
273
1
  9

274
1
275
1
276
1
 42
1.0
 72
1
  3

 73
1
 74
1
 75
1
 94
63
  0
MATERIAL
  5
21
102
{ACAD_REACTORS
330
E
102
}
330
E
100
AcDbMaterial
  1
Global
  2

 70
0
 40
1.0
 71
1
 41
1.0
 91
-1023410177
 42
1.0
 72
1
  3

 73
1
 74
1
 75
1
 44
0.5
 73
0
 45
1.0
 46
1.0
 77
1
  4

 78
1
 79
1
170
1
 48
1.0
171
1
  6

172
1
173
1
174
1
140
1.0
141
1.0
175
1
  7

176
1
177
1
178
1
143
1.0
179
1
  8

270
1
271
1
272
1
145
1.0
146
1.0
273
1
  9

274
1
275
1
276
1
 42
1.0
 72
1
  3

 73
1
 74
1
 75
1
 94
63
  0
MLINESTYLE
  5
22
102
{ACAD_REACTORS
330
10
102
}
330
10
100
AcDbMlineStyle
  2
Standard
 70
0
  3

 62
256
 51
90.0
 52
90.0
 71
2
 49
0.5
 62
256
  6
BYLAYER
 49
-0.5
 62
256
  6
BYLAYER
  0
MLEADERSTYLE
  5
2C
102
{ACAD_REACTORS
330
F
102
}
330
F
100
AcDbMLeaderStyle
179
2
170
2
171
1
172
0
 90
2
 40
0.0
 41
0.0
173
1
 91
-1056964608
 92
-2
290
1
 42
2.0
291
1
 43
8.0
  3
Standard
 44
4.0
300

342
29
174
1
175
1
176
0
178
1
 93
-1056964608
 45
4.0
292
0
297
0
 46
4.0
 94
-1056964608
 47
1.0
 49
1.0
140
1.0
294
1
141
0.0
177
0
142
1.0
295
0
296
0
143
3.75
271
0
272
9
273
9
  0
DICTIONARY
  5
2D
330
A
100
AcDbDictionary
281
1
  3
CREATED_BY_EZDXF
350
2E
  3
WRITTEN_BY_EZDXF
350
34
  0
DICTIONARYVAR
  5
2E
330
2D
100
DictionaryVariables
280
0
  1
1.3.3 @ 2024-10-02T23:02:35.926456+00:00
  0
DICTIONARYVAR
  5
34
330
2D
100
DictionaryVariables
280
0
  1
1.3.3 @ 2024-10-02T23:02:35.931450+00:00
  0
ENDSEC
  0
EOF
