  0
SECTION
  2
HEADER
  9
$ACADVER
  1
AC1027
  9
$ACADMAINTVER
 70
105
  9
$DWGCODEPAGE
  3
ANSI_1252
  9
$LASTSAVEDBY
  1
ezdxf
  9
$REQUIREDVERSIONS
160
0
  9
$INSBASE
 10
0.0
 20
0.0
 30
0.0
  9
$EXTMIN
 10
1e+20
 20
1e+20
 30
1e+20
  9
$EXTMAX
 10
-1e+20
 20
-1e+20
 30
-1e+20
  9
$LIMMIN
 10
0.0
 20
0.0
  9
$LIMMAX
 10
420.0
 20
297.0
  9
$ORTHOMODE
 70
0
  9
$REGENMODE
 70
1
  9
$FILLMODE
 70
1
  9
$QTEXTMODE
 70
0
  9
$MIRRTEXT
 70
1
  9
$LTSCALE
 40
1.0
  9
$ATTMODE
 70
1
  9
$TEXTSIZE
 40
2.5
  9
$TRACEWID
 40
1.0
  9
$TEXTSTYLE
  7
Standard
  9
$CLAYER
  8
0
  9
$CELTYPE
  6
ByLayer
  9
$CECOLOR
 62
256
  9
$CELTSCALE
 40
1.0
  9
$DISPSILH
 70
0
  9
$DIMSCALE
 40
1.0
  9
$DIMASZ
 40
2.5
  9
$DIMEXO
 40
0.625
  9
$DIMDLI
 40
3.75
  9
$DIMRND
 40
0.0
  9
$DIMDLE
 40
0.0
  9
$DIMEXE
 40
1.25
  9
$DIMTP
 40
0.0
  9
$DIMTM
 40
0.0
  9
$DIMTXT
 40
2.5
  9
$DIMCEN
 40
2.5
  9
$DIMTSZ
 40
0.0
  9
$DIMTOL
 70
0
  9
$DIMLIM
 70
0
  9
$DIMTIH
 70
0
  9
$DIMTOH
 70
0
  9
$DIMSE1
 70
0
  9
$DIMSE2
 70
0
  9
$DIMTAD
 70
1
  9
$DIMZIN
 70
8
  9
$DIMBLK
  1

  9
$DIMASO
 70
1
  9
$DIMSHO
 70
1
  9
$DIMPOST
  1

  9
$DIMAPOST
  1

  9
$DIMALT
 70
0
  9
$DIMALTD
 70
3
  9
$DIMALTF
 40
0.03937007874
  9
$DIMLFAC
 40
1.0
  9
$DIMTOFL
 70
1
  9
$DIMTVP
 40
0.0
  9
$DIMTIX
 70
0
  9
$DIMSOXD
 70
0
  9
$DIMSAH
 70
0
  9
$DIMBLK1
  1

  9
$DIMBLK2
  1

  9
$DIMSTYLE
  2
ISO-25
  9
$DIMCLRD
 70
0
  9
$DIMCLRE
 70
0
  9
$DIMCLRT
 70
0
  9
$DIMTFAC
 40
1.0
  9
$DIMGAP
 40
0.625
  9
$DIMJUST
 70
0
  9
$DIMSD1
 70
0
  9
$DIMSD2
 70
0
  9
$DIMTOLJ
 70
0
  9
$DIMTZIN
 70
8
  9
$DIMALTZ
 70
0
  9
$DIMALTTZ
 70
0
  9
$DIMUPT
 70
0
  9
$DIMDEC
 70
2
  9
$DIMTDEC
 70
2
  9
$DIMALTU
 70
2
  9
$DIMALTTD
 70
3
  9
$DIMTXSTY
  7
Standard
  9
$DIMAUNIT
 70
0
  9
$DIMADEC
 70
0
  9
$DIMALTRND
 40
0.0
  9
$DIMAZIN
 70
0
  9
$DIMDSEP
 70
44
  9
$DIMATFIT
 70
3
  9
$DIMFRAC
 70
0
  9
$DIMLDRBLK
  1

  9
$DIMLUNIT
 70
2
  9
$DIMLWD
 70
-2
  9
$DIMLWE
 70
-2
  9
$DIMTMOVE
 70
0
  9
$DIMFXL
 40
1.0
  9
$DIMFXLON
 70
0
  9
$DIMJOGANG
 40
0.785398163397
  9
$DIMTFILL
 70
0
  9
$DIMTFILLCLR
 70
0
  9
$DIMARCSYM
 70
0
  9
$DIMLTYPE
  6

  9
$DIMLTEX1
  6

  9
$DIMLTEX2
  6

  9
$DIMTXTDIRECTION
 70
0
  9
$LUNITS
 70
2
  9
$LUPREC
 70
4
  9
$SKETCHINC
 40
1.0
  9
$FILLETRAD
 40
10.0
  9
$AUNITS
 70
0
  9
$AUPREC
 70
2
  9
$MENU
  1
.
  9
$ELEVATION
 40
0.0
  9
$PELEVATION
 40
0.0
  9
$THICKNESS
 40
0.0
  9
$LIMCHECK
 70
0
  9
$CHAMFERA
 40
0.0
  9
$CHAMFERB
 40
0.0
  9
$CHAMFERC
 40
0.0
  9
$CHAMFERD
 40
0.0
  9
$SKPOLY
 70
0
  9
$TDCREATE
 40
2460586.7739930553
  9
$TDUCREATE
 40
2458532.153996898
  9
$TDUPDATE
 40
2460586.7739930553
  9
$TDUUPDATE
 40
2458532.1544311
  9
$TDINDWG
 40
0.0
  9
$TDUSRTIMER
 40
0.0
  9
$USRTIMER
 70
1
  9
$ANGBASE
 50
0.0
  9
$ANGDIR
 70
0
  9
$PDMODE
 70
0
  9
$PDSIZE
 40
0.0
  9
$PLINEWID
 40
0.0
  9
$SPLFRAME
 70
0
  9
$SPLINETYPE
 70
6
  9
$SPLINESEGS
 70
8
  9
$HANDSEED
  5
35
  9
$SURFTAB1
 70
6
  9
$SURFTAB2
 70
6
  9
$SURFTYPE
 70
6
  9
$SURFU
 70
6
  9
$SURFV
 70
6
  9
$UCSBASE
  2

  9
$UCSNAME
  2

  9
$UCSORG
 10
0.0
 20
0.0
 30
0.0
  9
$UCSXDIR
 10
1.0
 20
0.0
 30
0.0
  9
$UCSYDIR
 10
0.0
 20
1.0
 30
0.0
  9
$UCSORTHOREF
  2

  9
$UCSORTHOVIEW
 70
0
  9
$UCSORGTOP
 10
0.0
 20
0.0
 30
0.0
  9
$UCSORGBOTTOM
 10
0.0
 20
0.0
 30
0.0
  9
$UCSORGLEFT
 10
0.0
 20
0.0
 30
0.0
  9
$UCSORGRIGHT
 10
0.0
 20
0.0
 30
0.0
  9
$UCSORGFRONT
 10
0.0
 20
0.0
 30
0.0
  9
$UCSORGBACK
 10
0.0
 20
0.0
 30
0.0
  9
$PUCSBASE
  2

  9
$PUCSNAME
  2

  9
$PUCSORG
 10
0.0
 20
0.0
 30
0.0
  9
$PUCSXDIR
 10
1.0
 20
0.0
 30
0.0
  9
$PUCSYDIR
 10
0.0
 20
1.0
 30
0.0
  9
$PUCSORTHOREF
  2

  9
$PUCSORTHOVIEW
 70
0
  9
$PUCSORGTOP
 10
0.0
 20
0.0
 30
0.0
  9
$PUCSORGBOTTOM
 10
0.0
 20
0.0
 30
0.0
  9
$PUCSORGLEFT
 10
0.0
 20
0.0
 30
0.0
  9
$PUCSORGRIGHT
 10
0.0
 20
0.0
 30
0.0
  9
$PUCSORGFRONT
 10
0.0
 20
0.0
 30
0.0
  9
$PUCSORGBACK
 10
0.0
 20
0.0
 30
0.0
  9
$USERI1
 70
0
  9
$USERI2
 70
0
  9
$USERI3
 70
0
  9
$USERI4
 70
0
  9
$USERI5
 70
0
  9
$USERR1
 40
0.0
  9
$USERR2
 40
0.0
  9
$USERR3
 40
0.0
  9
$USERR4
 40
0.0
  9
$USERR5
 40
0.0
  9
$WORLDVIEW
 70
1
  9
$SHADEDGE
 70
3
  9
$SHADEDIF
 70
70
  9
$TILEMODE
 70
1
  9
$MAXACTVP
 70
64
  9
$PINSBASE
 10
0.0
 20
0.0
 30
0.0
  9
$PLIMCHECK
 70
0
  9
$PEXTMIN
 10
1e+20
 20
1e+20
 30
1e+20
  9
$PEXTMAX
 10
-1e+20
 20
-1e+20
 30
-1e+20
  9
$PLIMMIN
 10
0.0
 20
0.0
  9
$PLIMMAX
 10
420.0
 20
297.0
  9
$UNITMODE
 70
0
  9
$VISRETAIN
 70
1
  9
$PLINEGEN
 70
0
  9
$PSLTSCALE
 70
1
  9
$TREEDEPTH
 70
3020
  9
$CMLSTYLE
  2
Standard
  9
$CMLJUST
 70
0
  9
$CMLSCALE
 40
20.0
  9
$PROXYGRAPHICS
 70
1
  9
$MEASUREMENT
 70
1
  9
$CELWEIGHT
370
-1
  9
$ENDCAPS
280
0
  9
$JOINSTYLE
280
0
  9
$LWDISPLAY
290
0
  9
$INSUNITS
 70
6
  9
$HYPERLINKBASE
  1

  9
$STYLESHEET
  1

  9
$XEDIT
290
1
  9
$CEPSNTYPE
380
0
  9
$PSTYLEMODE
290
1
  9
$FINGERPRINTGUID
  2
{A3888584-F78A-446C-99AE-35B89C3F0C81}
  9
$VERSIONGUID
  2
{46E27D58-8B8D-415E-8912-3A35C2A319A6}
  9
$EXTNAMES
290
1
  9
$PSVPSCALE
 40
0.0
  9
$OLESTARTUP
290
0
  9
$SORTENTS
280
127
  9
$INDEXCTL
280
0
  9
$HIDETEXT
280
1
  9
$XCLIPFRAME
280
1
  9
$HALOGAP
280
0
  9
$OBSCOLOR
 70
257
  9
$OBSLTYPE
280
0
  9
$INTERSECTIONDISPLAY
280
0
  9
$INTERSECTIONCOLOR
 70
257
  9
$DIMASSOC
280
2
  9
$PROJECTNAME
  1

  9
$CAMERADISPLAY
290
0
  9
$LENSLENGTH
 40
50.0
  9
$CAMERAHEIGHT
 40
0.0
  9
$STEPSPERSEC
 40
24.0
  9
$STEPSIZE
 40
100.0
  9
$3DDWFPREC
 40
2.0
  9
$PSOLWIDTH
 40
0.005
  9
$PSOLHEIGHT
 40
0.08
  9
$LOFTANG1
 40
1.570796326795
  9
$LOFTANG2
 40
1.570796326795
  9
$LOFTMAG1
 40
0.0
  9
$LOFTMAG2
 40
0.0
  9
$LOFTPARAM
 70
7
  9
$LOFTNORMALS
280
1
  9
$LATITUDE
 40
37.795
  9
$LONGITUDE
 40
-122.394
  9
$NORTHDIRECTION
 40
0.0
  9
$TIMEZONE
 70
-8000
  9
$LIGHTGLYPHDISPLAY
280
1
  9
$TILEMODELIGHTSYNCH
280
1
  9
$CMATERIAL
347
20
  9
$SOLIDHIST
280
0
  9
$SHOWHIST
280
1
  9
$DWFFRAME
280
2
  9
$DGNFRAME
280
2
  9
$REALWORLDSCALE
290
1
  9
$INTERFERECOLOR
 62
256
  9
$CSHADOW
280
0
  9
$SHADOWPLANELOCATION
 40
0.0
  0
ENDSEC
  0
SECTION
  2
CLASSES
  0
CLASS
  1
ACDBDICTIONARYWDFLT
  2
AcDbDictionaryWithDefault
  3
ObjectDBX Classes
 90
0
 91
0
280
0
281
0
  0
CLASS
  1
SUN
  2
AcDbSun
  3
SCENEOE
 90
1153
 91
0
280
0
281
0
  0
CLASS
  1
VISUALSTYLE
  2
AcDbVisualStyle
  3
ObjectDBX Classes
 90
4095
 91
0
280
0
281
0
  0
CLASS
  1
MATERIAL
  2
AcDbMaterial
  3
ObjectDBX Classes
 90
1153
 91
0
280
0
281
0
  0
CLASS
  1
SCALE
  2
AcDbScale
  3
ObjectDBX Classes
 90
1153
 91
0
280
0
281
0
  0
CLASS
  1
TABLESTYLE
  2
AcDbTableStyle
  3
ObjectDBX Classes
 90
4095
 91
0
280
0
281
0
  0
CLASS
  1
MLEADERSTYLE
  2
AcDbMLeaderStyle
  3
ACDB_MLEADERSTYLE_CLASS
 90
4095
 91
0
280
0
281
0
  0
CLASS
  1
DICTIONARYVAR
  2
AcDbDictionaryVar
  3
ObjectDBX Classes
 90
0
 91
0
280
0
281
0
  0
CLASS
  1
CELLSTYLEMAP
  2
AcDbCellStyleMap
  3
ObjectDBX Classes
 90
1152
 91
0
280
0
281
0
  0
CLASS
  1
MENTALRAYRENDERSETTINGS
  2
AcDbMentalRayRenderSettings
  3
SCENEOE
 90
1024
 91
0
280
0
281
0
  0
CLASS
  1
ACDBDETAILVIEWSTYLE
  2
AcDbDetailViewStyle
  3
ObjectDBX Classes
 90
1025
 91
0
280
0
281
0
  0
CLASS
  1
ACDBSECTIONVIEWSTYLE
  2
AcDbSectionViewStyle
  3
ObjectDBX Classes
 90
1025
 91
0
280
0
281
0
  0
CLASS
  1
RASTERVARIABLES
  2
AcDbRasterVariables
  3
ISM
 90
0
 91
0
280
0
281
0
  0
CLASS
  1
ACDBPLACEHOLDER
  2
AcDbPlaceHolder
  3
ObjectDBX Classes
 90
0
 91
0
280
0
281
0
  0
CLASS
  1
LAYOUT
  2
AcDbLayout
  3
ObjectDBX Classes
 90
0
 91
0
280
0
281
0
  0
ENDSEC
  0
SECTION
  2
TABLES
  0
TABLE
  2
VPORT
  5
8
330
0
100
AcDbSymbolTable
 70
1
  0
VPORT
  5
23
330
8
100
AcDbSymbolTableRecord
100
AcDbViewportTableRecord
  2
*Active
 70
0
 10
0.0
 20
0.0
 11
1.0
 21
1.0
 12
0.0
 22
0.0
 13
0.0
 23
0.0
 14
0.5
 24
0.5
 15
0.5
 25
0.5
 16
0.0
 26
0.0
 36
1.0
 17
0.0
 27
0.0
 37
0.0
 40
1000.0
 41
1.34
 42
50.0
 43
0.0
 44
0.0
 50
0.0
 51
0.0
 71
0
 72
1000
 73
1
 74
3
 75
0
 76
0
 77
0
 78
0
281
0
 65
0
146
0.0
  0
ENDTAB
  0
TABLE
  2
LTYPE
  5
2
330
0
100
AcDbSymbolTable
 70
3
  0
LTYPE
  5
24
330
2
100
AcDbSymbolTableRecord
100
AcDbLinetypeTableRecord
  2
ByBlock
 70
0
  3

 72
65
 73
0
 40
0.0
  0
LTYPE
  5
25
330
2
100
AcDbSymbolTableRecord
100
AcDbLinetypeTableRecord
  2
ByLayer
 70
0
  3

 72
65
 73
0
 40
0.0
  0
LTYPE
  5
26
330
2
100
AcDbSymbolTableRecord
100
AcDbLinetypeTableRecord
  2
Continuous
 70
0
  3

 72
65
 73
0
 40
0.0
  0
ENDTAB
  0
TABLE
  2
LAYER
  5
1
330
0
100
AcDbSymbolTable
 70
2
  0
LAYER
  5
27
330
1
100
AcDbSymbolTableRecord
100
AcDbLayerTableRecord
  2
0
 70
0
 62
7
  6
Continuous
370
-3
390
13
347
21
  0
LAYER
  5
28
330
1
100
AcDbSymbolTableRecord
100
AcDbLayerTableRecord
  2
Defpoints
 70
0
 62
7
  6
Continuous
290
0
370
-3
390
13
347
21
  0
ENDTAB
  0
TABLE
  2
STYLE
  5
5
330
0
100
AcDbSymbolTable
 70
1
  0
STYLE
  5
29
330
5
100
AcDbSymbolTableRecord
100
AcDbTextStyleTableRecord
  2
Standard
 70
0
 40
0.0
 41
1.0
 50
0.0
 71
0
 42
2.5
  3
txt
  4

  0
ENDTAB
  0
TABLE
  2
VIEW
  5
7
330
0
100
AcDbSymbolTable
 70
0
  0
ENDTAB
  0
TABLE
  2
UCS
  5
6
330
0
100
AcDbSymbolTable
 70
0
  0
ENDTAB
  0
TABLE
  2
APPID
  5
3
330
0
100
AcDbSymbolTable
 70
3
  0
APPID
  5
2A
330
3
100
AcDbSymbolTableRecord
100
AcDbRegAppTableRecord
  2
ACAD
 70
0
  0
APPID
  5
32
330
3
100
AcDbSymbolTableRecord
100
AcDbRegAppTableRecord
  2
HATCHBACKGROUNDCOLOR
 70
0
  0
APPID
  5
33
330
3
100
AcDbSymbolTableRecord
100
AcDbRegAppTableRecord
  2
EZDXF
 70
0
  0
ENDTAB
  0
TABLE
  2
DIMSTYLE
  5
4
330
0
100
AcDbSymbolTable
 70
1
100
AcDbDimStyleTable
  0
DIMSTYLE
105
2B
330
4
100
AcDbSymbolTableRecord
100
AcDbDimStyleTableRecord
  2
Standard
 70
0
 40
1.0
 41
2.5
 42
0.625
 43
3.75
 44
1.25
 45
0.0
 46
0.0
 47
0.0
 48
0.0
 49
2.5
140
2.5
141
2.5
142
0.0
143
0.03937007874
144
1.0
145
0.0
146
1.0
147
0.625
148
0.0
 69
0
 70
0
 71
0
 72
0
 73
0
 74
0
 75
0
 76
0
 77
1
 78
8
 79
3
170
0
171
3
172
1
173
0
174
0
175
0
176
0
177
0
178
0
179
2
271
2
272
2
273
2
274
3
275
0
276
0
277
2
278
44
279
0
280
0
281
0
282
0
283
0
284
8
285
0
286
0
288
0
289
3
290
0
371
-2
372
-2
  0
ENDTAB
  0
TABLE
  2
BLOCK_RECORD
  5
9
330
0
100
AcDbSymbolTable
 70
2
  0
BLOCK_RECORD
  5
17
330
9
100
AcDbSymbolTableRecord
100
AcDbBlockTableRecord
  2
*Model_Space
340
1A
 70
0
280
1
281
0
  0
BLOCK_RECORD
  5
1B
330
9
100
AcDbSymbolTableRecord
100
AcDbBlockTableRecord
  2
*Paper_Space
340
1E
 70
0
280
1
281
0
  0
ENDTAB
  0
ENDSEC
  0
SECTION
  2
BLOCKS
  0
BLOCK
  5
18
330
17
100
AcDbEntity
  8
0
100
AcDbBlockBegin
  2
*Model_Space
 70
0
 10
0.0
 20
0.0
 30
0.0
  3
*Model_Space
  1

  0
ENDBLK
  5
19
330
17
100
AcDbEntity
  8
0
100
AcDbBlockEnd
  0
BLOCK
  5
1C
330
1B
100
AcDbEntity
  8
0
100
AcDbBlockBegin
  2
*Paper_Space
 70
0
 10
0.0
 20
0.0
 30
0.0
  3
*Paper_Space
  1

  0
ENDBLK
  5
1D
330
1B
100
AcDbEntity
  8
0
100
AcDbBlockEnd
  0
ENDSEC
  0
SECTION
  2
ENTITIES
  0
LWPOLYLINE
  5
2F
330
17
100
AcDbEntity
  8
0
100
AcDbPolyline
 90
500
 70
1
 10
18.0
 20
0.0
 10
18.398547213350216
 20
0.23121513385368797
 10
18.79406275852604
 20
0.47244579433474465
 10
19.18635787469931
 20
0.7236515072627432
 10
19.575244349477945
 20
0.9847886363234833
 10
19.960534568565432
 20
1.2558103905862674
 10
20.342041565316524
 20
1.5366668327698274
 10
20.71957907017799
 20
1.8273048882554581
 10
21.092961560003562
 20
2.127668354845756
 10
21.46200430723218
 20
2.4376979132672045
 10
17.858064623660603
 20
2.2559982041574766
 10
18.22449023281838
 20
2.5353413485973406
 10
18.586652801072784
 20
2.824241075470233
 10
18.944370128791064
 20
3.1226335717417646
 10
19.297460956772426
 20
3.430451955915411
 10
19.645745014573773
 20
3.7476262917144925
 10
19.989043068638633
 20
4.074083602493903
 10
20.327176970218424
 20
4.409747886378736
 10
20.659969703075433
 20
4.7545401321268805
 10
20.98724543095696
 20
5.108378335712454
 10
17.43449690031536
 20
4.476417968967386
 10
17.763022154532237
 20
4.7994837157341035
 10
18.086120225818416
 20
5.131496387725714
 10
18.403618349133616
 20
5.472369839423541
 10
18.715345077034204
 20
5.822014998909885
 10
19.02113032590307
 20
6.180339887498948
 10
19.320805421892782
 20
6.547249640067073
 10
19.61420314657158
 20
6.922646526078123
 10
19.901157782262132
 20
7.306429971299763
 10
20.18150515706282
 20
7.698496580206217
 10
16.735976745988523
 20
6.626241948324203
 10
17.021420605754027
 20
6.98793535760114
 10
17.300358730478365
 20
7.357824936539406
 10
17.572630514321617
 20
7.735803565702322
 10
17.838077025425918
 20
8.12176138746837
 10
18.096541049320393
 20
8.515585831301454
 10
18.34786713195397
 20
8.91716163967903
 10
18.59190162234629
 20
9.32637089467267
 10
18.828492714847144
 20
9.743093045175543
 10
19.057490490994994
 20
10.167204934771185
 10
15.773520240789548
 20
8.671566133830877
 10
16.011381085919275
 20
9.066183084488566
 10
16.241760243225304
 20
9.468116190752303
 10
16.46451179891812
 20
9.877239048604922
 10
16.67949184317596
 20
10.293422747241397
 10
16.886558510040302
 20
10.716535899579933
 10
17.08557201685969
 20
11.14644467337909
 10
17.276394703272903
 20
11.58301282295431
 10
17.45889106972266
 20
12.026101721487239
 10
17.632927815491175
 20
12.475570393920979
 10
14.562305898749054
 20
10.580134541264517
 10
14.748832521624129
 20
11.001451688258346
 10
14.927019494579305
 20
11.429089596658581
 10
15.096737897023083
 20
11.862904571334418
 10
15.25786111071366
 20
12.302750681297734
 10
15.410264855515786
 20
12.748479794973797
 10
15.553827224633542
 20
13.199941616016668
 10
15.68842871931096
 20
13.656983719661497
 10
15.813952282992663
 20
14.119451589606138
 10
15.930283334936558
 20
14.58718865541413
 10
13.121435293585408
 20
12.321847906716396
 10
13.253686057937488
 20
12.763220826955612
 10
13.376870731534565
 20
13.209819432218366
 10
13.490879420137906
 20
13.661485002418281
 10
13.595604793930978
 20
14.118056887802977
 10
13.690942118573775
 20
14.579372548428234
 10
13.776789285668896
 20
15.045267594106747
 10
13.853046842632432
 20
15.515575824822989
 10
13.919618021962675
 20
15.990129271605399
 10
13.976408769899999
 20
16.468758237847275
 10
11.473631815476416
 20
13.869238369964206
 10
11.54952104774889
 20
14.323706348833234
 10
11.615760726098285
 20
14.782222524168436
 10
11.672261715736425
 20
15.244615654038439
 10
11.718937667927372
 20
15.710712903469181
 10
11.755705045849462
 20
16.180339887498953
 10
11.782483149814261
 20
16.65332071463056
 10
11.799194141836534
 20
17.12947803067129
 10
11.805763069549586
 20
17.60863306295123
 10
11.802117889460211
 20
18.090605664910264
 10
9.64488230962194
 20
15.197902659036274
 10
9.66321319128784
 20
15.658298465022328
 10
9.671463235092324
 20
16.121501136440667
 10
9.669565471406608
 20
16.587329610102437
 10
9.657455894346516
 20
17.055601591522706
 10
9.635073482034304
 20
17.52613360087727
 10
9.602360216172782
 20
17.998741019273044
 10
9.55926110092695
 20
18.473238135321733
 10
9.505724181108683
 20
18.94943819200679
 10
9.441700559660152
 20
19.427153433833624
 10
7.664027248171308
 20
16.286886944388353
 10
7.624510690276429
 20
16.74594986060393
 10
7.574640991416859
 20
17.20653404527325
 10
7.514374403274285
 20
17.668451469424713
 10
7.443670272227302
 20
18.13151325395538
 10
7.362491053693558
 20
18.595529717765032
 10
7.2708023257503145
 20
19.060310426114885
 10
7.168572802029954
 20
19.52566423920058
 10
7.055774343887317
 20
19.991399360928725
 10
6.932381971835724
 20
20.45732338788648
 10
5.562305898749054
 20
17.119017293312762
 10
5.465565101017442
 20
17.569507623338232
 10
5.358362134435551
 20
18.02020963352666
 10
5.240677161932645
 20
18.470931294452857
 10
5.112493523281982
 20
18.92148012113217
 10
4.973797743297095
 20
19.371663222572625
 10
4.824579539283984
 20
19.821287351459343
 10
4.66483182774713
 20
20.270158953960813
 10
4.494550730347558
 20
20.71808421964571
 10
4.313735579111191
 20
21.164869131499735
 10
3.372863662543042
 20
17.6811705131164
 10
3.2204242851450786
 20
18.11598375533738
 10
3.057578705663811
 20
18.549695751107926
 10
2.8843313111185362
 20
18.98211349896795
 10
2.700689697418905
 20
19.41304394365437
 10
2.5066646712860847
 20
19.842294026289554
 10
2.3022702514190256
 20
20.26967073460818
 10
2.0875236689052703
 20
20.694981153211046
 10
1.862445366875754
 20
21.11803251383526
 10
1.6270589994033473
 20
21.53863224562926
 10
1.1302293515276394
 20
17.96448111170889
 10
0.9244954545077607
 20
18.376760001550725
 10
0.7085754341947682
 20
18.78664208564308
 10
0.48249783251208056
 20
19.193936434239358
 10
0.24629438171371007
 20
19.598452466394797
 10
1.2246467991473535e-15
 20
20.000000000000004
 10
-0.2563472136203942
 20
20.398389301757856
 10
-0.522705985221418
 20
20.793431137092636
 10
-0.799031872602613
 20
21.18493681998049
 10
-1.0852772726830255
 20
21.57271826268998
 10
-1.1302293515276414
 20
17.964481111708892
 10
-1.386013221713965
 20
18.3477237647953
 10
-1.651602495153972
 20
18.727311851891645
 10
-1.9269449251433284
 20
19.103059526040965
 10
-2.211985143520242
 20
19.47478168619217
 10
-2.5066646712860883
 20
19.84229402628956
 10
-2.810921929966616
 20
20.20541308421168
 10
-3.124692253711749
 20
20.56395629054861
 10
-3.4479079021315324
 20
20.917742017206805
 10
-3.7804980738659664
 20
21.266589625830843
 10
-3.372863662543043
 20
17.681170513116395
 10
-3.674663641465091
 20
18.029332963870143
 10
-3.9857336665346272
 20
18.372640723082043
 10
-4.305998610228121
 20
18.710915957502287
 10
-4.6353803416650035
 20
19.04398196512761
 10
-4.973797743297098
 20
19.371663222572625
 10
-5.321166728313898
 20
19.693785432198794
 10
-5.677400258760368
 20
20.010175568990594
 10
-6.042408364363492
 20
20.32066192716837
 10
-6.416098162063956
 20
20.62507416652749
 10
-5.562305898749057
 20
17.119017293312766
 10
-5.905362420452658
 20
17.4266088119033
 10
-6.257007437032154
 20
17.728222074785858
 10
-6.617144124950729
 20
18.023690066954384
 10
-6.985672822779717
 20
18.3128472721496
 10
-7.362491053693562
 20
18.595529717765036
 10
-7.747493548644749
 20
18.871575019422952
 10
-8.140572270213811
 20
19.140822425210104
 10
-8.541616437129651
 20
19.403112859563453
 10
-8.950512549454936
 20
19.658288966795904
 10
-7.664027248171314
 20
16.28688694438836
 10
-8.042930106377174
 20
16.549056628821237
 10
-8.429604462492602
 20
16.804218774043758
 10
-8.823933323932566
 20
17.052219817220056
 10
-9.225797070440523
 20
17.29290803812509
 10
-9.635073482034313
 20
17.52613360087728
 10
-10.051637767585143
 20
17.75174859525832
 10
-10.475362594023823
 20
17.969607077610974
 10
-10.906118116167939
 20
18.179565111305426
 10
-11.343772007163997
 20
18.381480806765353
 10
-11.78818948953792
 20
18.57521436104433
 10
-10.053655979910548
 20
15.410515936775408
 10
-10.469261589977936
 20
15.61520290488128
 10
-10.891563823233733
 20
15.811825874465812
 10
-11.320424987076455
 20
16.000249314056813
 10
-11.755705045849458
 20
16.180339887498945
 10
-12.197261654373385
 20
16.35196649136588
 10
-12.644950192047794
 20
16.515000291874973
 10
-13.098623797515101
 20
16.66931476129633
 10
-13.558133403879125
 20
16.814785713847705
 10
-11.473631815476416
 20
13.869238369964206
 10
-11.905829692877779
 20
14.02894220261064
 10
-12.343812208155594
 20
14.17992595783876
 10
-12.78742785473763
 20
14.322069992144298
 10
-13.236523039172079
 20
14.45525710022021
 10
-13.690942118573776
 20
14.579372548428232
 10
-14.150527438581227
 20
14.6943041077133
 10
-14.615119371816059
 20
14.799942085953136
 10
-15.084556356836849
 20
14.896179359735603
 10
-15.558674937578791
 20
14.982911405556587
 10
-13.121435293585412
 20
12.321847906716396
 10
-13.570241359390398
 20
12.426123669426852
 10
-14.023693533974624
 20
12.521023107763932
 10
-14.481626510133196
 20
12.606446510456765
 10
-14.943873215824384
 20
12.68229684676111
 10
-15.410264855515793
 20
12.748479794973795
 10
-15.880630951967275
 20
12.804903770330291
 10
-16.354799388441673
 20
12.851479952278954
 10
-16.832596451334112
 20
12.888122311125633
 10
-17.313846873210945
 20
12.91474763404241
 10
-14.562305898749052
 20
10.580134541264519
 10
-15.020642213196187
 20
10.627337742969726
 10
-15.48241283541444
 20
10.664656243583023
 10
-15.947441264559611
 20
10.69201183657321
 10
-16.415549584825968
 20
10.709329195991671
 10
-16.88655851004031
 20
10.716535899579938
 10
-17.360287428611727
 20
10.713562451210437
 10
-17.836554448827982
 20
10.700342302655338
 10
-18.315176444488106
 20
10.676811874678132
 10
-18.795969100861758
 20
10.642910577443098
 10
-15.773520240789548
 20
8.671566133830876
 10
-16.23415856640315
 20
8.660952351842118
 10
-16.696965237694627
 20
8.64010137968397
 10
-17.161755343704257
 20
8.608957748928617
 10
-17.628342930700885
 20
8.567469026358289
 10
-18.096541049320404
 20
8.515585831301456
 10
-18.56616180197393
 20
8.453261852263
 10
-19.037016390515085
 20
8.380453862844185
 10
-19.508915164156456
 20
8.297121736948691
 10
-19.9816676676243
 20
8.203228463270905
 10
-16.735976745988538
 20
6.626241948324203
 10
-17.191652541201652
 20
6.557978568323811
 10
-17.64819652389283
 20
6.479286955680919
 10
-18.105418289143014
 20
6.390135254841347
 10
-18.563126777897008
 20
6.290494752221307
 10
-19.021130325903073
 20
6.180339887498951
 10
-19.479236712831522
 20
6.059648264171514
 10
-19.937253211561426
 20
5.928400659375504
 10
-20.39498663762503
 20
5.786581032967294
 10
-20.85224339879871
 20
5.634176535861775
 10
-21.30882954482988
 20
5.471177517626805
 10
-17.87802388563
 20
4.351581545236532
 10
-18.32110520838767
 20
4.216290305848367
 10
-18.76354797250932
 20
4.0705365105034526
 10
-19.205159026731245
 20
3.9143156180823793
 10
-19.64574501457378
 20
3.747626291714493
 10
-20.0851124243958
 20
3.570470403095629
 10
-20.523067639523667
 20
3.382853036053575
 10
-20.95941698844377
 20
3.1847824893600505
 10
-21.393966795047664
 20
2.976270278788181
 10
-17.858064623660603
 20
2.2559982041574735
 10
-18.282448113568176
 20
2.0765574816720607
 10
-18.70507911924845
 20
1.886800239202842
 10
-19.12576529554892
 20
1.6867429737742692
 10
-19.544314445108043
 20
1.4764053883474795
 10
-19.960534568565443
 20
1.2558103905862634
 10
-20.37423391476275
 20
1.024984090867301
 10
-20.78522103092425
 20
0.7839557995346382
 10
-21.19330481280596
 20
0.5327580233987522
 10
-21.59829455480243
 20
0.2714264614804117
 10
-18.000000000000004
 20
2.2043642384652362e-15
 10
-18.398547213350223
 20
-0.23121513385368775
 10
-18.794062758526046
 20
-0.4724457943347465
 10
-19.186357874699322
 20
-0.7236515072627473
 10
-19.575244349477938
 20
-0.9847886363234803
 10
-19.96053456856543
 20
-1.2558103905862668
 10
-20.342041565316524
 20
-1.5366668327698287
 10
-20.71957907017799
 20
-1.8273048882554617
 10
-21.092961560003566
 20
-2.127668354845762
 10
-21.46200430723219
 20
-2.4376979132672045
 10
-17.858064623660614
 20
-2.2559982041574784
 10
-18.224490232818393
 20
-2.535341348597345
 10
-18.5866528010728
 20
-2.8242410754702396
 10
-18.944370128791064
 20
-3.1226335717417637
 10
-19.297460956772426
 20
-3.430451955915412
 10
-19.645745014573777
 20
-3.747626291714496
 10
-19.98904306863864
 20
-4.074083602493909
 10
-20.32717697021843
 20
-4.409747886378736
 10
-20.659969703075443
 20
-4.754540132126883
 10
-20.987245430956968
 20
-5.108378335712458
 10
-17.434496900315374
 20
-4.476417968967394
 10
-17.763022154532237
 20
-4.799483715734102
 10
-18.086120225818416
 20
-5.131496387725714
 10
-18.40361834913362
 20
-5.4723698394235445
 10
-18.715345077034208
 20
-5.822014998909889
 10
-19.02113032590308
 20
-6.180339887498948
 10
-19.320805421892793
 20
-6.5472496400670765
 10
-19.61420314657159
 20
-6.922646526078128
 10
-19.901157782262143
 20
-7.30642997129977
 10
-20.181505157062833
 20
-7.698496580206227
 10
-16.735976745988527
 20
-6.6262419483242025
 10
-17.02142060575403
 20
-6.987935357601143
 10
-17.300358730478365
 20
-7.35782493653941
 10
-17.57263051432162
 20
-7.735803565702331
 10
-17.83807702542592
 20
-8.121761387468371
 10
-18.0965410493204
 20
-8.515585831301458
 10
-18.34786713195398
 20
-8.91716163967904
 10
-18.5919016223463
 20
-9.326370894672682
 10
-18.828492714847144
 20
-9.74309304517554
 10
-19.057490490994994
 20
-10.167204934771185
 10
-15.773520240789548
 20
-8.67156613383088
 10
-16.011381085919275
 20
-9.066183084488571
 10
-16.24176024322531
 20
-9.468116190752305
 10
-16.46451179891813
 20
-9.877239048604928
 10
-16.67949184317597
 20
-10.293422747241404
 10
-16.886558510040313
 20
-10.716535899579943
 10
-17.08557201685969
 20
-11.146444673379087
 10
-17.276394703272903
 20
-11.58301282295431
 10
-17.45889106972266
 20
-12.02610172148724
 10
-17.63292781549118
 20
-12.475570393920988
 10
-14.56230589874906
 20
-10.580134541264528
 10
-14.74883252162414
 20
-11.001451688258355
 10
-14.927019494579316
 20
-11.429089596658592
 10
-15.096737897023095
 20
-11.862904571334433
 10
-15.25786111071367
 20
-12.302750681297745
 10
-15.410264855515788
 20
-12.748479794973795
 10
-15.553827224633542
 20
-13.199941616016668
 10
-15.688428719310965
 20
-13.6569837196615
 10
-15.813952282992666
 20
-14.119451589606145
 10
-15.930283334936552
 20
-14.587188655414122
 10
-13.121435293585419
 20
-12.321847906716407
 10
-13.253686057937497
 20
-12.763220826955624
 10
-13.376870731534574
 20
-13.20981943221838
 10
-13.490879420137908
 20
-13.661485002418278
 10
-13.59560479393098
 20
-14.118056887802979
 10
-13.690942118573776
 20
-14.579372548428235
 10
-13.776789285668901
 20
-15.045267594106758
 10
-13.85304684263243
 20
-15.515575824822983
 10
-13.919618021962673
 20
-15.990129271605397
 10
-13.976408769900006
 20
-16.468758237847286
 10
-11.473631815476423
 20
-13.869238369964222
 10
-11.549521047748897
 20
-14.32370634883325
 10
-11.615760726098292
 20
-14.782222524168457
 10
-11.672261715736429
 20
-15.244615654038462
 10
-11.718937667927367
 20
-15.71071290346917
 10
-11.75570504584946
 20
-16.180339887498942
 10
-11.782483149814256
 20
-16.65332071463055
 10
-11.799194141836532
 20
-17.12947803067129
 10
-11.805763069549592
 20
-17.60863306295124
 10
-11.802117889460218
 20
-18.09060566491028
 10
-9.644882309621945
 20
-15.197902659036293
 10
-9.663213191287845
 20
-15.658298465022353
 10
-9.671463235092322
 20
-16.12150113644065
 10
-9.669565471406608
 20
-16.58732961010243
 10
-9.657455894346512
 20
-17.055601591522695
 10
-9.635073482034304
 20
-17.52613360087727
 10
-9.602360216172782
 20
-17.998741019273048
 10
-9.559261100926951
 20
-18.473238135321743
 10
-9.505724181108688
 20
-18.949438192006816
 10
-9.441700559660154
 20
-19.42715343383364
 10
-9.367144414431602
 20
-19.90619515425242
 10
-7.624510690276429
 20
-16.74594986060391
 10
-7.574640991416859
 20
-17.206534045273248
 10
-7.514374403274286
 20
-17.66845146942471
 10
-7.443670272227301
 20
-18.13151325395538
 10
-7.3624910536935575
 20
-18.595529717765032
 10
-7.270802325750317
 20
-19.06031042611491
 10
-7.1685728020299555
 20
-19.52566423920061
 10
-7.055774343887316
 20
-19.991399360928757
 10
-6.932381971835729
 20
-20.45732338788647
 10
-6.798373876248846
 20
-20.923243358493373
 10
-5.465565101017443
 20
-17.56950762333823
 10
-5.358362134435551
 20
-18.02020963352667
 10
-5.240677161932643
 20
-18.470931294452853
 10
-5.112493523281976
 20
-18.921480121132173
 10
-4.973797743297095
 20
-19.371663222572646
 10
-4.824579539283981
 20
-19.82128735145938
 10
-4.6648318277471335
 20
-20.2701589539608
 10
-4.494550730347562
 20
-20.718084219645696
 10
-4.313735579111193
 20
-21.16486913149973
 10
-3.3728636625430433
 20
-17.681170513116395
 10
-3.2204242851450777
 20
-18.115983755337382
 10
-3.057578705663808
 20
-18.549695751107926
 10
-2.88433131111853
 20
-18.982113498967955
 10
-2.7006896974189014
 20
-19.41304394365439
 10
-2.506664671286078
 20
-19.842294026289586
 10
-2.302270251419031
 20
-20.269670734608166
 10
-2.0875236689052725
 20
-20.694981153211042
 10
-1.862445366875756
 20
-21.118032513835256
 10
-1.6270589994033453
 20
-21.538632245629262
 10
-1.130229351527638
 20
-17.964481111708892
 10
-0.924495454507755
 20
-18.37676000155073
 10
-0.7085754341947623
 20
-18.786642085643088
 10
-0.48249783251207096
 20
-19.193936434239394
 10
-0.2462943817137167
 20
-19.59845246639479
 10
-3.673940397442058e-15
 20
-19.999999999999996
 10
0.2563472136203916
 20
-20.39838930175785
 10
0.5227059852214202
 20
-20.79343113709264
 10
0.7990318726026152
 20
-21.184936819980493
 10
1.0852772726830282
 20
-21.572718262689985
 10
1.1302293515276476
 20
-17.9644811117089
 10
1.3860132217139716
 20
-18.347723764795308
 10
1.6516024951539652
 20
-18.727311851891642
 10
1.9269449251433217
 20
-19.103059526040962
 10
2.211985143520239
 20
-19.474781686192166
 10
2.506664671286085
 20
-19.84229402628956
 10
2.8109219299666193
 20
-20.20541308421169
 10
3.124692253711752
 20
-20.563956290548617
 10
3.4479079021315404
 20
-20.917742017206812
 10
3.7804980738659735
 20
-21.266589625830846
 10
3.372863662543055
 20
-17.68117051311641
 10
3.674663641465084
 20
-18.029332963870143
 10
3.9857336665346246
 20
-18.37264072308204
 10
4.3059986102281185
 20
-18.710915957502284
 10
4.635380341665006
 20
-19.043981965127614
 10
4.973797743297101
 20
-19.37166322257263
 10
5.321166728313904
 20
-19.693785432198794
 10
5.677400258760375
 20
-20.010175568990597
 10
6.042408364363508
 20
-20.320661927168377
 10
6.416098162063948
 20
-20.625074166527487
 10
5.562305898749051
 20
-17.119017293312766
 10
5.905362420452654
 20
-17.426608811903296
 10
6.257007437032151
 20
-17.728222074785855
 10
6.617144124950732
 20
-18.023690066954387
 10
6.985672822779721
 20
-18.3128472721496
 10
7.362491053693569
 20
-18.595529717765036
 10
7.747493548644756
 20
-18.871575019422952
 10
8.140572270213827
 20
-19.140822425210114
 10
8.541616437129637
 20
-19.403112859563436
 10
8.950512549454936
 20
-19.65828896679591
 10
7.664027248171316
 20
-16.28688694438837
 10
8.04293010637717
 20
-16.54905662882123
 10
8.429604462492621
 20
-16.80421877404378
 10
8.823933323932577
 20
-17.05221981722006
 10
9.225797070440539
 20
-17.292908038125105
 10
9.63507348203432
 20
-17.52613360087728
 10
10.051637767585143
 20
-17.751748595258324
 10
10.475362594023814
 20
-17.969607077610963
 10
10.906118116167937
 20
-18.179565111305433
 10
11.343772007164
 20
-18.381480806765367
 10
9.644882309621947
 20
-15.197902659036279
 10
10.053655979910573
 20
-15.41051593677543
 10
10.469261589977949
 20
-15.615202904881286
 10
10.891563823233751
 20
-15.81182587446583
 10
11.320424987076427
 20
-16.000249314056795
 10
11.75570504584946
 20
-16.180339887498953
 10
12.197261654373376
 20
-16.351966491365875
 10
12.644950192047796
 20
-16.515000291874983
 10
13.098623797515106
 20
-16.66931476129634
 10
13.558133403879143
 20
-16.814785713847712
 10
11.47363181547644
 20
-13.869238369964227
 10
11.905829692877793
 20
-14.028942202610647
 10
12.343812208155613
 20
-14.179925957838773
 10
12.787427854737619
 20
-14.32206999214429
 10
13.23652303917208
 20
-14.455257100220216
 10
13.690942118573766
 20
-14.579372548428223
 10
14.150527438581229
 20
-14.694304107713306
 10
14.615119371816085
 20
-14.799942085953154
 10
15.084556356836863
 20
-14.896179359735608
 10
15.558674937578818
 20
-14.982911405556605
 10
13.121435293585426
 20
-12.321847906716402
 10
13.570241359390398
 20
-12.426123669426854
 10
14.023693533974612
 20
-12.521023107763925
 10
14.481626510133196
 20
-12.60644651045677
 10
14.943873215824372
 20
-12.682296846761103
 10
15.410264855515795
 20
-12.7484797949738
 10
15.880630951967305
 20
-12.804903770330304
 10
16.35479938844169
 20
-12.85147995227896
 10
16.832596451334144
 20
-12.888122311125649
 10
17.31384687321096
 20
-12.914747634042408
 10
14.562305898749054
 20
-10.580134541264522
 10
15.020642213196172
 20
-10.62733774296972
 10
15.482412835414442
 20
-10.664656243583027
 10
15.947441264559597
 20
-10.692011836573204
 10
16.415549584825992
 20
-10.709329195991677
 10
16.886558510040334
 20
-10.716535899579945
 10
17.360287428611734
 20
-10.713562451210436
 10
17.836554448828007
 20
-10.700342302655345
 10
18.315176444488092
 20
-10.676811874678126
 10
18.79596910086176
 20
-10.642910577443104
 10
19.27874696096499
 20
-10.598580830237733
 10
16.234158566403153
 20
-8.660952351842125
 10
16.696965237694634
 20
-8.640101379683967
 10
17.161755343704282
 20
-8.608957748928622
 10
17.62834293070091
 20
-8.567469026358294
 10
18.096541049320415
 20
-8.515585831301454
 10
18.566161801973916
 20
-8.453261852263005
 10
19.037016390515074
 20
-8.380453862844183
 10
19.50891516415646
 20
-8.297121736948696
 10
19.98166766762429
 20
-8.203228463270902
 10
16.73597674598854
 20
-6.626241948324207
 10
17.191652541201663
 20
-6.557978568323808
 10
17.648196523892853
 20
-6.479286955680921
 10
18.10541828914304
 20
-6.390135254841349
 10
18.56312677789701
 20
-6.290494752221304
 10
19.021130325903076
 20
-6.180339887498955
 10
19.479236712831508
 20
-6.059648264171512
 10
19.93725321156143
 20
-5.928400659375508
 10
20.394986637625017
 20
-5.786581032967292
 10
20.85224339879873
 20
-5.634176535861775
 10
17.434496900315363
 20
-4.476417968967381
 10
17.87802388563002
 20
-4.351581545236532
 10
18.321105208387692
 20
-4.216290305848366
 10
18.7635479725093
 20
-4.070536510503452
 10
19.20515902673125
 20
-3.914315618082383
 10
19.645745014573766
 20
-3.7476262917144925
 10
20.085112424395803
 20
-3.5704704030956327
 10
20.523067639523656
 20
-3.382853036053575
 10
20.959416988443795
 20
-3.1847824893600465
 10
21.39396679504767
 20
-2.9762702787881743
 10
17.858064623660624
 20
-2.255998204157471
 10
18.282448113568197
 20
-2.076557481672057
 10
18.705079119248435
 20
-1.8868002392028427
 10
19.125765295548923
 20
-1.6867429737742718
 10
19.54431444510803
 20
-1.476405388347481
 10
19.960534568565446
 20
-1.255810390586266
 10
20.374233914762755
 20
-1.0249840908672945
 10
20.785221030924273
 20
-0.7839557995346323
 10
21.193304812805962
 20
-0.5327580233987456
 10
21.598294554802454
 20
-0.27142646148040506
  0
CIRCLE
  5
30
330
17
100
AcDbEntity
  8
0
100
AcDbCircle
 10
0.0
 20
0.0
 30
0.0
 40
2.875
  0
POINT
  5
31
330
17
100
AcDbEntity
  8
0
100
AcDbPoint
 10
0.0
 20
0.0
 30
0.0
  0
ENDSEC
  0
SECTION
  2
OBJECTS
  0
DICTIONARY
  5
A
330
0
100
AcDbDictionary
280
0
281
1
  3
ACAD_COLOR
350
B
  3
ACAD_GROUP
350
C
  3
ACAD_LAYOUT
350
D
  3
ACAD_MATERIAL
350
E
  3
ACAD_MLEADERSTYLE
350
F
  3
ACAD_MLINESTYLE
350
10
  3
ACAD_PLOTSETTINGS
350
11
  3
ACAD_PLOTSTYLENAME
350
12
  3
ACAD_SCALELIST
350
14
  3
ACAD_TABLESTYLE
350
15
  3
ACAD_VISUALSTYLE
350
16
  3
EZDXF_META
350
2D
  0
DICTIONARY
  5
B
330
A
100
AcDbDictionary
280
0
281
1
  0
DICTIONARY
  5
C
330
A
100
AcDbDictionary
280
0
281
1
  0
DICTIONARY
  5
D
330
A
100
AcDbDictionary
280
0
281
1
  3
Model
350
1A
  3
Layout1
350
1E
  0
DICTIONARY
  5
E
330
A
100
AcDbDictionary
280
0
281
1
  3
ByBlock
350
1F
  3
ByLayer
350
20
  3
Global
350
21
  0
DICTIONARY
  5
F
330
A
100
AcDbDictionary
280
0
281
1
  3
Standard
350
2C
  0
DICTIONARY
  5
10
330
A
100
AcDbDictionary
280
0
281
1
  3
Standard
350
22
  0
DICTIONARY
  5
11
330
A
100
AcDbDictionary
280
0
281
1
  0
ACDBDICTIONARYWDFLT
  5
12
330
A
100
AcDbDictionary
280
0
281
1
  3
Normal
350
13
100
AcDbDictionaryWithDefault
340
13
  0
ACDBPLACEHOLDER
  5
13
330
12
  0
DICTIONARY
  5
14
330
A
100
AcDbDictionary
280
0
281
1
  0
DICTIONARY
  5
15
330
A
100
AcDbDictionary
280
0
281
1
  0
DICTIONARY
  5
16
330
A
100
AcDbDictionary
280
0
281
1
  0
LAYOUT
  5
1A
330
D
100
AcDbPlotSettings
  1

  4
A3
  6

 40
7.5
 41
20.0
 42
7.5
 43
20.0
 44
420.0
 45
297.0
 46
0.0
 47
0.0
 48
0.0
 49
0.0
140
0.0
141
0.0
142
1.0
143
1.0
 70
1024
 72
1
 73
0
 74
5
  7

 75
16
 76
0
 77
2
 78
300
147
1.0
148
0.0
149
0.0
100
AcDbLayout
  1
Model
 70
1
 71
0
 10
0.0
 20
0.0
 11
420.0
 21
297.0
 12
0.0
 22
0.0
 32
0.0
 14
1e+20
 24
1e+20
 34
1e+20
 15
-1e+20
 25
-1e+20
 35
-1e+20
146
0.0
 13
0.0
 23
0.0
 33
0.0
 16
1.0
 26
0.0
 36
0.0
 17
0.0
 27
1.0
 37
0.0
 76
1
330
17
  0
LAYOUT
  5
1E
330
D
100
AcDbPlotSettings
  1

  4
A3
  6

 40
7.5
 41
20.0
 42
7.5
 43
20.0
 44
420.0
 45
297.0
 46
0.0
 47
0.0
 48
0.0
 49
0.0
140
0.0
141
0.0
142
1.0
143
1.0
 70
0
 72
1
 73
0
 74
5
  7

 75
16
 76
0
 77
2
 78
300
147
1.0
148
0.0
149
0.0
100
AcDbLayout
  1
Layout1
 70
1
 71
1
 10
0.0
 20
0.0
 11
420.0
 21
297.0
 12
0.0
 22
0.0
 32
0.0
 14
1e+20
 24
1e+20
 34
1e+20
 15
-1e+20
 25
-1e+20
 35
-1e+20
146
0.0
 13
0.0
 23
0.0
 33
0.0
 16
1.0
 26
0.0
 36
0.0
 17
0.0
 27
1.0
 37
0.0
 76
1
330
1B
  0
MATERIAL
  5
1F
102
{ACAD_REACTORS
330
E
102
}
330
E
100
AcDbMaterial
  1
ByBlock
  2

 70
0
 40
1.0
 71
1
 41
1.0
 91
-1023410177
 42
1.0
 72
1
  3

 73
1
 74
1
 75
1
 44
0.5
 73
0
 45
1.0
 46
1.0
 77
1
  4

 78
1
 79
1
170
1
 48
1.0
171
1
  6

172
1
173
1
174
1
140
1.0
141
1.0
175
1
  7

176
1
177
1
178
1
143
1.0
179
1
  8

270
1
271
1
272
1
145
1.0
146
1.0
273
1
  9

274
1
275
1
276
1
 42
1.0
 72
1
  3

 73
1
 74
1
 75
1
 94
63
  0
MATERIAL
  5
20
102
{ACAD_REACTORS
330
E
102
}
330
E
100
AcDbMaterial
  1
ByLayer
  2

 70
0
 40
1.0
 71
1
 41
1.0
 91
-1023410177
 42
1.0
 72
1
  3

 73
1
 74
1
 75
1
 44
0.5
 73
0
 45
1.0
 46
1.0
 77
1
  4

 78
1
 79
1
170
1
 48
1.0
171
1
  6

172
1
173
1
174
1
140
1.0
141
1.0
175
1
  7

176
1
177
1
178
1
143
1.0
179
1
  8

270
1
271
1
272
1
145
1.0
146
1.0
273
1
  9

274
1
275
1
276
1
 42
1.0
 72
1
  3

 73
1
 74
1
 75
1
 94
63
  0
MATERIAL
  5
21
102
{ACAD_REACTORS
330
E
102
}
330
E
100
AcDbMaterial
  1
Global
  2

 70
0
 40
1.0
 71
1
 41
1.0
 91
-1023410177
 42
1.0
 72
1
  3

 73
1
 74
1
 75
1
 44
0.5
 73
0
 45
1.0
 46
1.0
 77
1
  4

 78
1
 79
1
170
1
 48
1.0
171
1
  6

172
1
173
1
174
1
140
1.0
141
1.0
175
1
  7

176
1
177
1
178
1
143
1.0
179
1
  8

270
1
271
1
272
1
145
1.0
146
1.0
273
1
  9

274
1
275
1
276
1
 42
1.0
 72
1
  3

 73
1
 74
1
 75
1
 94
63
  0
MLINESTYLE
  5
22
102
{ACAD_REACTORS
330
10
102
}
330
10
100
AcDbMlineStyle
  2
Standard
 70
0
  3

 62
256
 51
90.0
 52
90.0
 71
2
 49
0.5
 62
256
  6
BYLAYER
 49
-0.5
 62
256
  6
BYLAYER
  0
MLEADERSTYLE
  5
2C
102
{ACAD_REACTORS
330
F
102
}
330
F
100
AcDbMLeaderStyle
179
2
170
2
171
1
172
0
 90
2
 40
0.0
 41
0.0
173
1
 91
-1056964608
 92
-2
290
1
 42
2.0
291
1
 43
8.0
  3
Standard
 44
4.0
300

342
29
174
1
175
1
176
0
178
1
 93
-1056964608
 45
4.0
292
0
297
0
 46
4.0
 94
-1056964608
 47
1.0
 49
1.0
140
1.0
294
1
141
0.0
177
0
142
1.0
295
0
296
0
143
3.75
271
0
272
9
273
9
  0
DICTIONARY
  5
2D
330
A
100
AcDbDictionary
281
1
  3
CREATED_BY_EZDXF
350
2E
  3
WRITTEN_BY_EZDXF
350
34
  0
DICTIONARYVAR
  5
2E
330
2D
100
DictionaryVariables
280
0
  1
1.3.3 @ 2024-10-02T22:34:33.898770+00:00
  0
DICTIONARYVAR
  5
34
330
2D
100
DictionaryVariables
280
0
  1
1.3.3 @ 2024-10-02T22:34:33.903769+00:00
  0
ENDSEC
  0
EOF
