  0
SECTION
  2
HEADER
  9
$ACADVER
  1
AC1027
  9
$ACADMAINTVER
 70
105
  9
$DWGCODEPAGE
  3
ANSI_1252
  9
$LASTSAVEDBY
  1
ezdxf
  9
$REQUIREDVERSIONS
160
0
  9
$INSBASE
 10
0.0
 20
0.0
 30
0.0
  9
$EXTMIN
 10
1e+20
 20
1e+20
 30
1e+20
  9
$EXTMAX
 10
-1e+20
 20
-1e+20
 30
-1e+20
  9
$LIMMIN
 10
0.0
 20
0.0
  9
$LIMMAX
 10
420.0
 20
297.0
  9
$ORTHOMODE
 70
0
  9
$REGENMODE
 70
1
  9
$FILLMODE
 70
1
  9
$QTEXTMODE
 70
0
  9
$MIRRTEXT
 70
1
  9
$LTSCALE
 40
1.0
  9
$ATTMODE
 70
1
  9
$TEXTSIZE
 40
2.5
  9
$TRACEWID
 40
1.0
  9
$TEXTSTYLE
  7
Standard
  9
$CLAYER
  8
0
  9
$CELTYPE
  6
ByLayer
  9
$CECOLOR
 62
256
  9
$CELTSCALE
 40
1.0
  9
$DISPSILH
 70
0
  9
$DIMSCALE
 40
1.0
  9
$DIMASZ
 40
2.5
  9
$DIMEXO
 40
0.625
  9
$DIMDLI
 40
3.75
  9
$DIMRND
 40
0.0
  9
$DIMDLE
 40
0.0
  9
$DIMEXE
 40
1.25
  9
$DIMTP
 40
0.0
  9
$DIMTM
 40
0.0
  9
$DIMTXT
 40
2.5
  9
$DIMCEN
 40
2.5
  9
$DIMTSZ
 40
0.0
  9
$DIMTOL
 70
0
  9
$DIMLIM
 70
0
  9
$DIMTIH
 70
0
  9
$DIMTOH
 70
0
  9
$DIMSE1
 70
0
  9
$DIMSE2
 70
0
  9
$DIMTAD
 70
1
  9
$DIMZIN
 70
8
  9
$DIMBLK
  1

  9
$DIMASO
 70
1
  9
$DIMSHO
 70
1
  9
$DIMPOST
  1

  9
$DIMAPOST
  1

  9
$DIMALT
 70
0
  9
$DIMALTD
 70
3
  9
$DIMALTF
 40
0.03937007874
  9
$DIMLFAC
 40
1.0
  9
$DIMTOFL
 70
1
  9
$DIMTVP
 40
0.0
  9
$DIMTIX
 70
0
  9
$DIMSOXD
 70
0
  9
$DIMSAH
 70
0
  9
$DIMBLK1
  1

  9
$DIMBLK2
  1

  9
$DIMSTYLE
  2
ISO-25
  9
$DIMCLRD
 70
0
  9
$DIMCLRE
 70
0
  9
$DIMCLRT
 70
0
  9
$DIMTFAC
 40
1.0
  9
$DIMGAP
 40
0.625
  9
$DIMJUST
 70
0
  9
$DIMSD1
 70
0
  9
$DIMSD2
 70
0
  9
$DIMTOLJ
 70
0
  9
$DIMTZIN
 70
8
  9
$DIMALTZ
 70
0
  9
$DIMALTTZ
 70
0
  9
$DIMUPT
 70
0
  9
$DIMDEC
 70
2
  9
$DIMTDEC
 70
2
  9
$DIMALTU
 70
2
  9
$DIMALTTD
 70
3
  9
$DIMTXSTY
  7
Standard
  9
$DIMAUNIT
 70
0
  9
$DIMADEC
 70
0
  9
$DIMALTRND
 40
0.0
  9
$DIMAZIN
 70
0
  9
$DIMDSEP
 70
44
  9
$DIMATFIT
 70
3
  9
$DIMFRAC
 70
0
  9
$DIMLDRBLK
  1

  9
$DIMLUNIT
 70
2
  9
$DIMLWD
 70
-2
  9
$DIMLWE
 70
-2
  9
$DIMTMOVE
 70
0
  9
$DIMFXL
 40
1.0
  9
$DIMFXLON
 70
0
  9
$DIMJOGANG
 40
0.785398163397
  9
$DIMTFILL
 70
0
  9
$DIMTFILLCLR
 70
0
  9
$DIMARCSYM
 70
0
  9
$DIMLTYPE
  6

  9
$DIMLTEX1
  6

  9
$DIMLTEX2
  6

  9
$DIMTXTDIRECTION
 70
0
  9
$LUNITS
 70
2
  9
$LUPREC
 70
4
  9
$SKETCHINC
 40
1.0
  9
$FILLETRAD
 40
10.0
  9
$AUNITS
 70
0
  9
$AUPREC
 70
2
  9
$MENU
  1
.
  9
$ELEVATION
 40
0.0
  9
$PELEVATION
 40
0.0
  9
$THICKNESS
 40
0.0
  9
$LIMCHECK
 70
0
  9
$CHAMFERA
 40
0.0
  9
$CHAMFERB
 40
0.0
  9
$CHAMFERC
 40
0.0
  9
$CHAMFERD
 40
0.0
  9
$SKPOLY
 70
0
  9
$TDCREATE
 40
2460586.6157291667
  9
$TDUCREATE
 40
2458532.153996898
  9
$TDUPDATE
 40
2460586.6157291667
  9
$TDUUPDATE
 40
2458532.1544311
  9
$TDINDWG
 40
0.0
  9
$TDUSRTIMER
 40
0.0
  9
$USRTIMER
 70
1
  9
$ANGBASE
 50
0.0
  9
$ANGDIR
 70
0
  9
$PDMODE
 70
0
  9
$PDSIZE
 40
0.0
  9
$PLINEWID
 40
0.0
  9
$SPLFRAME
 70
0
  9
$SPLINETYPE
 70
6
  9
$SPLINESEGS
 70
8
  9
$HANDSEED
  5
35
  9
$SURFTAB1
 70
6
  9
$SURFTAB2
 70
6
  9
$SURFTYPE
 70
6
  9
$SURFU
 70
6
  9
$SURFV
 70
6
  9
$UCSBASE
  2

  9
$UCSNAME
  2

  9
$UCSORG
 10
0.0
 20
0.0
 30
0.0
  9
$UCSXDIR
 10
1.0
 20
0.0
 30
0.0
  9
$UCSYDIR
 10
0.0
 20
1.0
 30
0.0
  9
$UCSORTHOREF
  2

  9
$UCSORTHOVIEW
 70
0
  9
$UCSORGTOP
 10
0.0
 20
0.0
 30
0.0
  9
$UCSORGBOTTOM
 10
0.0
 20
0.0
 30
0.0
  9
$UCSORGLEFT
 10
0.0
 20
0.0
 30
0.0
  9
$UCSORGRIGHT
 10
0.0
 20
0.0
 30
0.0
  9
$UCSORGFRONT
 10
0.0
 20
0.0
 30
0.0
  9
$UCSORGBACK
 10
0.0
 20
0.0
 30
0.0
  9
$PUCSBASE
  2

  9
$PUCSNAME
  2

  9
$PUCSORG
 10
0.0
 20
0.0
 30
0.0
  9
$PUCSXDIR
 10
1.0
 20
0.0
 30
0.0
  9
$PUCSYDIR
 10
0.0
 20
1.0
 30
0.0
  9
$PUCSORTHOREF
  2

  9
$PUCSORTHOVIEW
 70
0
  9
$PUCSORGTOP
 10
0.0
 20
0.0
 30
0.0
  9
$PUCSORGBOTTOM
 10
0.0
 20
0.0
 30
0.0
  9
$PUCSORGLEFT
 10
0.0
 20
0.0
 30
0.0
  9
$PUCSORGRIGHT
 10
0.0
 20
0.0
 30
0.0
  9
$PUCSORGFRONT
 10
0.0
 20
0.0
 30
0.0
  9
$PUCSORGBACK
 10
0.0
 20
0.0
 30
0.0
  9
$USERI1
 70
0
  9
$USERI2
 70
0
  9
$USERI3
 70
0
  9
$USERI4
 70
0
  9
$USERI5
 70
0
  9
$USERR1
 40
0.0
  9
$USERR2
 40
0.0
  9
$USERR3
 40
0.0
  9
$USERR4
 40
0.0
  9
$USERR5
 40
0.0
  9
$WORLDVIEW
 70
1
  9
$SHADEDGE
 70
3
  9
$SHADEDIF
 70
70
  9
$TILEMODE
 70
1
  9
$MAXACTVP
 70
64
  9
$PINSBASE
 10
0.0
 20
0.0
 30
0.0
  9
$PLIMCHECK
 70
0
  9
$PEXTMIN
 10
1e+20
 20
1e+20
 30
1e+20
  9
$PEXTMAX
 10
-1e+20
 20
-1e+20
 30
-1e+20
  9
$PLIMMIN
 10
0.0
 20
0.0
  9
$PLIMMAX
 10
420.0
 20
297.0
  9
$UNITMODE
 70
0
  9
$VISRETAIN
 70
1
  9
$PLINEGEN
 70
0
  9
$PSLTSCALE
 70
1
  9
$TREEDEPTH
 70
3020
  9
$CMLSTYLE
  2
Standard
  9
$CMLJUST
 70
0
  9
$CMLSCALE
 40
20.0
  9
$PROXYGRAPHICS
 70
1
  9
$MEASUREMENT
 70
1
  9
$CELWEIGHT
370
-1
  9
$ENDCAPS
280
0
  9
$JOINSTYLE
280
0
  9
$LWDISPLAY
290
0
  9
$INSUNITS
 70
6
  9
$HYPERLINKBASE
  1

  9
$STYLESHEET
  1

  9
$XEDIT
290
1
  9
$CEPSNTYPE
380
0
  9
$PSTYLEMODE
290
1
  9
$FINGERPRINTGUID
  2
{C57525A7-9BD7-4592-8604-4555E8516C85}
  9
$VERSIONGUID
  2
{9441D00F-A52E-4F6C-8014-B16BBE634400}
  9
$EXTNAMES
290
1
  9
$PSVPSCALE
 40
0.0
  9
$OLESTARTUP
290
0
  9
$SORTENTS
280
127
  9
$INDEXCTL
280
0
  9
$HIDETEXT
280
1
  9
$XCLIPFRAME
280
1
  9
$HALOGAP
280
0
  9
$OBSCOLOR
 70
257
  9
$OBSLTYPE
280
0
  9
$INTERSECTIONDISPLAY
280
0
  9
$INTERSECTIONCOLOR
 70
257
  9
$DIMASSOC
280
2
  9
$PROJECTNAME
  1

  9
$CAMERADISPLAY
290
0
  9
$LENSLENGTH
 40
50.0
  9
$CAMERAHEIGHT
 40
0.0
  9
$STEPSPERSEC
 40
24.0
  9
$STEPSIZE
 40
100.0
  9
$3DDWFPREC
 40
2.0
  9
$PSOLWIDTH
 40
0.005
  9
$PSOLHEIGHT
 40
0.08
  9
$LOFTANG1
 40
1.570796326795
  9
$LOFTANG2
 40
1.570796326795
  9
$LOFTMAG1
 40
0.0
  9
$LOFTMAG2
 40
0.0
  9
$LOFTPARAM
 70
7
  9
$LOFTNORMALS
280
1
  9
$LATITUDE
 40
37.795
  9
$LONGITUDE
 40
-122.394
  9
$NORTHDIRECTION
 40
0.0
  9
$TIMEZONE
 70
-8000
  9
$LIGHTGLYPHDISPLAY
280
1
  9
$TILEMODELIGHTSYNCH
280
1
  9
$CMATERIAL
347
20
  9
$SOLIDHIST
280
0
  9
$SHOWHIST
280
1
  9
$DWFFRAME
280
2
  9
$DGNFRAME
280
2
  9
$REALWORLDSCALE
290
1
  9
$INTERFERECOLOR
 62
256
  9
$CSHADOW
280
0
  9
$SHADOWPLANELOCATION
 40
0.0
  0
ENDSEC
  0
SECTION
  2
CLASSES
  0
CLASS
  1
ACDBDICTIONARYWDFLT
  2
AcDbDictionaryWithDefault
  3
ObjectDBX Classes
 90
0
 91
0
280
0
281
0
  0
CLASS
  1
SUN
  2
AcDbSun
  3
SCENEOE
 90
1153
 91
0
280
0
281
0
  0
CLASS
  1
VISUALSTYLE
  2
AcDbVisualStyle
  3
ObjectDBX Classes
 90
4095
 91
0
280
0
281
0
  0
CLASS
  1
MATERIAL
  2
AcDbMaterial
  3
ObjectDBX Classes
 90
1153
 91
0
280
0
281
0
  0
CLASS
  1
SCALE
  2
AcDbScale
  3
ObjectDBX Classes
 90
1153
 91
0
280
0
281
0
  0
CLASS
  1
TABLESTYLE
  2
AcDbTableStyle
  3
ObjectDBX Classes
 90
4095
 91
0
280
0
281
0
  0
CLASS
  1
MLEADERSTYLE
  2
AcDbMLeaderStyle
  3
ACDB_MLEADERSTYLE_CLASS
 90
4095
 91
0
280
0
281
0
  0
CLASS
  1
DICTIONARYVAR
  2
AcDbDictionaryVar
  3
ObjectDBX Classes
 90
0
 91
0
280
0
281
0
  0
CLASS
  1
CELLSTYLEMAP
  2
AcDbCellStyleMap
  3
ObjectDBX Classes
 90
1152
 91
0
280
0
281
0
  0
CLASS
  1
MENTALRAYRENDERSETTINGS
  2
AcDbMentalRayRenderSettings
  3
SCENEOE
 90
1024
 91
0
280
0
281
0
  0
CLASS
  1
ACDBDETAILVIEWSTYLE
  2
AcDbDetailViewStyle
  3
ObjectDBX Classes
 90
1025
 91
0
280
0
281
0
  0
CLASS
  1
ACDBSECTIONVIEWSTYLE
  2
AcDbSectionViewStyle
  3
ObjectDBX Classes
 90
1025
 91
0
280
0
281
0
  0
CLASS
  1
RASTERVARIABLES
  2
AcDbRasterVariables
  3
ISM
 90
0
 91
0
280
0
281
0
  0
CLASS
  1
ACDBPLACEHOLDER
  2
AcDbPlaceHolder
  3
ObjectDBX Classes
 90
0
 91
0
280
0
281
0
  0
CLASS
  1
LAYOUT
  2
AcDbLayout
  3
ObjectDBX Classes
 90
0
 91
0
280
0
281
0
  0
ENDSEC
  0
SECTION
  2
TABLES
  0
TABLE
  2
VPORT
  5
8
330
0
100
AcDbSymbolTable
 70
1
  0
VPORT
  5
23
330
8
100
AcDbSymbolTableRecord
100
AcDbViewportTableRecord
  2
*Active
 70
0
 10
0.0
 20
0.0
 11
1.0
 21
1.0
 12
0.0
 22
0.0
 13
0.0
 23
0.0
 14
0.5
 24
0.5
 15
0.5
 25
0.5
 16
0.0
 26
0.0
 36
1.0
 17
0.0
 27
0.0
 37
0.0
 40
1000.0
 41
1.34
 42
50.0
 43
0.0
 44
0.0
 50
0.0
 51
0.0
 71
0
 72
1000
 73
1
 74
3
 75
0
 76
0
 77
0
 78
0
281
0
 65
0
146
0.0
  0
ENDTAB
  0
TABLE
  2
LTYPE
  5
2
330
0
100
AcDbSymbolTable
 70
3
  0
LTYPE
  5
24
330
2
100
AcDbSymbolTableRecord
100
AcDbLinetypeTableRecord
  2
ByBlock
 70
0
  3

 72
65
 73
0
 40
0.0
  0
LTYPE
  5
25
330
2
100
AcDbSymbolTableRecord
100
AcDbLinetypeTableRecord
  2
ByLayer
 70
0
  3

 72
65
 73
0
 40
0.0
  0
LTYPE
  5
26
330
2
100
AcDbSymbolTableRecord
100
AcDbLinetypeTableRecord
  2
Continuous
 70
0
  3

 72
65
 73
0
 40
0.0
  0
ENDTAB
  0
TABLE
  2
LAYER
  5
1
330
0
100
AcDbSymbolTable
 70
2
  0
LAYER
  5
27
330
1
100
AcDbSymbolTableRecord
100
AcDbLayerTableRecord
  2
0
 70
0
 62
7
  6
Continuous
370
-3
390
13
347
21
  0
LAYER
  5
28
330
1
100
AcDbSymbolTableRecord
100
AcDbLayerTableRecord
  2
Defpoints
 70
0
 62
7
  6
Continuous
290
0
370
-3
390
13
347
21
  0
ENDTAB
  0
TABLE
  2
STYLE
  5
5
330
0
100
AcDbSymbolTable
 70
1
  0
STYLE
  5
29
330
5
100
AcDbSymbolTableRecord
100
AcDbTextStyleTableRecord
  2
Standard
 70
0
 40
0.0
 41
1.0
 50
0.0
 71
0
 42
2.5
  3
txt
  4

  0
ENDTAB
  0
TABLE
  2
VIEW
  5
7
330
0
100
AcDbSymbolTable
 70
0
  0
ENDTAB
  0
TABLE
  2
UCS
  5
6
330
0
100
AcDbSymbolTable
 70
0
  0
ENDTAB
  0
TABLE
  2
APPID
  5
3
330
0
100
AcDbSymbolTable
 70
3
  0
APPID
  5
2A
330
3
100
AcDbSymbolTableRecord
100
AcDbRegAppTableRecord
  2
ACAD
 70
0
  0
APPID
  5
32
330
3
100
AcDbSymbolTableRecord
100
AcDbRegAppTableRecord
  2
HATCHBACKGROUNDCOLOR
 70
0
  0
APPID
  5
33
330
3
100
AcDbSymbolTableRecord
100
AcDbRegAppTableRecord
  2
EZDXF
 70
0
  0
ENDTAB
  0
TABLE
  2
DIMSTYLE
  5
4
330
0
100
AcDbSymbolTable
 70
1
100
AcDbDimStyleTable
  0
DIMSTYLE
105
2B
330
4
100
AcDbSymbolTableRecord
100
AcDbDimStyleTableRecord
  2
Standard
 70
0
 40
1.0
 41
2.5
 42
0.625
 43
3.75
 44
1.25
 45
0.0
 46
0.0
 47
0.0
 48
0.0
 49
2.5
140
2.5
141
2.5
142
0.0
143
0.03937007874
144
1.0
145
0.0
146
1.0
147
0.625
148
0.0
 69
0
 70
0
 71
0
 72
0
 73
0
 74
0
 75
0
 76
0
 77
1
 78
8
 79
3
170
0
171
3
172
1
173
0
174
0
175
0
176
0
177
0
178
0
179
2
271
2
272
2
273
2
274
3
275
0
276
0
277
2
278
44
279
0
280
0
281
0
282
0
283
0
284
8
285
0
286
0
288
0
289
3
290
0
371
-2
372
-2
  0
ENDTAB
  0
TABLE
  2
BLOCK_RECORD
  5
9
330
0
100
AcDbSymbolTable
 70
2
  0
BLOCK_RECORD
  5
17
330
9
100
AcDbSymbolTableRecord
100
AcDbBlockTableRecord
  2
*Model_Space
340
1A
 70
0
280
1
281
0
  0
BLOCK_RECORD
  5
1B
330
9
100
AcDbSymbolTableRecord
100
AcDbBlockTableRecord
  2
*Paper_Space
340
1E
 70
0
280
1
281
0
  0
ENDTAB
  0
ENDSEC
  0
SECTION
  2
BLOCKS
  0
BLOCK
  5
18
330
17
100
AcDbEntity
  8
0
100
AcDbBlockBegin
  2
*Model_Space
 70
0
 10
0.0
 20
0.0
 30
0.0
  3
*Model_Space
  1

  0
ENDBLK
  5
19
330
17
100
AcDbEntity
  8
0
100
AcDbBlockEnd
  0
BLOCK
  5
1C
330
1B
100
AcDbEntity
  8
0
100
AcDbBlockBegin
  2
*Paper_Space
 70
0
 10
0.0
 20
0.0
 30
0.0
  3
*Paper_Space
  1

  0
ENDBLK
  5
1D
330
1B
100
AcDbEntity
  8
0
100
AcDbBlockEnd
  0
ENDSEC
  0
SECTION
  2
ENTITIES
  0
LWPOLYLINE
  5
2F
330
17
100
AcDbEntity
  8
0
100
AcDbPolyline
 90
1000
 70
1
 10
48.0
 20
0.0
 10
48.399044625437035
 20
0.3041041679330532
 10
48.79614695714622
 20
0.6132227463076072
 10
49.1912597371358
 20
0.9273432339980823
 10
49.584335788451675
 20
1.246452733989539
 10
49.97532801828658
 20
1.5705379539064146
 10
50.3641894210857
 20
1.8995852065647008
 10
50.750873081648734
 20
2.233580410547537
 10
51.1353321782281
 20
2.5725090908042016
 10
51.51751998562311
 20
2.916356379272466
 10
47.90528296455703
 20
3.013944937407042
 10
48.2844453078833
 20
3.3425052445772403
 10
48.661354332717956
 20
3.675948109763117
 10
49.03596365927427
 20
4.014258089153351
 10
49.40822701350136
 20
4.357419348916862
 10
49.778098230154
 20
4.705415665925717
 10
50.14553125585753
 20
5.058230428501231
 10
50.510480152167545
 20
5.415846637183203
 10
50.87289909862443
 20
5.778246905522263
 10
51.23274239580239
 20
6.145413460895279
 10
47.621505663094936
 20
6.015995211086604
 10
47.979289343764115
 20
6.367714980066473
 10
48.33451757399658
 20
6.724166185410338
 10
48.68714503525043
 20
7.085330501570807
 10
49.03712653900054
 20
7.4511892203895504
 10
49.38441702975689
 20
7.821723252011544
 10
49.72897158807655
 20
8.196913125822132
 10
50.07074543356911
 20
8.576738991406883
 10
50.40969392789532
 20
8.961180619534135
 10
50.74577257775901
 20
9.350217403160288
 10
47.14978803497706
 20
8.994303100114783
 10
47.48478104425737
 20
9.367794253661636
 10
47.81692655635124
 20
9.745847049103062
 10
48.14618049281323
 20
10.128440351478162
 10
48.4724989289824
 20
10.515552652133909
 10
48.79583809693737
 20
10.907162069827127
 10
49.11615438844348
 20
11.303246351848811
 10
49.43340435789202
 20
11.7037828751708
 10
49.74754472523131
 20
12.108748647614705
 10
50.05853237888946
 20
12.518120309043024
 10
46.49199173417429
 20
11.93711458391303
 10
46.80287200770186
 20
12.330903123075698
 10
47.11062397506376
 20
12.72906550694697
 10
47.415204971868484
 20
13.13157787456248
 10
47.71657251066986
 20
13.538416001659332
 10
48.01468428384715
 20
13.949555301961464
 10
48.30949816647574
 20
14.364970828486795
 10
48.600972219188584
 20
14.784637274876207
 10
48.889064691028125
 20
15.208528976744189
 10
49.17373402228849
 20
15.636619913051137
 10
45.65071278216737
 20
14.832815729997474
 10
45.93625341753026
 20
15.245347551316751
 10
46.21839728374352
 20
15.662048158591823
 10
46.49710329884639
 20
16.08289105902317
 10
46.772330580286074
 20
16.50784940834014
 10
47.04403844771127
 20
16.936896012264572
 10
47.31218642575526
 20
17.37000332799566
 10
47.57673424680817
 20
17.80714346571596
 10
47.837641853778536
 20
18.24828819011844
 10
48.094869402843685
 20
18.693408921954557
 10
44.629271322636065
 20
17.669978528864544
 10
44.88834542139761
 20
18.099625557709544
 10
45.143767693521546
 20
18.533219861463895
 10
45.395498801609655
 20
18.97073242004791
 10
45.643499629347176
 20
19.412133875125242
 10
45.887731284199056
 20
19.857394531739033
 10
46.12815510009424
 20
20.306484359968596
 10
46.36473264009794
 20
20.759372996606533
 10
46.59742569907178
 20
21.21602974685615
 10
46.826196306321634
 20
21.676423586049204
 10
43.43169851836894
 20
20.437405995123488
 10
43.663283633421024
 20
20.882472610958416
 10
43.890976276438906
 20
21.331249412565523
 10
44.114739009833606
 20
21.783704967113955
 10
44.334534637902685
 20
22.2398075180656
 10
44.550326209418394
 20
22.69952498697734
 10
44.762077020202646
 20
23.16282497532299
 10
44.969750615688724
 20
23.629674766334887
 10
45.17331079346961
 20
24.10004132686503
 10
45.3727216058327
 20
24.573891309265658
 10
42.06272064210546
 20
23.124176356882337
 10
42.265902812800135
 20
23.58290608510608
 10
42.464967227872854
 20
24.04509426755663
 10
42.65987849729291
 20
24.510707182702944
 10
42.85060149276463
 20
24.979710801133738
 10
43.03710135019718
 20
25.45207078751856
 10
43.21934347216007
 20
25.92775250258792
 10
43.3972935303242
 20
26.40672100513205
 10
43.57091746788822
 20
26.888941054018343
 10
43.7401815019903
 20
27.37437711022748
 10
40.52774042409672
 20
25.71968615899184
 10
40.70171778323139
 20
26.190268602940797
 10
40.871368354056514
 20
26.664044120632333
 10
41.036658933768024
 20
27.14097683491877
 10
41.19755660011231
 20
27.621030577814125
 10
41.35402871372809
 20
28.10416889260653
 10
41.506042920472744
 20
28.590355035988527
 10
41.653567153732986
 20
29.07955198020522
 10
41.79656963671982
 20
29.571722415220098
 10
41.93501888474765
 20
30.06682875089853
 10
38.83281572999748
 20
28.21369211003871
 10
38.97690166841831
 20
28.69427009579527
 10
39.11646886169878
 20
29.177763173206916
 10
39.2514864252977
 20
29.66413345110002
 10
39.38192377293264
 20
30.15334276565243
 10
39.50775061878452
 20
30.645352682648824
 10
39.62893697968559
 20
31.14012449975285
 10
39.74545317729068
 20
31.63761924879612
 10
39.8572698402316
 20
32.13779769808387
 10
39.96435790625467
 20
32.64062035471722
 10
36.98463565323789
 20
30.59635150793711
 10
37.09826152957253
 20
31.085028413746684
 10
37.20719453735867
 20
31.57633092458889
 10
37.311406232205115
 20
32.07021928480324
 10
37.41086848451075
 20
32.56665348534664
 10
37.50555348152298
 20
33.06559326618259
 10
37.59543372937878
 20
33.566998118686286
 10
37.68048205512795
 20
34.07082728806538
 10
37.760671608738505
 20
34.57703977579646
 10
37.835975865084094
 20
35.085594342076824
 10
34.99049411622775
 20
32.85826108457706
 10
35.073211501053066
 20
33.35310832594767
 10
35.15108041452986
 20
33.85028132366488
 10
35.224074964674095
 20
34.34973861447885
 10
35.29216958958055
 20
34.85143850202292
 10
35.35533905932738
 20
35.35533905932738
 10
35.413558477862004
 20
35.86139813134798
 10
35.46680328486841
 20
36.36957333750902
 10
35.515049257615615
 20
36.87982207426084
 10
35.55827251278718
 20
37.39210151765161
 10
32.85826108457706
 20
34.99049411622776
 10
32.90974353016509
 20
35.48955875717191
 10
32.95624103630599
 20
35.99064012707888
 10
32.99773036560663
 20
36.49369521874597
 10
33.03418862473888
 20
36.998680813039435
 10
33.065593266182596
 20
37.50555348152299
 10
33.091922089949
 20
38.01426958909963
 10
33.11315324528464
 20
38.524785296667076
 10
33.12926523235555
 20
39.03705656378614
 10
33.140236903911756
 20
39.55103915136246
 10
30.596351507937108
 20
36.98463565323789
 10
30.616395836595228
 20
37.48594811361872
 10
30.631338430986187
 20
37.988960316470745
 10
30.641158800015138
 20
38.493627880368145
 10
30.645836809280585
 20
38.9999062339763
 10
30.645352682648824
 20
39.50775061878452
 10
30.639687003808113
 20
40.0171160918509
 10
30.628820717802455
 20
40.52795752855941
 10
30.61273513254497
 20
41.04022962538888
 10
30.59141192031066
 20
41.5538869026939
 10
28.21369211003871
 20
38.832815729997485
 10
28.202219215959083
 20
39.334397558561754
 10
28.185547927006663
 20
39.83735543499859
 10
28.16366057925387
 20
40.34164377881226
 10
28.13653987668712
 20
40.84721684237
 10
28.104168892606534
 20
41.3540287137281
 10
28.066531071004675
 20
41.862033319468964
 10
28.023610227924255
 20
42.371184427549096
 10
27.975390552794575
 20
42.88143565015766
 10
27.921856609746786
 20
43.39274044658552
 10
25.719686158991838
 20
40.52774042409673
 10
25.67674132044593
 20
41.02761210651804
 10
25.62852194211123
 20
41.528530711580956
 10
25.575013256938902
 20
42.030449639605315
 10
25.516200875562724
 20
42.53332214720516
 10
25.45207078751857
 20
43.0371013501972
 10
25.38260936244235
 20
43.5417402265189
 10
25.307803351246132
 20
44.04719161915609
 10
25.22763988727253
 20
44.553408239079715
 10
25.142106487427146
 20
45.060342668191886
 10
25.051191053289195
 20
45.5679473622809
 10
23.049929057528253
 20
42.55890941322292
 10
22.970351889668226
 20
43.05581185002572
 10
22.885433041410952
 20
43.55338051755681
 10
22.7951610868258
 20
44.051567861151824
 10
22.69952498697734
 20
44.55032620941839
 10
22.598514090937623
 20
45.04960777722369
 10
22.4921181367762
 20
45.54936466868999
 10
22.380327252527767
 20
46.049548880198216
 10
22.26313195713748
 20
46.55011230339926
 10
20.437405995123488
 20
43.43169851836894
 10
20.332149255131423
 20
43.92224614779007
 10
20.221528352472266
 20
44.4131713694278
 10
20.105534477028375
 20
44.90442610025233
 10
19.98415921139767
 20
45.39596216199751
 10
19.85739453173903
 20
45.887731284199056
 10
19.725232808595
 20
46.37968510723987
 10
19.587666807691747
 20
46.87177518540183
 10
19.444689690716217
 20
47.36395298992426
 10
19.296295016070502
 20
47.85616991206853
 10
17.66997852886454
 20
44.62927132263608
 10
17.534127748500012
 20
45.11224184297741
 10
17.392899681206636
 20
45.59525239188267
 10
17.246288553409943
 20
46.07825442801107
 10
17.094288989456043
 20
46.561199339632154
 10
16.936896012264565
 20
47.04403844771129
 10
16.774105043958528
 20
47.526723009000364
 10
16.60591190647108
 20
48.00920421913409
 10
16.432312822129123
 20
48.491433215730915
 10
16.253304414213723
 20
48.973361081499206
 10
14.832815729997478
 20
45.65071278216737
 10
14.666907050226262
 20
46.1242001294334
 10
14.495629180959302
 20
46.59738978363618
 10
14.318979407950971
 20
47.070232936694474
 10
14.136955418510816
 20
47.54268073526183
 10
13.949555301961468
 20
48.01468428384717
 10
13.756777550073192
 20
48.486194647938746
 10
13.558621057475078
 20
48.95716285713251
 10
13.355085122042727
 20
49.427539908263626
 10
13.14616944526252
 20
49.897276768541644
 10
11.93711458391303
 20
46.4919917341743
 10
11.741802770497717
 20
46.954127270121134
 10
11.541151054757766
 20
47.41562856623607
 10
11.335159792488257
 20
47.876446740320624
 10
11.12382974308931
 20
48.336532890214244
 10
10.907162069827127
 20
48.79583809693739
 10
10.685158340071553
 20
49.25431342783697
 10
10.457820525509973
 20
49.711909939733985
 10
10.22515100233764
 20
50.168578682073445
 10
9.987152551424387
 20
50.624270700076046
 10
8.994303100114777
 20
47.149788034977064
 10
8.770358959553448
 20
47.59874792177395
 10
8.54112527799347
 20
48.04673952502522
 10
8.306605479866507
 20
48.49371408133072
 10
8.066803393666223
 20
48.93962283271027
 10
7.821723252011546
 20
49.38441702975689
 10
7.571369691686157
 20
49.828047934790874
 10
7.315747753654407
 20
50.27046682501467
 10
7.054862883053465
 20
50.71162499566855
 10
6.788720929161779
 20
51.15147376318654
 10
6.5173281453438205
 20
51.58996446835284
 10
5.764302548591694
 20
48.05551806117898
 10
5.507391581825904
 20
48.48823195337643
 10
5.245268790342792
 20
48.91959888753235
 10
4.97794105662026
 20
49.34957044227249
 10
4.705415665925715
 20
49.77809823015401
 10
4.427700306157453
 20
50.2051339008159
 10
4.144803067662398
 20
50.630629144128726
 10
3.8567324430301566
 20
51.05453569334343
 10
3.563497326863338
 20
51.476805328239216
 10
3.0139449374070386
 20
47.90528296455703
 10
2.7354970689299822
 20
48.32263502527441
 10
2.4519227271727564
 20
48.73836348237366
 10
2.163231421238953
 20
49.15242038616375
 10
1.8694330604287501
 20
49.564757842973236
 10
1.570537953906409
 20
49.975328018286596
 10
1.2665568103442115
 20
50.384083139878314
 10
0.9575007375427352
 20
50.790975500945095
 10
0.6433812420276508
 20
51.19595746323539
 10
0.3242102286228363
 20
51.598981460176674
 10
2.9391523179536483e-15
 20
48.00000000000001
 10
-0.3041041679330529
 20
48.39904462543704
 10
-0.6132227463076095
 20
48.796146957146235
 10
-0.9273432339980874
 20
49.19125973713581
 10
-1.2464527339895353
 20
49.584335788451675
 10
-1.570537953906414
 20
49.97532801828658
 10
-1.8995852065647025
 20
50.3641894210857
 10
-2.2335804105475416
 20
50.75087308164874
 10
-2.5725090908042088
 20
51.1353321782281
 10
-2.9163563792724645
 20
51.51751998562312
 10
-3.013944937407044
 20
47.90528296455704
 10
-3.3425052445772456
 20
48.28444530788332
 10
-3.675948109763124
 20
48.66135433271797
 10
-4.0142580891533495
 20
49.035963659274266
 10
-4.357419348916863
 20
49.40822701350136
 10
-4.705415665925719
 20
49.778098230154
 10
-5.058230428501237
 20
50.145531255857534
 10
-5.4158466371832015
 20
50.51048015216755
 10
-5.778246905522264
 20
50.87289909862444
 10
-6.145413460895282
 20
51.2327423958024
 10
-6.0159952110866115
 20
47.62150566309494
 10
-6.36771498006647
 20
47.979289343764115
 10
-6.724166185410336
 20
48.33451757399658
 10
-7.08533050157081
 20
48.68714503525043
 10
-7.451189220389555
 20
49.03712653900053
 10
-7.821723252011542
 20
49.3844170297569
 10
-8.196913125822133
 20
49.728971588076554
 10
-8.576738991406884
 20
50.070745433569115
 10
-8.961180619534142
 20
50.40969392789533
 10
-9.350217403160299
 20
50.74577257775903
 10
-8.99430310011478
 20
47.14978803497706
 10
-9.36779425366164
 20
47.484781044257375
 10
-9.745847049103068
 20
47.81692655635125
 10
-10.12844035147817
 20
48.14618049281324
 10
-10.515552652133909
 20
48.472498928982404
 10
-10.907162069827132
 20
48.79583809693739
 10
-11.303246351848818
 20
49.1161543884435
 10
-11.703782875170813
 20
49.433404357892044
 10
-12.108748647614703
 20
49.74754472523131
 10
-12.518120309043024
 20
50.05853237888946
 10
-11.937114583913035
 20
46.4919917341743
 10
-12.330903123075704
 20
46.80287200770186
 10
-12.729065506946972
 20
47.110623975063774
 10
-13.131577874562481
 20
47.41520497186849
 10
-13.538416001659337
 20
47.71657251066987
 10
-13.949555301961471
 20
48.01468428384717
 10
-14.364970828486793
 20
48.30949816647575
 10
-14.78463727487621
 20
48.60097221918859
 10
-15.20852897674419
 20
48.889064691028125
 10
-15.636619913051144
 20
49.17373402228849
 10
-14.832815729997485
 20
45.650712782167375
 10
-15.245347551316755
 20
45.936253417530274
 10
-15.66204815859183
 20
46.21839728374353
 10
-16.08289105902318
 20
46.49710329884641
 10
-16.50784940834015
 20
46.77233058028609
 10
-16.93689601226457
 20
47.04403844771127
 10
-17.37000332799566
 20
47.31218642575526
 10
-17.807143465715964
 20
47.57673424680817
 10
-18.248288190118444
 20
47.83764185377854
 10
-18.693408921954553
 20
48.09486940284368
 10
-17.669978528864547
 20
44.629271322636086
 10
-18.099625557709548
 20
44.88834542139762
 10
-18.533219861463905
 20
45.14376769352157
 10
-18.97073242004791
 20
45.395498801609655
 10
-19.412133875125242
 20
45.643499629347176
 10
-19.857394531739036
 20
45.88773128419906
 10
-20.306484359968604
 20
46.12815510009425
 10
-20.759372996606523
 20
46.364732640097934
 10
-21.216029746856147
 20
46.59742569907177
 10
-21.67642358604921
 20
46.82619630632165
 10
-20.4374059951235
 20
43.431698518368954
 10
-20.88247261095843
 20
43.66328363342103
 10
-21.331249412565548
 20
43.89097627643893
 10
-21.783704967113977
 20
44.11473900983362
 10
-22.23980751806559
 20
44.334534637902685
 10
-22.699524986977334
 20
44.55032620941839
 10
-23.162824975322984
 20
44.762077020202646
 10
-23.629674766334883
 20
44.969750615688724
 10
-24.10004132686504
 20
45.173310793469625
 10
-24.573891309265676
 20
45.37272160583272
 10
-23.12417635688235
 20
42.06272064210547
 10
-23.58290608510611
 20
42.26590281280016
 10
-24.045094267556617
 20
42.46496722787285
 10
-24.51070718270294
 20
42.65987849729291
 10
-24.979710801133734
 20
42.85060149276463
 10
-25.452070787518565
 20
43.03710135019718
 10
-25.92775250258793
 20
43.21934347216007
 10
-26.406721005132056
 20
43.39729353032421
 10
-26.88894105401836
 20
43.570917467888236
 10
-27.3743771102275
 20
43.74018150199031
 10
-27.86299333890781
 20
43.905052126104785
 10
-26.190268602940783
 20
40.70171778323138
 10
-26.664044120632326
 20
40.871368354056514
 10
-27.140976834918764
 20
41.03665893376802
 10
-27.62103057781413
 20
41.19755660011231
 10
-28.104168892606534
 20
41.354028713728084
 10
-28.590355035988544
 20
41.50604292047275
 10
-29.07955198020524
 20
41.65356715373299
 10
-29.571722415220123
 20
41.79656963671983
 10
-30.066828750898512
 20
41.93501888474765
 10
-30.564833119208593
 20
42.068883707497264
 10
-28.694270095795265
 20
38.9769016684183
 10
-29.177763173206923
 20
39.11646886169877
 10
-29.66413345110002
 20
39.25148642529769
 10
-30.153342765652432
 20
39.38192377293263
 10
-30.64535268264885
 20
39.507750618784534
 10
-31.14012449975288
 20
39.62893697968561
 10
-31.6376192487961
 20
39.74545317729067
 10
-32.13779769808386
 20
39.857269840231595
 10
-32.640620354717214
 20
39.96435790625466
 10
-30.596351507937108
 20
36.98463565323789
 10
-31.085028413746688
 20
37.09826152957254
 10
-31.57633092458889
 20
37.20719453735865
 10
-32.07021928480325
 20
37.311406232205115
 10
-32.56665348534667
 20
37.410868484510765
 10
-33.065593266182624
 20
37.50555348152299
 10
-33.56699811868628
 20
37.59543372937878
 10
-34.070827288065374
 20
37.68048205512795
 10
-34.57703977579645
 20
37.760671608738505
 10
-35.08559434207683
 20
37.835975865084094
 10
-32.858261084577066
 20
34.99049411622775
 10
-33.35310832594767
 20
35.07321150105306
 10
-33.850281323664895
 20
35.15108041452986
 10
-34.34973861447889
 20
35.22407496467411
 10
-34.85143850202291
 20
35.29216958958055
 10
-35.35533905932737
 20
35.35533905932738
 10
-35.86139813134798
 20
35.413558477862
 10
-36.36957333750903
 20
35.46680328486841
 10
-36.87982207426084
 20
35.515049257615615
 10
-37.39210151765162
 20
35.558272512787184
 10
-34.990494116227765
 20
32.85826108457705
 10
-35.48955875717192
 20
32.90974353016509
 10
-35.99064012707888
 20
32.956241036306
 10
-36.49369521874596
 20
32.99773036560663
 10
-36.998680813039435
 20
33.03418862473888
 10
-37.50555348152297
 20
33.06559326618259
 10
-38.01426958909964
 20
33.09192208994901
 10
-38.52478529666708
 20
33.11315324528464
 10
-39.037056563786145
 20
33.12926523235555
 10
-39.55103915136247
 20
33.14023690391175
 10
-36.9846356532379
 20
30.596351507937108
 10
-37.48594811361871
 20
30.616395836595228
 10
-37.98896031647074
 20
30.631338430986187
 10
-38.49362788036814
 20
30.64115880001514
 10
-38.9999062339763
 20
30.645836809280585
 10
-39.50775061878453
 20
30.645352682648824
 10
-40.01711609185091
 20
30.63968700380811
 10
-40.52795752855942
 20
30.628820717802455
 10
-41.0402296253889
 20
30.61273513254497
 10
-41.55388690269388
 20
30.59141192031066
 10
-38.83281572999747
 20
28.213692110038714
 10
-39.334397558561754
 20
28.202219215959087
 10
-39.83735543499858
 20
28.185547927006663
 10
-40.34164377881226
 20
28.16366057925387
 10
-40.84721684237001
 20
28.136539876687124
 10
-41.354028713728106
 20
28.10416889260653
 10
-41.86203331946898
 20
28.066531071004675
 10
-42.37118442754912
 20
28.02361022792425
 10
-42.881435650157634
 20
27.975390552794575
 10
-43.39274044658552
 20
27.921856609746797
 10
-40.52774042409674
 20
25.719686158991852
 10
-41.027612106518035
 20
25.67674132044593
 10
-41.52853071158099
 20
25.628521942111238
 10
-42.03044963960534
 20
25.575013256938906
 10
-42.53332214720518
 20
25.516200875562728
 10
-43.0371013501972
 20
25.45207078751856
 10
-43.5417402265189
 20
25.38260936244235
 10
-44.04719161915608
 20
25.30780335124613
 10
-44.553408239079715
 20
25.22763988727253
 10
-45.0603426681919
 20
25.142106487427156
 10
-42.06272064210546
 20
23.124176356882334
 10
-42.55890941322295
 20
23.04992905752826
 10
-43.055811850025734
 20
22.970351889668226
 10
-43.55338051755683
 20
22.885433041410955
 10
-44.05156786115179
 20
22.795161086825793
 10
-44.55032620941839
 20
22.699524986977345
 10
-45.04960777722368
 20
22.59851409093762
 10
-45.54936466868999
 20
22.492118136776202
 10
-46.04954888019822
 20
22.380327252527774
 10
-46.550112303399274
 20
22.26313195713748
 10
-43.43169851836897
 20
20.43740599512349
 10
-43.92224614779008
 20
20.33214925513142
 10
-44.41317136942783
 20
20.22152835247227
 10
-44.904426100252316
 20
20.10553447702837
 10
-45.39596216199751
 20
19.984159211397674
 10
-45.88773128419904
 20
19.857394531739025
 10
-46.37968510723987
 20
19.725232808595003
 10
-46.871775185401866
 20
19.587666807691754
 10
-47.363952989924265
 20
19.444689690716217
 10
-47.85616991206856
 20
19.29629501607051
 10
-44.62927132263609
 20
17.66997852886454
 10
-45.11224184297742
 20
17.53412774850002
 10
-45.59525239188265
 20
17.392899681206632
 10
-46.07825442801107
 20
17.246288553409947
 10
-46.56119933963215
 20
17.094288989456043
 10
-47.04403844771129
 20
16.93689601226457
 10
-47.526723009000406
 20
16.77410504395853
 10
-48.009204219134105
 20
16.605911906471075
 10
-48.49143321573095
 20
16.432312822129127
 10
-48.97336108149923
 20
16.253304414213723
 10
-45.650712782167375
 20
14.832815729997483
 10
-46.124200129433376
 20
14.66690705022626
 10
-46.59738978363619
 20
14.495629180959307
 10
-47.07023293669446
 20
14.31897940795097
 10
-47.54268073526186
 20
14.136955418510817
 10
-48.01468428384719
 20
13.949555301961466
 10
-48.48619464793875
 20
13.756777550073188
 10
-48.95716285713254
 20
13.558621057475076
 10
-49.42753990826361
 20
13.355085122042727
 10
-49.89727676854165
 20
13.146169445262528
 10
-50.36632437868881
 20
12.93187413257245
 10
-46.954127270121134
 20
11.741802770497722
 10
-47.41562856623609
 20
11.54115105475776
 10
-47.876446740320645
 20
11.335159792488254
 10
-48.336532890214265
 20
11.123829743089306
 10
-48.795838096937395
 20
10.90716206982712
 10
-49.254313427836955
 20
10.685158340071563
 10
-49.71190993973397
 20
10.457820525509973
 10
-50.16857868207345
 20
10.225151002337643
 10
-50.62427070007603
 20
9.987152551424389
 10
-47.14978803497707
 20
8.994303100114783
 10
-47.598747921773956
 20
8.770358959553443
 10
-48.046739525025245
 20
8.541125277993466
 10
-48.493714081330744
 20
8.306605479866501
 10
-48.939622832710285
 20
8.066803393666216
 10
-49.38441702975689
 20
7.82172325201155
 10
-49.82804793479085
 20
7.571369691686158
 10
-50.27046682501468
 20
7.315747753654412
 10
-50.71162499566854
 20
7.054862883053466
 10
-51.15147376318656
 20
6.788720929161774
 10
-47.621505663094936
 20
6.015995211086596
 10
-48.055518061179
 20
5.764302548591688
 10
-48.48823195337645
 20
5.507391581825899
 10
-48.91959888753234
 20
5.245268790342793
 10
-49.349570442272494
 20
4.9779410566202635
 10
-49.778098230153994
 20
4.705415665925717
 10
-50.20513390081591
 20
4.427700306157456
 10
-50.63062914412871
 20
4.1448030676624
 10
-51.05453569334345
 20
3.8567324430301504
 10
-51.47680532823922
 20
3.5634973268633297
 10
-47.90528296455705
 20
3.013944937407032
 10
-48.32263502527443
 20
2.735497068929975
 10
-48.73836348237364
 20
2.451922727172759
 10
-49.15242038616375
 20
2.163231421238956
 10
-49.56475784297322
 20
1.8694330604287526
 10
-49.975328018286596
 20
1.5705379539064124
 10
-50.384083139878314
 20
1.2665568103442033
 10
-50.790975500945116
 20
0.9575007375427276
 10
-51.19595746323539
 20
0.6433812420276426
 10
-51.598981460176695
 20
0.32421022862282817
 10
-48.00000000000001
 20
5.8783046359072966e-15
 10
-48.39904462543703
 20
-0.30410416793304984
 10
-48.796146957146235
 20
-0.6132227463076066
 10
-49.191259737135795
 20
-0.927343233998084
 10
-49.58433578845169
 20
-1.246452733989544
 10
-49.97532801828658
 20
-1.570537953906422
 10
-50.36418942108572
 20
-1.8995852065647114
 10
-50.75087308164874
 20
-2.23358041054755
 10
-51.13533217822808
 20
-2.5725090908041937
 10
-51.51751998562312
 20
-2.9163563792724614
 10
-51.89738987827011
 20
-3.2651070155242934
 10
-48.28444530788332
 20
-3.342505244577242
 10
-48.661354332717956
 20
-3.67594810976312
 10
-49.03596365927429
 20
-4.014258089153359
 10
-49.40822701350136
 20
-4.35741934891687
 10
-49.77809823015403
 20
-4.70541566592573
 10
-50.145531255857534
 20
-5.058230428501245
 10
-50.51048015216754
 20
-5.415846637183197
 10
-50.872899098624444
 20
-5.778246905522262
 10
-51.23274239580238
 20
-6.145413460895277
 10
-47.62150566309496
 20
-6.015995211086609
 10
-47.97928934376412
 20
-6.36771498006648
 10
-48.33451757399661
 20
-6.724166185410349
 10
-48.68714503525044
 20
-7.085330501570818
 10
-49.03712653900056
 20
-7.451189220389567
 10
-49.384417029756904
 20
-7.821723252011539
 10
-49.72897158807655
 20
-8.19691312582213
 10
-50.07074543356912
 20
-8.576738991406883
 10
-50.40969392789532
 20
-8.961180619534137
 10
-50.74577257775903
 20
-9.350217403160297
 10
-47.14978803497706
 20
-8.99430310011479
 10
-47.484781044257396
 20
-9.367794253661652
 10
-47.816926556351255
 20
-9.745847049103077
 10
-48.14618049281323
 20
-10.128440351478154
 10
-48.47249892898241
 20
-10.515552652133909
 10
-48.79583809693737
 20
-10.907162069827125
 10
-49.116154388443505
 20
-11.303246351848816
 10
-49.43340435789203
 20
-11.703782875170806
 10
-49.74754472523133
 20
-12.108748647614714
 10
-50.05853237888947
 20
-12.518120309043034
 10
-46.49199173417432
 20
-11.937114583913047
 10
-46.802872007701865
 20
-12.330903123075712
 10
-47.11062397506376
 20
-12.729065506946965
 10
-47.41520497186849
 20
-13.13157787456248
 10
-47.71657251066986
 20
-13.538416001659332
 10
-48.014684283847174
 20
-13.94955530196147
 10
-48.30949816647575
 20
-14.364970828486802
 10
-48.60097221918861
 20
-14.784637274876225
 10
-48.88906469102813
 20
-15.2085289767442
 10
-49.173734022288514
 20
-15.636619913051158
 10
-45.65071278216739
 20
-14.832815729997474
 10
-45.93625341753026
 20
-15.245347551316748
 10
-46.21839728374354
 20
-15.662048158591828
 10
-46.4971032988464
 20
-16.082891059023172
 10
-46.772330580286095
 20
-16.50784940834015
 10
-47.04403844771128
 20
-16.936896012264576
 10
-47.31218642575528
 20
-17.37000332799568
 10
-47.57673424680818
 20
-17.807143465715974
 10
-47.83764185377856
 20
-18.248288190118462
 10
-48.094869402843706
 20
-18.693408921954557
 10
-44.62927132263607
 20
-17.66997852886454
 10
-44.888345421397624
 20
-18.099625557709548
 10
-45.14376769352155
 20
-18.5332198614639
 10
-45.39549880160967
 20
-18.970732420047923
 10
-45.643499629347176
 20
-19.412133875125253
 10
-45.88773128419908
 20
-19.85739453173905
 10
-46.12815510009425
 20
-20.306484359968618
 10
-46.36473264009794
 20
-20.759372996606523
 10
-46.59742569907179
 20
-21.21602974685615
 10
-46.82619630632164
 20
-21.676423586049204
 10
-43.431698518368954
 20
-20.4374059951235
 10
-43.663283633421024
 20
-20.882472610958423
 10
-43.89097627643893
 20
-21.331249412565544
 10
-44.114739009833606
 20
-21.78370496711397
 10
-44.334534637902706
 20
-22.23980751806562
 10
-44.55032620941841
 20
-22.699524986977337
 10
-44.762077020202646
 20
-23.162824975322984
 10
-44.969750615688746
 20
-23.62967476633489
 10
-45.17331079346961
 20
-24.10004132686503
 10
-45.37272160583272
 20
-24.573891309265672
 10
-42.06272064210546
 20
-23.12417635688234
 10
-42.26590281280016
 20
-23.582906085106103
 10
-42.46496722787286
 20
-24.045094267556646
 10
-42.65987849729293
 20
-24.510707182702976
 10
-42.850601492764646
 20
-24.979710801133738
 10
-43.03710135019718
 20
-25.45207078751856
 10
-43.21934347216009
 20
-25.927752502587932
 10
-43.3972935303242
 20
-26.40672100513205
 10
-43.57091746788824
 20
-26.88894105401836
 10
-43.7401815019903
 20
-27.37437711022749
 10
-40.52774042409674
 20
-25.71968615899186
 10
-40.70171778323139
 20
-26.190268602940804
 10
-40.871368354056514
 20
-26.664044120632326
 10
-41.03665893376804
 20
-27.140976834918774
 10
-41.19755660011231
 20
-27.621030577814125
 10
-41.35402871372811
 20
-28.104168892606545
 10
-41.506042920472744
 20
-28.59035503598853
 10
-41.653567153733
 20
-29.079551980205242
 10
-41.79656963671982
 20
-29.57172241522012
 10
-41.93501888474767
 20
-30.066828750898555
 10
-38.832815729997485
 20
-28.213692110038735
 10
-38.97690166841831
 20
-28.694270095795265
 10
-39.1164688616988
 20
-29.177763173206934
 10
-39.2514864252977
 20
-29.66413345110002
 10
-39.38192377293265
 20
-30.15334276565245
 10
-39.50775061878453
 20
-30.645352682648838
 10
-39.62893697968561
 20
-31.140124499752876
 10
-39.745453177290685
 20
-31.637619248796135
 10
-39.857269840231616
 20
-32.1377976980839
 10
-39.96435790625466
 20
-32.640620354717214
 10
-36.98463565323789
 20
-30.596351507937108
 10
-37.098261529572554
 20
-31.085028413746702
 10
-37.20719453735867
 20
-31.57633092458889
 10
-37.31140623220514
 20
-32.07021928480326
 10
-37.41086848451076
 20
-32.566653485346656
 10
-37.505553481522995
 20
-33.065593266182624
 10
-37.59543372937879
 20
-33.5669981186863
 10
-37.68048205512796
 20
-34.070827288065374
 10
-37.7606716087385
 20
-34.57703977579644
 10
-37.8359758650841
 20
-35.08559434207683
 10
-34.99049411622777
 20
-32.85826108457708
 10
-35.073211501053066
 20
-33.35310832594767
 10
-35.15108041452988
 20
-33.85028132366491
 10
-35.2240749646741
 20
-34.34973861447887
 10
-35.29216958958057
 20
-34.85143850202295
 10
-35.355339059327385
 20
-35.3553390593274
 10
-35.41355847786201
 20
-35.86139813134798
 10
-35.466803284868405
 20
-36.36957333750901
 10
-35.51504925761562
 20
-36.879822074260844
 10
-35.5582725127872
 20
-37.39210151765163
 10
-32.858261084577066
 20
-34.990494116227765
 10
-32.9097435301651
 20
-35.489558757171935
 10
-32.956241036306
 20
-35.990640127078905
 10
-32.99773036560664
 20
-36.493695218746005
 10
-33.034188624738874
 20
-36.99868081303942
 10
-33.0655932661826
 20
-37.50555348152298
 10
-33.091922089948994
 20
-38.01426958909963
 10
-33.11315324528465
 20
-38.524785296667126
 10
-33.129265232355564
 20
-39.03705656378616
 10
-33.140236903911756
 20
-39.551039151362424
 10
-30.59635150793712
 20
-36.984635653237916
 10
-30.616395836595224
 20
-37.4859481136187
 10
-30.631338430986197
 20
-37.98896031647078
 10
-30.64115880001513
 20
-38.49362788036812
 10
-30.645836809280592
 20
-38.99990623397635
 10
-30.64535268264882
 20
-39.50775061878451
 10
-30.639687003808117
 20
-40.01711609185095
 10
-30.62882071780247
 20
-40.52795752855944
 10
-30.612735132544962
 20
-41.04022962538886
 10
-30.591411920310666
 20
-41.55388690269393
 10
-30.5648331192086
 20
-42.06888370749725
 10
-28.202219215959094
 20
-39.33439755856179
 10
-28.185547927006656
 20
-39.83735543499857
 10
-28.163660579253882
 20
-40.341643778812305
 10
-28.136539876687113
 20
-40.847216842369996
 10
-28.104168892606534
 20
-41.35402871372806
 10
-28.066531071004686
 20
-41.862033319468985
 10
-28.023610227924255
 20
-42.371184427549075
 10
-27.97539055279459
 20
-42.8814356501577
 10
-27.92185660974679
 20
-43.39274044658551
 10
-25.719686158991845
 20
-40.52774042409677
 10
-25.676741320445924
 20
-41.02761210651802
 10
-25.628521942111234
 20
-41.52853071158101
 10
-25.575013256938902
 20
-42.030449639605315
 10
-25.516200875562724
 20
-42.533322147205126
 10
-25.452070787518572
 20
-43.03710135019722
 10
-25.38260936244235
 20
-43.541740226518876
 10
-25.30780335124614
 20
-44.04719161915614
 10
-25.227639887272524
 20
-44.5534082390797
 10
-25.142106487427153
 20
-45.060342668191936
 10
-25.05119105328919
 20
-45.5679473622809
 10
-23.04992905752826
 20
-42.55890941322298
 10
-22.970351889668223
 20
-43.05581185002572
 10
-22.885433041410955
 20
-43.553380517556775
 10
-22.795161086825807
 20
-44.05156786115185
 10
-22.69952498697734
 20
-44.55032620941838
 10
-22.59851409093763
 20
-45.04960777722374
 10
-22.4921181367762
 20
-45.549364668689975
 10
-22.380327252527767
 20
-46.04954888019825
 10
-22.263131957137478
 20
-46.55011230339926
 10
-22.140523161383783
 20
-47.051006728232984
 10
-20.33214925513142
 20
-43.92224614779007
 10
-20.22152835247227
 20
-44.413171369427765
 10
-20.10553447702838
 20
-44.90442610025238
 10
-19.984159211397674
 20
-45.3959621619975
 10
-19.857394531739033
 20
-45.887731284199106
 10
-19.725232808595003
 20
-46.379685107239865
 10
-19.587666807691743
 20
-46.871775185401894
 10
-19.444689690716217
 20
-47.36395298992426
 10
-19.296295016070513
 20
-47.8561699120685
 10
-17.669978528864537
 20
-44.62927132263608
 10
-17.534127748500016
 20
-45.1122418429774
 10
-17.392899681206636
 20
-45.59525239188272
 10
-17.246288553409943
 20
-46.07825442801106
 10
-17.094288989456043
 20
-46.56119933963221
 10
-16.93689601226457
 20
-47.04403844771127
 10
-16.77410504395852
 20
-47.52672300900043
 10
-16.60591190647107
 20
-48.00920421913409
 10
-16.432312822129138
 20
-48.49143321573089
 10
-16.25330441421372
 20
-48.97336108149921
 10
-16.06888370749727
 20
-49.454938847347975
 10
-14.66690705022626
 20
-46.12420012943344
 10
-14.495629180959305
 20
-46.597389783636174
 10
-14.31897940795097
 20
-47.07023293669452
 10
-14.136955418510816
 20
-47.54268073526185
 10
-13.949555301961452
 20
-48.01468428384722
 10
-13.756777550073187
 20
-48.48619464793874
 10
-13.558621057475087
 20
-48.95716285713248
 10
-13.355085122042711
 20
-49.42753990826364
 10
-13.146169445262526
 20
-49.89727676854164
 10
-11.937114583913026
 20
-46.49199173417435
 10
-11.74180277049772
 20
-46.95412727012112
 10
-11.541151054757755
 20
-47.41562856623615
 10
-11.335159792488254
 20
-47.87644674032063
 10
-11.12382974308932
 20
-48.336532890214215
 10
-10.90716206982712
 20
-48.79583809693738
 10
-10.685158340071563
 20
-49.25431342783694
 10
-10.457820525509959
 20
-49.711909939734
 10
-10.225151002337643
 20
-50.16857868207344
 10
-9.98715255142438
 20
-50.624270700076096
 10
-8.994303100114783
 20
-47.14978803497706
 10
-8.770358959553434
 20
-47.59874792177401
 10
-8.541125277993467
 20
-48.04673952502523
 10
-8.306605479866517
 20
-48.49371408133069
 10
-8.066803393666218
 20
-48.93962283271027
 10
-7.821723252011551
 20
-49.384417029756875
 10
-7.571369691686141
 20
-49.82804793479088
 10
-7.315747753654413
 20
-50.270466825014665
 10
-7.054862883053454
 20
-50.7116249956686
 10
-6.7887209291617765
 20
-51.151473763186544
 10
-6.015995211086587
 20
-47.62150566309499
 10
-5.764302548591689
 20
-48.05551806117899
 10
-5.507391581825917
 20
-48.4882319533764
 10
-5.245268790342776
 20
-48.91959888753236
 10
-4.977941056620265
 20
-49.34957044227248
 10
-4.7054156659257
 20
-49.778098230154015
 10
-4.427700306157457
 20
-50.205133900815895
 10
-4.144803067662385
 20
-50.63062914412877
 10
-3.856732443030152
 20
-51.05453569334344
 10
-3.5634973268633545
 20
-51.47680532823921
 10
-3.0139449374070346
 20
-47.90528296455704
 10
-2.735497068929997
 20
-48.32263502527438
 10
-2.4519227271727413
 20
-48.738363482373664
 10
-2.1632314212389585
 20
-49.15242038616373
 10
-1.8694330604287346
 20
-49.56475784297324
 10
-1.570537953906415
 20
-49.97532801828658
 10
-1.2665568103441858
 20
-50.384083139878385
 10
-0.9575007375427302
 20
-50.7909755009451
 10
-0.6433812420276682
 20
-51.19595746323537
 10
-0.3242102286228312
 20
-51.59898146017668
 10
-9.552245033349353e-15
 20
-51.99999999999999
 10
0.3041041679330685
 20
-48.39904462543705
 10
0.6132227463076034
 20
-48.79614695714622
 10
0.9273432339981031
 20
-49.191259737135816
 10
1.2464527339895404
 20
-49.584335788451675
 10
1.570537953906443
 20
-49.97532801828664
 10
1.8995852065647076
 20
-50.364189421085705
 10
2.2335804105475234
 20
-50.75087308164873
 10
2.5725090908042145
 20
-51.13533217822811
 10
2.9163563792724574
 20
-51.5175199856231
 10
3.01394493740706
 20
-47.90528296455705
 10
3.342505244577239
 20
-48.28444530788331
 10
3.6759481097631412
 20
-48.661354332717984
 10
4.014258089153356
 20
-49.03596365927428
 10
4.357419348916845
 20
-49.40822701350135
 10
4.705415665925726
 20
-49.778098230154015
 10
5.058230428501219
 20
-50.14553125585753
 10
5.415846637183219
 20
-50.51048015216756
 10
5.7782469055222565
 20
-50.87289909862443
 10
6.145413460895301
 20
-51.232742395802404
 10
6.015995211086604
 20
-47.62150566309494
 10
6.367714980066499
 20
-47.97928934376414
 10
6.724166185410344
 20
-48.33451757399659
 10
7.085330501570791
 20
-48.687145035250424
 10
7.451189220389562
 20
-49.037126539000546
 10
7.821723252011534
 20
-49.38441702975689
 10
8.196913125822153
 20
-49.72897158807657
 10
8.576738991406877
 20
-50.07074543356911
 10
8.961180619534158
 20
-50.40969392789534
 10
9.350217403160292
 20
-50.74577257775902
 10
8.994303100114811
 20
-47.14978803497708
 10
9.367794253661646
 20
-47.48478104425738
 10
9.745847049103048
 20
-47.81692655635125
 10
10.128440351478176
 20
-48.146180492813244
 10
10.515552652133902
 20
-48.4724989289824
 10
10.90716206982715
 20
-48.79583809693739
 10
11.303246351848811
 20
-49.11615438844349
 10
11.703782875170829
 20
-49.433404357892044
 10
12.108748647614709
 20
-49.747544725231315
 10
12.518120309043004
 20
-50.05853237888946
 10
11.93711458391304
 20
-46.491991734174306
 10
12.330903123075686
 20
-46.80287200770186
 10
12.729065506946986
 20
-47.11062397506378
 10
13.131577874562472
 20
-47.415204971868484
 10
13.538416001659357
 20
-47.71657251066988
 10
13.949555301961462
 20
-48.01468428384716
 10
14.364970828486829
 20
-48.30949816647576
 10
14.784637274876218
 20
-48.6009722191886
 10
15.208528976744173
 20
-48.88906469102812
 10
15.63661991305115
 20
-49.1737340222885
 10
14.832815729997467
 20
-45.650712782167375
 10
15.245347551316774
 20
-45.936253417530274
 10
15.662048158591821
 20
-46.21839728374353
 10
16.082891059023197
 20
-46.49710329884641
 10
16.507849408340142
 20
-46.77233058028608
 10
16.936896012264604
 20
-47.044038447711294
 10
17.37000332799567
 20
-47.312186425755264
 10
17.807143465715942
 20
-47.57673424680817
 10
18.248288190118455
 20
-47.83764185377854
 10
18.69340892195455
 20
-48.09486940284369
 10
17.669978528864565
 20
-44.62927132263608
 10
18.09962555770954
 20
-44.88834542139762
 10
18.533219861463923
 20
-45.14376769352157
 10
18.970732420047916
 20
-45.395498801609655
 10
19.412133875125278
 20
-45.64349962934719
 10
19.857394531739057
 20
-45.8877312841991
 10
20.306484359968575
 20
-46.12815510009422
 10
20.75937299660655
 20
-46.364732640097955
 10
21.216029746856144
 20
-46.597425699071785
 10
21.676423586049243
 20
-46.82619630632168
 10
20.437405995123502
 20
-43.431698518368975
 10
20.882472610958448
 20
-43.66328363342103
 10
21.331249412565533
 20
-43.89097627643891
 10
21.78370496711394
 20
-44.114739009833606
 10
22.23980751806563
 20
-44.33453463790272
 10
22.699524986977316
 20
-44.550326209418365
 10
23.162824975323012
 20
-44.76207702020265
 10
23.629674766334883
 20
-44.96975061568873
 10
24.100041326865075
 20
-45.173310793469646
 10
24.573891309265683
 20
-45.372721605832744
 10
23.12417635688237
 20
-42.06272064210547
 10
23.582906085106096
 20
-42.26590281280015
 10
24.045094267556617
 20
-42.464967227872854
 10
24.510707182702987
 20
-42.65987849729296
 10
24.979710801133713
 20
-42.8506014927646
 10
25.45207078751859
 20
-43.0371013501972
 10
25.927752502587925
 20
-43.219343472160084
 10
26.4067210051321
 20
-43.39729353032424
 10
26.888941054018368
 20
-43.570917467888265
 10
27.37437711022752
 20
-43.74018150199031
 10
25.719686158991856
 20
-40.527740424096734
 10
26.190268602940787
 20
-40.701717783231395
 10
26.664044120632376
 20
-40.87136835405656
 10
27.140976834918742
 20
-41.036658933767995
 10
27.621030577814157
 20
-41.19755660011232
 10
28.104168892606538
 20
-41.354028713728106
 10
28.590355035988583
 20
-41.50604292047279
 10
29.079551980205252
 20
-41.65356715373302
 10
29.571722415220062
 20
-41.796569636719795
 10
30.066828750898548
 20
-41.93501888474766
 10
28.213692110038703
 20
-38.83281572999749
 10
28.694270095795314
 20
-38.97690166841834
 10
29.177763173206905
 20
-39.11646886169876
 10
29.66413345110005
 20
-39.251486425297706
 10
30.153342765652436
 20
-39.381923772932645
 10
30.64535268264889
 20
-39.50775061878456
 10
31.14012449975289
 20
-39.62893697968563
 10
31.63761924879609
 20
-39.74545317729066
 10
32.137797698083894
 20
-39.85726984023161
 10
32.64062035471722
 20
-39.964357906254676
 10
30.596351507937158
 20
-36.98463565323792
 10
31.085028413746667
 20
-37.09826152957252
 10
31.57633092458892
 20
-37.20719453735867
 10
32.07021928480325
 20
-37.31140623220512
 10
32.566653485346706
 20
-37.410868484510786
 10
33.06559326618263
 20
-37.505553481523016
 10
33.56699811868625
 20
-37.59543372937877
 10
34.0708272880654
 20
-37.68048205512796
 10
34.57703977579646
 20
-37.76067160873852
 10
35.08559434207689
 20
-37.83597586508414
 10
35.59644950829179
 20
-37.90636862591339
 10
33.35310832594771
 20
-35.073211501053066
 10
33.8502813236649
 20
-35.151080414529865
 10
34.349738614478845
 20
-35.2240749646741
 10
34.851438502022965
 20
-35.29216958958059
 10
35.35533905932735
 20
-35.35533905932736
 10
35.86139813134801
 20
-35.413558477862004
 10
36.36957333750903
 20
-35.46680328486842
 10
36.87982207426089
 20
-35.51504925761565
 10
37.3921015176516
 20
-35.55827251278717
 10
34.990494116227794
 20
-32.85826108457706
 10
35.48955875717192
 20
-32.9097435301651
 10
35.99064012707888
 20
-32.956241036306004
 10
36.49369521874602
 20
-32.99773036560666
 10
36.99868081303941
 20
-33.03418862473887
 10
37.50555348152301
 20
-33.065593266182596
 10
38.01426958909964
 20
-33.091922089949016
 10
38.52478529666713
 20
-33.11315324528467
 10
39.037056563786116
 20
-33.129265232355536
 10
39.551039151362495
 20
-33.140236903911756
 10
36.98463565323791
 20
-30.596351507937115
 10
37.48594811361871
 20
-30.616395836595238
 10
37.988960316470795
 20
-30.63133843098621
 10
38.49362788036811
 20
-30.641158800015123
 10
38.99990623397633
 20
-30.64583680928059
 10
39.50775061878453
 20
-30.645352682648834
 10
40.01711609185097
 20
-30.639687003808138
 10
40.52795752855939
 20
-30.628820717802444
 10
41.04022962538893
 20
-30.612735132544962
 10
41.55388690269391
 20
-30.591411920310662
 10
38.83281572999748
 20
-28.213692110038725
 10
39.334397558561804
 20
-28.202219215959104
 10
39.83735543499855
 20
-28.185547927006652
 10
40.34164377881229
 20
-28.16366057925387
 10
40.84721684237002
 20
-28.13653987668713
 10
41.35402871372816
 20
-28.10416889260655
 10
41.86203331946894
 20
-28.066531071004665
 10
42.37118442754906
 20
-28.02361022792425
 10
42.881435650157684
 20
-27.975390552794583
 10
43.39274044658553
 20
-27.921856609746808
 10
40.52774042409679
 20
-25.719686158991863
 10
41.027612106518006
 20
-25.67674132044592
 10
41.528530711581006
 20
-25.628521942111234
 10
42.03044963960534
 20
-25.575013256938913
 10
42.53332214720523
 20
-25.51620087556274
 10
43.037101350197176
 20
-25.452070787518554
 10
43.54174022651887
 20
-25.38260936244234
 10
44.04719161915613
 20
-25.30780335124614
 10
44.55340823907972
 20
-25.22763988727254
 10
45.06034266819196
 20
-25.142106487427167
 10
45.56794736228089
 20
-25.051191053289187
 10
42.55890941322297
 20
-23.049929057528253
 10
43.05581185002574
 20
-22.97035188966824
 10
43.55338051755688
 20
-22.885433041410966
 10
44.05156786115181
 20
-22.795161086825786
 10
44.550326209418365
 20
-22.699524986977334
 10
45.04960777722373
 20
-22.598514090937627
 10
45.54936466869
 20
-22.492118136776213
 10
46.04954888019827
 20
-22.380327252527778
 10
46.55011230339925
 20
-22.263131957137478
 10
43.43169851836898
 20
-20.437405995123484
 10
43.922246147790084
 20
-20.33214925513143
 10
44.41317136942779
 20
-20.221528352472284
 10
44.90442610025234
 20
-20.105534477028364
 10
45.39596216199749
 20
-19.98415921139767
 10
45.8877312841991
 20
-19.857394531739033
 10
46.37968510723988
 20
-19.725232808595013
 10
46.87177518540191
 20
-19.587666807691754
 10
47.36395298992424
 20
-19.444689690716213
 10
47.85616991206857
 20
-19.296295016070495
 10
44.62927132263609
 20
-17.669978528864547
 10
45.11224184297742
 20
-17.534127748500026
 10
45.59525239188267
 20
-17.39289968120662
 10
46.07825442801104
 20
-17.246288553409947
 10
46.561199339632196
 20
-17.094288989456043
 10
47.044038447711294
 20
-16.93689601226458
 10
47.52672300900045
 20
-16.77410504395853
 10
48.00920421913408
 20
-16.60591190647107
 10
48.49143321573096
 20
-16.432312822129116
 10
48.97336108149923
 20
-16.25330441421373
 10
45.65071278216738
 20
-14.832815729997492
 10
46.12420012943339
 20
-14.666907050226248
 10
46.59738978363616
 20
-14.495629180959304
 10
47.0702329366945
 20
-14.318979407950968
 10
47.54268073526186
 20
-14.136955418510825
 10
48.01468428384723
 20
-13.94955530196146
 10
48.486194647938724
 20
-13.756777550073187
 10
48.95716285713247
 20
-13.558621057475087
 10
49.427539908263654
 20
-13.355085122042723
 10
49.89727676854166
 20
-13.146169445262535
 10
46.4919917341743
 20
-11.937114583913015
 10
46.954127270121106
 20
-11.74180277049772
 10
47.41562856623614
 20
-11.541151054757755
 10
47.876446740320645
 20
-11.33515979248826
 10
48.33653289021431
 20
-11.123829743089301
 10
48.795838096937366
 20
-10.90716206982712
 10
49.25431342783693
 20
-10.685158340071562
 10
49.71190993973402
 20
-10.457820525509966
 10
50.16857868207346
 20
-10.225151002337652
 10
50.624270700076046
 20
-9.987152551424373
 10
51.0789370378918
 20
-9.74382835845768
 10
47.598747921774
 20
-8.770358959553434
 10
48.04673952502525
 20
-8.541125277993475
 10
48.493714081330786
 20
-8.306605479866494
 10
48.939622832710256
 20
-8.066803393666218
 10
49.38441702975686
 20
-7.821723252011552
 10
49.8280479347909
 20
-7.571369691686147
 10
50.27046682501469
 20
-7.31574775365442
 10
50.71162499566855
 20
-7.05486288305345
 10
51.15147376318653
 20
-6.788720929161777
 10
47.62150566309498
 20
-6.0159952110865875
 10
48.05551806117901
 20
-5.7643025485916946
 10
48.4882319533765
 20
-5.507391581825887
 10
48.919598887532345
 20
-5.245268790342778
 10
49.349570442272466
 20
-4.977941056620266
 10
49.778098230154036
 20
-4.705415665925705
 10
50.205133900815916
 20
-4.427700306157463
 10
50.63062914412872
 20
-4.144803067662384
 10
51.054535693343425
 20
-3.8567324430301544
 10
51.47680532823927
 20
-3.5634973268633168
 10
47.90528296455706
 20
-3.0139449374070386
 10
48.3226350252744
 20
-2.7354970689300013
 10
48.73836348237365
 20
-2.4519227271727435
 10
49.15242038616372
 20
-2.1632314212389607
 10
49.56475784297327
 20
-1.8694330604287388
 10
49.97532801828661
 20
-1.570537953906419
 10
50.38408313987832
 20
-1.2665568103441873
 10
50.79097550094509
 20
-0.9575007375427331
 10
51.19595746323544
 20
-0.6433812420276267
 10
51.59898146017671
 20
-0.3242102286228346
  0
CIRCLE
  5
30
330
17
100
AcDbEntity
  8
0
100
AcDbCircle
 10
0.0
 20
0.0
 30
0.0
 40
2.875
  0
POINT
  5
31
330
17
100
AcDbEntity
  8
0
100
AcDbPoint
 10
0.0
 20
0.0
 30
0.0
  0
ENDSEC
  0
SECTION
  2
OBJECTS
  0
DICTIONARY
  5
A
330
0
100
AcDbDictionary
280
0
281
1
  3
ACAD_COLOR
350
B
  3
ACAD_GROUP
350
C
  3
ACAD_LAYOUT
350
D
  3
ACAD_MATERIAL
350
E
  3
ACAD_MLEADERSTYLE
350
F
  3
ACAD_MLINESTYLE
350
10
  3
ACAD_PLOTSETTINGS
350
11
  3
ACAD_PLOTSTYLENAME
350
12
  3
ACAD_SCALELIST
350
14
  3
ACAD_TABLESTYLE
350
15
  3
ACAD_VISUALSTYLE
350
16
  3
EZDXF_META
350
2D
  0
DICTIONARY
  5
B
330
A
100
AcDbDictionary
280
0
281
1
  0
DICTIONARY
  5
C
330
A
100
AcDbDictionary
280
0
281
1
  0
DICTIONARY
  5
D
330
A
100
AcDbDictionary
280
0
281
1
  3
Model
350
1A
  3
Layout1
350
1E
  0
DICTIONARY
  5
E
330
A
100
AcDbDictionary
280
0
281
1
  3
ByBlock
350
1F
  3
ByLayer
350
20
  3
Global
350
21
  0
DICTIONARY
  5
F
330
A
100
AcDbDictionary
280
0
281
1
  3
Standard
350
2C
  0
DICTIONARY
  5
10
330
A
100
AcDbDictionary
280
0
281
1
  3
Standard
350
22
  0
DICTIONARY
  5
11
330
A
100
AcDbDictionary
280
0
281
1
  0
ACDBDICTIONARYWDFLT
  5
12
330
A
100
AcDbDictionary
280
0
281
1
  3
Normal
350
13
100
AcDbDictionaryWithDefault
340
13
  0
ACDBPLACEHOLDER
  5
13
330
12
  0
DICTIONARY
  5
14
330
A
100
AcDbDictionary
280
0
281
1
  0
DICTIONARY
  5
15
330
A
100
AcDbDictionary
280
0
281
1
  0
DICTIONARY
  5
16
330
A
100
AcDbDictionary
280
0
281
1
  0
LAYOUT
  5
1A
330
D
100
AcDbPlotSettings
  1

  4
A3
  6

 40
7.5
 41
20.0
 42
7.5
 43
20.0
 44
420.0
 45
297.0
 46
0.0
 47
0.0
 48
0.0
 49
0.0
140
0.0
141
0.0
142
1.0
143
1.0
 70
1024
 72
1
 73
0
 74
5
  7

 75
16
 76
0
 77
2
 78
300
147
1.0
148
0.0
149
0.0
100
AcDbLayout
  1
Model
 70
1
 71
0
 10
0.0
 20
0.0
 11
420.0
 21
297.0
 12
0.0
 22
0.0
 32
0.0
 14
1e+20
 24
1e+20
 34
1e+20
 15
-1e+20
 25
-1e+20
 35
-1e+20
146
0.0
 13
0.0
 23
0.0
 33
0.0
 16
1.0
 26
0.0
 36
0.0
 17
0.0
 27
1.0
 37
0.0
 76
1
330
17
  0
LAYOUT
  5
1E
330
D
100
AcDbPlotSettings
  1

  4
A3
  6

 40
7.5
 41
20.0
 42
7.5
 43
20.0
 44
420.0
 45
297.0
 46
0.0
 47
0.0
 48
0.0
 49
0.0
140
0.0
141
0.0
142
1.0
143
1.0
 70
0
 72
1
 73
0
 74
5
  7

 75
16
 76
0
 77
2
 78
300
147
1.0
148
0.0
149
0.0
100
AcDbLayout
  1
Layout1
 70
1
 71
1
 10
0.0
 20
0.0
 11
420.0
 21
297.0
 12
0.0
 22
0.0
 32
0.0
 14
1e+20
 24
1e+20
 34
1e+20
 15
-1e+20
 25
-1e+20
 35
-1e+20
146
0.0
 13
0.0
 23
0.0
 33
0.0
 16
1.0
 26
0.0
 36
0.0
 17
0.0
 27
1.0
 37
0.0
 76
1
330
1B
  0
MATERIAL
  5
1F
102
{ACAD_REACTORS
330
E
102
}
330
E
100
AcDbMaterial
  1
ByBlock
  2

 70
0
 40
1.0
 71
1
 41
1.0
 91
-1023410177
 42
1.0
 72
1
  3

 73
1
 74
1
 75
1
 44
0.5
 73
0
 45
1.0
 46
1.0
 77
1
  4

 78
1
 79
1
170
1
 48
1.0
171
1
  6

172
1
173
1
174
1
140
1.0
141
1.0
175
1
  7

176
1
177
1
178
1
143
1.0
179
1
  8

270
1
271
1
272
1
145
1.0
146
1.0
273
1
  9

274
1
275
1
276
1
 42
1.0
 72
1
  3

 73
1
 74
1
 75
1
 94
63
  0
MATERIAL
  5
20
102
{ACAD_REACTORS
330
E
102
}
330
E
100
AcDbMaterial
  1
ByLayer
  2

 70
0
 40
1.0
 71
1
 41
1.0
 91
-1023410177
 42
1.0
 72
1
  3

 73
1
 74
1
 75
1
 44
0.5
 73
0
 45
1.0
 46
1.0
 77
1
  4

 78
1
 79
1
170
1
 48
1.0
171
1
  6

172
1
173
1
174
1
140
1.0
141
1.0
175
1
  7

176
1
177
1
178
1
143
1.0
179
1
  8

270
1
271
1
272
1
145
1.0
146
1.0
273
1
  9

274
1
275
1
276
1
 42
1.0
 72
1
  3

 73
1
 74
1
 75
1
 94
63
  0
MATERIAL
  5
21
102
{ACAD_REACTORS
330
E
102
}
330
E
100
AcDbMaterial
  1
Global
  2

 70
0
 40
1.0
 71
1
 41
1.0
 91
-1023410177
 42
1.0
 72
1
  3

 73
1
 74
1
 75
1
 44
0.5
 73
0
 45
1.0
 46
1.0
 77
1
  4

 78
1
 79
1
170
1
 48
1.0
171
1
  6

172
1
173
1
174
1
140
1.0
141
1.0
175
1
  7

176
1
177
1
178
1
143
1.0
179
1
  8

270
1
271
1
272
1
145
1.0
146
1.0
273
1
  9

274
1
275
1
276
1
 42
1.0
 72
1
  3

 73
1
 74
1
 75
1
 94
63
  0
MLINESTYLE
  5
22
102
{ACAD_REACTORS
330
10
102
}
330
10
100
AcDbMlineStyle
  2
Standard
 70
0
  3

 62
256
 51
90.0
 52
90.0
 71
2
 49
0.5
 62
256
  6
BYLAYER
 49
-0.5
 62
256
  6
BYLAYER
  0
MLEADERSTYLE
  5
2C
102
{ACAD_REACTORS
330
F
102
}
330
F
100
AcDbMLeaderStyle
179
2
170
2
171
1
172
0
 90
2
 40
0.0
 41
0.0
173
1
 91
-1056964608
 92
-2
290
1
 42
2.0
291
1
 43
8.0
  3
Standard
 44
4.0
300

342
29
174
1
175
1
176
0
178
1
 93
-1056964608
 45
4.0
292
0
297
0
 46
4.0
 94
-1056964608
 47
1.0
 49
1.0
140
1.0
294
1
141
0.0
177
0
142
1.0
295
0
296
0
143
3.75
271
0
272
9
273
9
  0
DICTIONARY
  5
2D
330
A
100
AcDbDictionary
281
1
  3
CREATED_BY_EZDXF
350
2E
  3
WRITTEN_BY_EZDXF
350
34
  0
DICTIONARYVAR
  5
2E
330
2D
100
DictionaryVariables
280
0
  1
1.3.3 @ 2024-10-02T18:46:39.449132+00:00
  0
DICTIONARYVAR
  5
34
330
2D
100
DictionaryVariables
280
0
  1
1.3.3 @ 2024-10-02T18:46:39.457230+00:00
  0
ENDSEC
  0
EOF
